G04 #@! TF.FileFunction,Legend,Top*
%FSLAX46Y46*%
G04 Gerber Fmt 4.6, Leading zero omitted, Abs format (unit mm)*
G04 Created by KiCad (PCBNEW 4.0.7) date 04/13/18 19:54:45*
%MOMM*%
%LPD*%
G01*
G04 APERTURE LIST*
%ADD10C,0.100000*%
%ADD11C,0.150000*%
%ADD12C,0.200000*%
%ADD13C,2.200000*%
%ADD14C,1.700000*%
%ADD15C,2.500000*%
%ADD16C,4.000000*%
%ADD17R,1.600000X1.600000*%
%ADD18C,1.600000*%
%ADD19C,3.200000*%
%ADD20C,2.300000*%
%ADD21C,1.900000*%
%ADD22C,1.000000*%
G04 APERTURE END LIST*
D10*
D11*
X336400000Y-127485000D02*
X349400000Y-127485000D01*
X349400000Y-127485000D02*
X349400000Y-140485000D01*
X349400000Y-140485000D02*
X336400000Y-140485000D01*
X336400000Y-140485000D02*
X336400000Y-127485000D01*
X317350000Y-108435000D02*
X330350000Y-108435000D01*
X330350000Y-108435000D02*
X330350000Y-121435000D01*
X330350000Y-121435000D02*
X317350000Y-121435000D01*
X317350000Y-121435000D02*
X317350000Y-108435000D01*
X222100000Y-127485000D02*
X235100000Y-127485000D01*
X235100000Y-127485000D02*
X235100000Y-140485000D01*
X235100000Y-140485000D02*
X222100000Y-140485000D01*
X222100000Y-140485000D02*
X222100000Y-127485000D01*
X222100000Y-89385000D02*
X235100000Y-89385000D01*
X235100000Y-89385000D02*
X235100000Y-102385000D01*
X235100000Y-102385000D02*
X222100000Y-102385000D01*
X222100000Y-102385000D02*
X222100000Y-89385000D01*
X88750000Y-146535000D02*
X101750000Y-146535000D01*
X101750000Y-146535000D02*
X101750000Y-159535000D01*
X101750000Y-159535000D02*
X88750000Y-159535000D01*
X88750000Y-159535000D02*
X88750000Y-146535000D01*
X164950000Y-146535000D02*
X177950000Y-146535000D01*
X177950000Y-146535000D02*
X177950000Y-159535000D01*
X177950000Y-159535000D02*
X164950000Y-159535000D01*
X164950000Y-159535000D02*
X164950000Y-146535000D01*
X317350000Y-146535000D02*
X330350000Y-146535000D01*
X330350000Y-146535000D02*
X330350000Y-159535000D01*
X330350000Y-159535000D02*
X317350000Y-159535000D01*
X317350000Y-159535000D02*
X317350000Y-146535000D01*
X336400000Y-146535000D02*
X349400000Y-146535000D01*
X349400000Y-146535000D02*
X349400000Y-159535000D01*
X349400000Y-159535000D02*
X336400000Y-159535000D01*
X336400000Y-159535000D02*
X336400000Y-146535000D01*
X69700000Y-108435000D02*
X82700000Y-108435000D01*
X82700000Y-108435000D02*
X82700000Y-121435000D01*
X82700000Y-121435000D02*
X69700000Y-121435000D01*
X69700000Y-121435000D02*
X69700000Y-108435000D01*
X69700000Y-127485000D02*
X82700000Y-127485000D01*
X82700000Y-127485000D02*
X82700000Y-140485000D01*
X82700000Y-140485000D02*
X69700000Y-140485000D01*
X69700000Y-140485000D02*
X69700000Y-127485000D01*
X69700000Y-146535000D02*
X82700000Y-146535000D01*
X82700000Y-146535000D02*
X82700000Y-159535000D01*
X82700000Y-159535000D02*
X69700000Y-159535000D01*
X69700000Y-159535000D02*
X69700000Y-146535000D01*
X88750000Y-89385000D02*
X101750000Y-89385000D01*
X101750000Y-89385000D02*
X101750000Y-102385000D01*
X101750000Y-102385000D02*
X88750000Y-102385000D01*
X88750000Y-102385000D02*
X88750000Y-89385000D01*
X88750000Y-108435000D02*
X101750000Y-108435000D01*
X101750000Y-108435000D02*
X101750000Y-121435000D01*
X101750000Y-121435000D02*
X88750000Y-121435000D01*
X88750000Y-121435000D02*
X88750000Y-108435000D01*
X88750000Y-127485000D02*
X101750000Y-127485000D01*
X101750000Y-127485000D02*
X101750000Y-140485000D01*
X101750000Y-140485000D02*
X88750000Y-140485000D01*
X88750000Y-140485000D02*
X88750000Y-127485000D01*
X107800000Y-89385000D02*
X120800000Y-89385000D01*
X120800000Y-89385000D02*
X120800000Y-102385000D01*
X120800000Y-102385000D02*
X107800000Y-102385000D01*
X107800000Y-102385000D02*
X107800000Y-89385000D01*
X107800000Y-108435000D02*
X120800000Y-108435000D01*
X120800000Y-108435000D02*
X120800000Y-121435000D01*
X120800000Y-121435000D02*
X107800000Y-121435000D01*
X107800000Y-121435000D02*
X107800000Y-108435000D01*
X107800000Y-127485000D02*
X120800000Y-127485000D01*
X120800000Y-127485000D02*
X120800000Y-140485000D01*
X120800000Y-140485000D02*
X107800000Y-140485000D01*
X107800000Y-140485000D02*
X107800000Y-127485000D01*
X107800000Y-146535000D02*
X120800000Y-146535000D01*
X120800000Y-146535000D02*
X120800000Y-159535000D01*
X120800000Y-159535000D02*
X107800000Y-159535000D01*
X107800000Y-159535000D02*
X107800000Y-146535000D01*
X126850000Y-89385000D02*
X139850000Y-89385000D01*
X139850000Y-89385000D02*
X139850000Y-102385000D01*
X139850000Y-102385000D02*
X126850000Y-102385000D01*
X126850000Y-102385000D02*
X126850000Y-89385000D01*
X126850000Y-127485000D02*
X139850000Y-127485000D01*
X139850000Y-127485000D02*
X139850000Y-140485000D01*
X139850000Y-140485000D02*
X126850000Y-140485000D01*
X126850000Y-140485000D02*
X126850000Y-127485000D01*
X126850000Y-146535000D02*
X139850000Y-146535000D01*
X139850000Y-146535000D02*
X139850000Y-159535000D01*
X139850000Y-159535000D02*
X126850000Y-159535000D01*
X126850000Y-159535000D02*
X126850000Y-146535000D01*
X145900000Y-89385000D02*
X158900000Y-89385000D01*
X158900000Y-89385000D02*
X158900000Y-102385000D01*
X158900000Y-102385000D02*
X145900000Y-102385000D01*
X145900000Y-102385000D02*
X145900000Y-89385000D01*
X145900000Y-127485000D02*
X158900000Y-127485000D01*
X158900000Y-127485000D02*
X158900000Y-140485000D01*
X158900000Y-140485000D02*
X145900000Y-140485000D01*
X145900000Y-140485000D02*
X145900000Y-127485000D01*
X145900000Y-146535000D02*
X158900000Y-146535000D01*
X158900000Y-146535000D02*
X158900000Y-159535000D01*
X158900000Y-159535000D02*
X145900000Y-159535000D01*
X145900000Y-159535000D02*
X145900000Y-146535000D01*
X164950000Y-127485000D02*
X177950000Y-127485000D01*
X177950000Y-127485000D02*
X177950000Y-140485000D01*
X177950000Y-140485000D02*
X164950000Y-140485000D01*
X164950000Y-140485000D02*
X164950000Y-127485000D01*
X184000000Y-108435000D02*
X197000000Y-108435000D01*
X197000000Y-108435000D02*
X197000000Y-121435000D01*
X197000000Y-121435000D02*
X184000000Y-121435000D01*
X184000000Y-121435000D02*
X184000000Y-108435000D01*
X184000000Y-127485000D02*
X197000000Y-127485000D01*
X197000000Y-127485000D02*
X197000000Y-140485000D01*
X197000000Y-140485000D02*
X184000000Y-140485000D01*
X184000000Y-140485000D02*
X184000000Y-127485000D01*
X184000000Y-146535000D02*
X197000000Y-146535000D01*
X197000000Y-146535000D02*
X197000000Y-159535000D01*
X197000000Y-159535000D02*
X184000000Y-159535000D01*
X184000000Y-159535000D02*
X184000000Y-146535000D01*
X203050000Y-108435000D02*
X216050000Y-108435000D01*
X216050000Y-108435000D02*
X216050000Y-121435000D01*
X216050000Y-121435000D02*
X203050000Y-121435000D01*
X203050000Y-121435000D02*
X203050000Y-108435000D01*
X203050000Y-127485000D02*
X216050000Y-127485000D01*
X216050000Y-127485000D02*
X216050000Y-140485000D01*
X216050000Y-140485000D02*
X203050000Y-140485000D01*
X203050000Y-140485000D02*
X203050000Y-127485000D01*
X203050000Y-146535000D02*
X216050000Y-146535000D01*
X216050000Y-146535000D02*
X216050000Y-159535000D01*
X216050000Y-159535000D02*
X203050000Y-159535000D01*
X203050000Y-159535000D02*
X203050000Y-146535000D01*
X222100000Y-146535000D02*
X235100000Y-146535000D01*
X235100000Y-146535000D02*
X235100000Y-159535000D01*
X235100000Y-159535000D02*
X222100000Y-159535000D01*
X222100000Y-159535000D02*
X222100000Y-146535000D01*
X241150000Y-89385000D02*
X254150000Y-89385000D01*
X254150000Y-89385000D02*
X254150000Y-102385000D01*
X254150000Y-102385000D02*
X241150000Y-102385000D01*
X241150000Y-102385000D02*
X241150000Y-89385000D01*
X241150000Y-108435000D02*
X254150000Y-108435000D01*
X254150000Y-108435000D02*
X254150000Y-121435000D01*
X254150000Y-121435000D02*
X241150000Y-121435000D01*
X241150000Y-121435000D02*
X241150000Y-108435000D01*
X241150000Y-127485000D02*
X254150000Y-127485000D01*
X254150000Y-127485000D02*
X254150000Y-140485000D01*
X254150000Y-140485000D02*
X241150000Y-140485000D01*
X241150000Y-140485000D02*
X241150000Y-127485000D01*
X241150000Y-146535000D02*
X254150000Y-146535000D01*
X254150000Y-146535000D02*
X254150000Y-159535000D01*
X254150000Y-159535000D02*
X241150000Y-159535000D01*
X241150000Y-159535000D02*
X241150000Y-146535000D01*
X260200000Y-89385000D02*
X273200000Y-89385000D01*
X273200000Y-89385000D02*
X273200000Y-102385000D01*
X273200000Y-102385000D02*
X260200000Y-102385000D01*
X260200000Y-102385000D02*
X260200000Y-89385000D01*
X260200000Y-108435000D02*
X273200000Y-108435000D01*
X273200000Y-108435000D02*
X273200000Y-121435000D01*
X273200000Y-121435000D02*
X260200000Y-121435000D01*
X260200000Y-121435000D02*
X260200000Y-108435000D01*
X260200000Y-127485000D02*
X273200000Y-127485000D01*
X273200000Y-127485000D02*
X273200000Y-140485000D01*
X273200000Y-140485000D02*
X260200000Y-140485000D01*
X260200000Y-140485000D02*
X260200000Y-127485000D01*
X260200000Y-146535000D02*
X273200000Y-146535000D01*
X273200000Y-146535000D02*
X273200000Y-159535000D01*
X273200000Y-159535000D02*
X260200000Y-159535000D01*
X260200000Y-159535000D02*
X260200000Y-146535000D01*
X279250000Y-89385000D02*
X292250000Y-89385000D01*
X292250000Y-89385000D02*
X292250000Y-102385000D01*
X292250000Y-102385000D02*
X279250000Y-102385000D01*
X279250000Y-102385000D02*
X279250000Y-89385000D01*
X279250000Y-108435000D02*
X292250000Y-108435000D01*
X292250000Y-108435000D02*
X292250000Y-121435000D01*
X292250000Y-121435000D02*
X279250000Y-121435000D01*
X279250000Y-121435000D02*
X279250000Y-108435000D01*
X279250000Y-127485000D02*
X292250000Y-127485000D01*
X292250000Y-127485000D02*
X292250000Y-140485000D01*
X292250000Y-140485000D02*
X279250000Y-140485000D01*
X279250000Y-140485000D02*
X279250000Y-127485000D01*
X279250000Y-146535000D02*
X292250000Y-146535000D01*
X292250000Y-146535000D02*
X292250000Y-159535000D01*
X292250000Y-159535000D02*
X279250000Y-159535000D01*
X279250000Y-159535000D02*
X279250000Y-146535000D01*
X298300000Y-89385000D02*
X311300000Y-89385000D01*
X311300000Y-89385000D02*
X311300000Y-102385000D01*
X311300000Y-102385000D02*
X298300000Y-102385000D01*
X298300000Y-102385000D02*
X298300000Y-89385000D01*
X298300000Y-108435000D02*
X311300000Y-108435000D01*
X311300000Y-108435000D02*
X311300000Y-121435000D01*
X311300000Y-121435000D02*
X298300000Y-121435000D01*
X298300000Y-121435000D02*
X298300000Y-108435000D01*
X298300000Y-127485000D02*
X311300000Y-127485000D01*
X311300000Y-127485000D02*
X311300000Y-140485000D01*
X311300000Y-140485000D02*
X298300000Y-140485000D01*
X298300000Y-140485000D02*
X298300000Y-127485000D01*
X298300000Y-146535000D02*
X311300000Y-146535000D01*
X311300000Y-146535000D02*
X311300000Y-159535000D01*
X311300000Y-159535000D02*
X298300000Y-159535000D01*
X298300000Y-159535000D02*
X298300000Y-146535000D01*
X317350000Y-89385000D02*
X330350000Y-89385000D01*
X330350000Y-89385000D02*
X330350000Y-102385000D01*
X330350000Y-102385000D02*
X317350000Y-102385000D01*
X317350000Y-102385000D02*
X317350000Y-89385000D01*
X317350000Y-127485000D02*
X330350000Y-127485000D01*
X330350000Y-127485000D02*
X330350000Y-140485000D01*
X330350000Y-140485000D02*
X317350000Y-140485000D01*
X317350000Y-140485000D02*
X317350000Y-127485000D01*
X336400000Y-89385000D02*
X349400000Y-89385000D01*
X349400000Y-89385000D02*
X349400000Y-102385000D01*
X349400000Y-102385000D02*
X336400000Y-102385000D01*
X336400000Y-102385000D02*
X336400000Y-89385000D01*
X336400000Y-108435000D02*
X349400000Y-108435000D01*
X349400000Y-108435000D02*
X349400000Y-121435000D01*
X349400000Y-121435000D02*
X336400000Y-121435000D01*
X336400000Y-121435000D02*
X336400000Y-108435000D01*
X222100000Y-108435000D02*
X235100000Y-108435000D01*
X235100000Y-108435000D02*
X235100000Y-121435000D01*
X235100000Y-121435000D02*
X222100000Y-121435000D01*
X222100000Y-121435000D02*
X222100000Y-108435000D01*
X184000000Y-89385000D02*
X197000000Y-89385000D01*
X197000000Y-89385000D02*
X197000000Y-102385000D01*
X197000000Y-102385000D02*
X184000000Y-102385000D01*
X184000000Y-102385000D02*
X184000000Y-89385000D01*
X203050000Y-89385000D02*
X216050000Y-89385000D01*
X216050000Y-89385000D02*
X216050000Y-102385000D01*
X216050000Y-102385000D02*
X203050000Y-102385000D01*
X203050000Y-102385000D02*
X203050000Y-89385000D01*
X126850000Y-108435000D02*
X139850000Y-108435000D01*
X139850000Y-108435000D02*
X139850000Y-121435000D01*
X139850000Y-121435000D02*
X126850000Y-121435000D01*
X126850000Y-121435000D02*
X126850000Y-108435000D01*
X164950000Y-108435000D02*
X177950000Y-108435000D01*
X177950000Y-108435000D02*
X177950000Y-121435000D01*
X177950000Y-121435000D02*
X164950000Y-121435000D01*
X164950000Y-121435000D02*
X164950000Y-108435000D01*
X164950000Y-89385000D02*
X177950000Y-89385000D01*
X177950000Y-89385000D02*
X177950000Y-102385000D01*
X177950000Y-102385000D02*
X164950000Y-102385000D01*
X164950000Y-102385000D02*
X164950000Y-89385000D01*
X145900000Y-108435000D02*
X158900000Y-108435000D01*
X158900000Y-108435000D02*
X158900000Y-121435000D01*
X158900000Y-121435000D02*
X145900000Y-121435000D01*
X145900000Y-121435000D02*
X145900000Y-108435000D01*
X69700000Y-89385000D02*
X82700000Y-89385000D01*
X82700000Y-89385000D02*
X82700000Y-102385000D01*
X82700000Y-102385000D02*
X69700000Y-102385000D01*
X69700000Y-102385000D02*
X69700000Y-89385000D01*
X203050000Y-165585000D02*
X216050000Y-165585000D01*
X216050000Y-165585000D02*
X216050000Y-178585000D01*
X216050000Y-178585000D02*
X203050000Y-178585000D01*
X203050000Y-178585000D02*
X203050000Y-165585000D01*
X69700000Y-165585000D02*
X82700000Y-165585000D01*
X82700000Y-165585000D02*
X82700000Y-178585000D01*
X82700000Y-178585000D02*
X69700000Y-178585000D01*
X69700000Y-178585000D02*
X69700000Y-165585000D01*
X317350000Y-165585000D02*
X330350000Y-165585000D01*
X330350000Y-165585000D02*
X330350000Y-178585000D01*
X330350000Y-178585000D02*
X317350000Y-178585000D01*
X317350000Y-178585000D02*
X317350000Y-165585000D01*
X298300000Y-165585000D02*
X311300000Y-165585000D01*
X311300000Y-165585000D02*
X311300000Y-178585000D01*
X311300000Y-178585000D02*
X298300000Y-178585000D01*
X298300000Y-178585000D02*
X298300000Y-165585000D01*
X260200000Y-165585000D02*
X273200000Y-165585000D01*
X273200000Y-165585000D02*
X273200000Y-178585000D01*
X273200000Y-178585000D02*
X260200000Y-178585000D01*
X260200000Y-178585000D02*
X260200000Y-165585000D01*
X222100000Y-165585000D02*
X235100000Y-165585000D01*
X235100000Y-165585000D02*
X235100000Y-178585000D01*
X235100000Y-178585000D02*
X222100000Y-178585000D01*
X222100000Y-178585000D02*
X222100000Y-165585000D01*
X184000000Y-165585000D02*
X197000000Y-165585000D01*
X197000000Y-165585000D02*
X197000000Y-178585000D01*
X197000000Y-178585000D02*
X184000000Y-178585000D01*
X184000000Y-178585000D02*
X184000000Y-165585000D01*
X164950000Y-165585000D02*
X177950000Y-165585000D01*
X177950000Y-165585000D02*
X177950000Y-178585000D01*
X177950000Y-178585000D02*
X164950000Y-178585000D01*
X164950000Y-178585000D02*
X164950000Y-165585000D01*
X145900000Y-165585000D02*
X158900000Y-165585000D01*
X158900000Y-165585000D02*
X158900000Y-178585000D01*
X158900000Y-178585000D02*
X145900000Y-178585000D01*
X145900000Y-178585000D02*
X145900000Y-165585000D01*
X126850000Y-165585000D02*
X139850000Y-165585000D01*
X139850000Y-165585000D02*
X139850000Y-178585000D01*
X139850000Y-178585000D02*
X126850000Y-178585000D01*
X126850000Y-178585000D02*
X126850000Y-165585000D01*
X107800000Y-165585000D02*
X120800000Y-165585000D01*
X120800000Y-165585000D02*
X120800000Y-178585000D01*
X120800000Y-178585000D02*
X107800000Y-178585000D01*
X107800000Y-178585000D02*
X107800000Y-165585000D01*
X88750000Y-165585000D02*
X101750000Y-165585000D01*
X101750000Y-165585000D02*
X101750000Y-178585000D01*
X101750000Y-178585000D02*
X88750000Y-178585000D01*
X88750000Y-178585000D02*
X88750000Y-165585000D01*
X336400000Y-165585000D02*
X349400000Y-165585000D01*
X349400000Y-165585000D02*
X349400000Y-178585000D01*
X349400000Y-178585000D02*
X336400000Y-178585000D01*
X336400000Y-178585000D02*
X336400000Y-165585000D01*
X241150000Y-165585000D02*
X254150000Y-165585000D01*
X254150000Y-165585000D02*
X254150000Y-178585000D01*
X254150000Y-178585000D02*
X241150000Y-178585000D01*
X241150000Y-178585000D02*
X241150000Y-165585000D01*
X279250000Y-165585000D02*
X292250000Y-165585000D01*
X292250000Y-165585000D02*
X292250000Y-178585000D01*
X292250000Y-178585000D02*
X279250000Y-178585000D01*
X279250000Y-178585000D02*
X279250000Y-165585000D01*
D12*
X340185715Y-137767143D02*
X340400001Y-137838571D01*
X340757144Y-137838571D01*
X340900001Y-137767143D01*
X340971430Y-137695714D01*
X341042858Y-137552857D01*
X341042858Y-137410000D01*
X340971430Y-137267143D01*
X340900001Y-137195714D01*
X340757144Y-137124286D01*
X340471430Y-137052857D01*
X340328572Y-136981429D01*
X340257144Y-136910000D01*
X340185715Y-136767143D01*
X340185715Y-136624286D01*
X340257144Y-136481429D01*
X340328572Y-136410000D01*
X340471430Y-136338571D01*
X340828572Y-136338571D01*
X341042858Y-136410000D01*
X341542858Y-136338571D02*
X341900001Y-137838571D01*
X342185715Y-136767143D01*
X342471429Y-137838571D01*
X342828572Y-136338571D01*
X343257144Y-136338571D02*
X344257144Y-136338571D01*
X343614287Y-137838571D01*
X344685715Y-136338571D02*
X345614286Y-136338571D01*
X345114286Y-136910000D01*
X345328572Y-136910000D01*
X345471429Y-136981429D01*
X345542858Y-137052857D01*
X345614286Y-137195714D01*
X345614286Y-137552857D01*
X345542858Y-137695714D01*
X345471429Y-137767143D01*
X345328572Y-137838571D01*
X344900000Y-137838571D01*
X344757143Y-137767143D01*
X344685715Y-137695714D01*
X321135715Y-118717143D02*
X321350001Y-118788571D01*
X321707144Y-118788571D01*
X321850001Y-118717143D01*
X321921430Y-118645714D01*
X321992858Y-118502857D01*
X321992858Y-118360000D01*
X321921430Y-118217143D01*
X321850001Y-118145714D01*
X321707144Y-118074286D01*
X321421430Y-118002857D01*
X321278572Y-117931429D01*
X321207144Y-117860000D01*
X321135715Y-117717143D01*
X321135715Y-117574286D01*
X321207144Y-117431429D01*
X321278572Y-117360000D01*
X321421430Y-117288571D01*
X321778572Y-117288571D01*
X321992858Y-117360000D01*
X322492858Y-117288571D02*
X322850001Y-118788571D01*
X323135715Y-117717143D01*
X323421429Y-118788571D01*
X323778572Y-117288571D01*
X324992858Y-117288571D02*
X324707144Y-117288571D01*
X324564287Y-117360000D01*
X324492858Y-117431429D01*
X324350001Y-117645714D01*
X324278572Y-117931429D01*
X324278572Y-118502857D01*
X324350001Y-118645714D01*
X324421429Y-118717143D01*
X324564287Y-118788571D01*
X324850001Y-118788571D01*
X324992858Y-118717143D01*
X325064287Y-118645714D01*
X325135715Y-118502857D01*
X325135715Y-118145714D01*
X325064287Y-118002857D01*
X324992858Y-117931429D01*
X324850001Y-117860000D01*
X324564287Y-117860000D01*
X324421429Y-117931429D01*
X324350001Y-118002857D01*
X324278572Y-118145714D01*
X325635715Y-117288571D02*
X326635715Y-117288571D01*
X325992858Y-118788571D01*
X225885715Y-137767143D02*
X226100001Y-137838571D01*
X226457144Y-137838571D01*
X226600001Y-137767143D01*
X226671430Y-137695714D01*
X226742858Y-137552857D01*
X226742858Y-137410000D01*
X226671430Y-137267143D01*
X226600001Y-137195714D01*
X226457144Y-137124286D01*
X226171430Y-137052857D01*
X226028572Y-136981429D01*
X225957144Y-136910000D01*
X225885715Y-136767143D01*
X225885715Y-136624286D01*
X225957144Y-136481429D01*
X226028572Y-136410000D01*
X226171430Y-136338571D01*
X226528572Y-136338571D01*
X226742858Y-136410000D01*
X227242858Y-136338571D02*
X227600001Y-137838571D01*
X227885715Y-136767143D01*
X228171429Y-137838571D01*
X228528572Y-136338571D01*
X229742858Y-136838571D02*
X229742858Y-137838571D01*
X229385715Y-136267143D02*
X229028572Y-137338571D01*
X229957144Y-137338571D01*
X230385715Y-136338571D02*
X231314286Y-136338571D01*
X230814286Y-136910000D01*
X231028572Y-136910000D01*
X231171429Y-136981429D01*
X231242858Y-137052857D01*
X231314286Y-137195714D01*
X231314286Y-137552857D01*
X231242858Y-137695714D01*
X231171429Y-137767143D01*
X231028572Y-137838571D01*
X230600000Y-137838571D01*
X230457143Y-137767143D01*
X230385715Y-137695714D01*
X225885715Y-99667143D02*
X226100001Y-99738571D01*
X226457144Y-99738571D01*
X226600001Y-99667143D01*
X226671430Y-99595714D01*
X226742858Y-99452857D01*
X226742858Y-99310000D01*
X226671430Y-99167143D01*
X226600001Y-99095714D01*
X226457144Y-99024286D01*
X226171430Y-98952857D01*
X226028572Y-98881429D01*
X225957144Y-98810000D01*
X225885715Y-98667143D01*
X225885715Y-98524286D01*
X225957144Y-98381429D01*
X226028572Y-98310000D01*
X226171430Y-98238571D01*
X226528572Y-98238571D01*
X226742858Y-98310000D01*
X227242858Y-98238571D02*
X227600001Y-99738571D01*
X227885715Y-98667143D01*
X228171429Y-99738571D01*
X228528572Y-98238571D01*
X229742858Y-98738571D02*
X229742858Y-99738571D01*
X229385715Y-98167143D02*
X229028572Y-99238571D01*
X229957144Y-99238571D01*
X231314286Y-99738571D02*
X230457143Y-99738571D01*
X230885715Y-99738571D02*
X230885715Y-98238571D01*
X230742858Y-98452857D01*
X230600000Y-98595714D01*
X230457143Y-98667143D01*
X93250000Y-156817143D02*
X93464286Y-156888571D01*
X93821429Y-156888571D01*
X93964286Y-156817143D01*
X94035715Y-156745714D01*
X94107143Y-156602857D01*
X94107143Y-156460000D01*
X94035715Y-156317143D01*
X93964286Y-156245714D01*
X93821429Y-156174286D01*
X93535715Y-156102857D01*
X93392857Y-156031429D01*
X93321429Y-155960000D01*
X93250000Y-155817143D01*
X93250000Y-155674286D01*
X93321429Y-155531429D01*
X93392857Y-155460000D01*
X93535715Y-155388571D01*
X93892857Y-155388571D01*
X94107143Y-155460000D01*
X94607143Y-155388571D02*
X94964286Y-156888571D01*
X95250000Y-155817143D01*
X95535714Y-156888571D01*
X95892857Y-155388571D01*
X96535714Y-156888571D02*
X96821429Y-156888571D01*
X96964286Y-156817143D01*
X97035714Y-156745714D01*
X97178572Y-156531429D01*
X97250000Y-156245714D01*
X97250000Y-155674286D01*
X97178572Y-155531429D01*
X97107143Y-155460000D01*
X96964286Y-155388571D01*
X96678572Y-155388571D01*
X96535714Y-155460000D01*
X96464286Y-155531429D01*
X96392857Y-155674286D01*
X96392857Y-156031429D01*
X96464286Y-156174286D01*
X96535714Y-156245714D01*
X96678572Y-156317143D01*
X96964286Y-156317143D01*
X97107143Y-156245714D01*
X97178572Y-156174286D01*
X97250000Y-156031429D01*
X168735715Y-156817143D02*
X168950001Y-156888571D01*
X169307144Y-156888571D01*
X169450001Y-156817143D01*
X169521430Y-156745714D01*
X169592858Y-156602857D01*
X169592858Y-156460000D01*
X169521430Y-156317143D01*
X169450001Y-156245714D01*
X169307144Y-156174286D01*
X169021430Y-156102857D01*
X168878572Y-156031429D01*
X168807144Y-155960000D01*
X168735715Y-155817143D01*
X168735715Y-155674286D01*
X168807144Y-155531429D01*
X168878572Y-155460000D01*
X169021430Y-155388571D01*
X169378572Y-155388571D01*
X169592858Y-155460000D01*
X170092858Y-155388571D02*
X170450001Y-156888571D01*
X170735715Y-155817143D01*
X171021429Y-156888571D01*
X171378572Y-155388571D01*
X171878572Y-155531429D02*
X171950001Y-155460000D01*
X172092858Y-155388571D01*
X172450001Y-155388571D01*
X172592858Y-155460000D01*
X172664287Y-155531429D01*
X172735715Y-155674286D01*
X172735715Y-155817143D01*
X172664287Y-156031429D01*
X171807144Y-156888571D01*
X172735715Y-156888571D01*
X173450000Y-156888571D02*
X173735715Y-156888571D01*
X173878572Y-156817143D01*
X173950000Y-156745714D01*
X174092858Y-156531429D01*
X174164286Y-156245714D01*
X174164286Y-155674286D01*
X174092858Y-155531429D01*
X174021429Y-155460000D01*
X173878572Y-155388571D01*
X173592858Y-155388571D01*
X173450000Y-155460000D01*
X173378572Y-155531429D01*
X173307143Y-155674286D01*
X173307143Y-156031429D01*
X173378572Y-156174286D01*
X173450000Y-156245714D01*
X173592858Y-156317143D01*
X173878572Y-156317143D01*
X174021429Y-156245714D01*
X174092858Y-156174286D01*
X174164286Y-156031429D01*
X321135715Y-156817143D02*
X321350001Y-156888571D01*
X321707144Y-156888571D01*
X321850001Y-156817143D01*
X321921430Y-156745714D01*
X321992858Y-156602857D01*
X321992858Y-156460000D01*
X321921430Y-156317143D01*
X321850001Y-156245714D01*
X321707144Y-156174286D01*
X321421430Y-156102857D01*
X321278572Y-156031429D01*
X321207144Y-155960000D01*
X321135715Y-155817143D01*
X321135715Y-155674286D01*
X321207144Y-155531429D01*
X321278572Y-155460000D01*
X321421430Y-155388571D01*
X321778572Y-155388571D01*
X321992858Y-155460000D01*
X322492858Y-155388571D02*
X322850001Y-156888571D01*
X323135715Y-155817143D01*
X323421429Y-156888571D01*
X323778572Y-155388571D01*
X324992858Y-155388571D02*
X324707144Y-155388571D01*
X324564287Y-155460000D01*
X324492858Y-155531429D01*
X324350001Y-155745714D01*
X324278572Y-156031429D01*
X324278572Y-156602857D01*
X324350001Y-156745714D01*
X324421429Y-156817143D01*
X324564287Y-156888571D01*
X324850001Y-156888571D01*
X324992858Y-156817143D01*
X325064287Y-156745714D01*
X325135715Y-156602857D01*
X325135715Y-156245714D01*
X325064287Y-156102857D01*
X324992858Y-156031429D01*
X324850001Y-155960000D01*
X324564287Y-155960000D01*
X324421429Y-156031429D01*
X324350001Y-156102857D01*
X324278572Y-156245714D01*
X325850000Y-156888571D02*
X326135715Y-156888571D01*
X326278572Y-156817143D01*
X326350000Y-156745714D01*
X326492858Y-156531429D01*
X326564286Y-156245714D01*
X326564286Y-155674286D01*
X326492858Y-155531429D01*
X326421429Y-155460000D01*
X326278572Y-155388571D01*
X325992858Y-155388571D01*
X325850000Y-155460000D01*
X325778572Y-155531429D01*
X325707143Y-155674286D01*
X325707143Y-156031429D01*
X325778572Y-156174286D01*
X325850000Y-156245714D01*
X325992858Y-156317143D01*
X326278572Y-156317143D01*
X326421429Y-156245714D01*
X326492858Y-156174286D01*
X326564286Y-156031429D01*
X340185715Y-156817143D02*
X340400001Y-156888571D01*
X340757144Y-156888571D01*
X340900001Y-156817143D01*
X340971430Y-156745714D01*
X341042858Y-156602857D01*
X341042858Y-156460000D01*
X340971430Y-156317143D01*
X340900001Y-156245714D01*
X340757144Y-156174286D01*
X340471430Y-156102857D01*
X340328572Y-156031429D01*
X340257144Y-155960000D01*
X340185715Y-155817143D01*
X340185715Y-155674286D01*
X340257144Y-155531429D01*
X340328572Y-155460000D01*
X340471430Y-155388571D01*
X340828572Y-155388571D01*
X341042858Y-155460000D01*
X341542858Y-155388571D02*
X341900001Y-156888571D01*
X342185715Y-155817143D01*
X342471429Y-156888571D01*
X342828572Y-155388571D01*
X343257144Y-155388571D02*
X344257144Y-155388571D01*
X343614287Y-156888571D01*
X345471429Y-155888571D02*
X345471429Y-156888571D01*
X345114286Y-155317143D02*
X344757143Y-156388571D01*
X345685715Y-156388571D01*
X74200000Y-118717143D02*
X74414286Y-118788571D01*
X74771429Y-118788571D01*
X74914286Y-118717143D01*
X74985715Y-118645714D01*
X75057143Y-118502857D01*
X75057143Y-118360000D01*
X74985715Y-118217143D01*
X74914286Y-118145714D01*
X74771429Y-118074286D01*
X74485715Y-118002857D01*
X74342857Y-117931429D01*
X74271429Y-117860000D01*
X74200000Y-117717143D01*
X74200000Y-117574286D01*
X74271429Y-117431429D01*
X74342857Y-117360000D01*
X74485715Y-117288571D01*
X74842857Y-117288571D01*
X75057143Y-117360000D01*
X75557143Y-117288571D02*
X75914286Y-118788571D01*
X76200000Y-117717143D01*
X76485714Y-118788571D01*
X76842857Y-117288571D01*
X77342857Y-117431429D02*
X77414286Y-117360000D01*
X77557143Y-117288571D01*
X77914286Y-117288571D01*
X78057143Y-117360000D01*
X78128572Y-117431429D01*
X78200000Y-117574286D01*
X78200000Y-117717143D01*
X78128572Y-117931429D01*
X77271429Y-118788571D01*
X78200000Y-118788571D01*
X74200000Y-137767143D02*
X74414286Y-137838571D01*
X74771429Y-137838571D01*
X74914286Y-137767143D01*
X74985715Y-137695714D01*
X75057143Y-137552857D01*
X75057143Y-137410000D01*
X74985715Y-137267143D01*
X74914286Y-137195714D01*
X74771429Y-137124286D01*
X74485715Y-137052857D01*
X74342857Y-136981429D01*
X74271429Y-136910000D01*
X74200000Y-136767143D01*
X74200000Y-136624286D01*
X74271429Y-136481429D01*
X74342857Y-136410000D01*
X74485715Y-136338571D01*
X74842857Y-136338571D01*
X75057143Y-136410000D01*
X75557143Y-136338571D02*
X75914286Y-137838571D01*
X76200000Y-136767143D01*
X76485714Y-137838571D01*
X76842857Y-136338571D01*
X77271429Y-136338571D02*
X78200000Y-136338571D01*
X77700000Y-136910000D01*
X77914286Y-136910000D01*
X78057143Y-136981429D01*
X78128572Y-137052857D01*
X78200000Y-137195714D01*
X78200000Y-137552857D01*
X78128572Y-137695714D01*
X78057143Y-137767143D01*
X77914286Y-137838571D01*
X77485714Y-137838571D01*
X77342857Y-137767143D01*
X77271429Y-137695714D01*
X74200000Y-156817143D02*
X74414286Y-156888571D01*
X74771429Y-156888571D01*
X74914286Y-156817143D01*
X74985715Y-156745714D01*
X75057143Y-156602857D01*
X75057143Y-156460000D01*
X74985715Y-156317143D01*
X74914286Y-156245714D01*
X74771429Y-156174286D01*
X74485715Y-156102857D01*
X74342857Y-156031429D01*
X74271429Y-155960000D01*
X74200000Y-155817143D01*
X74200000Y-155674286D01*
X74271429Y-155531429D01*
X74342857Y-155460000D01*
X74485715Y-155388571D01*
X74842857Y-155388571D01*
X75057143Y-155460000D01*
X75557143Y-155388571D02*
X75914286Y-156888571D01*
X76200000Y-155817143D01*
X76485714Y-156888571D01*
X76842857Y-155388571D01*
X78057143Y-155888571D02*
X78057143Y-156888571D01*
X77700000Y-155317143D02*
X77342857Y-156388571D01*
X78271429Y-156388571D01*
X93250000Y-99667143D02*
X93464286Y-99738571D01*
X93821429Y-99738571D01*
X93964286Y-99667143D01*
X94035715Y-99595714D01*
X94107143Y-99452857D01*
X94107143Y-99310000D01*
X94035715Y-99167143D01*
X93964286Y-99095714D01*
X93821429Y-99024286D01*
X93535715Y-98952857D01*
X93392857Y-98881429D01*
X93321429Y-98810000D01*
X93250000Y-98667143D01*
X93250000Y-98524286D01*
X93321429Y-98381429D01*
X93392857Y-98310000D01*
X93535715Y-98238571D01*
X93892857Y-98238571D01*
X94107143Y-98310000D01*
X94607143Y-98238571D02*
X94964286Y-99738571D01*
X95250000Y-98667143D01*
X95535714Y-99738571D01*
X95892857Y-98238571D01*
X97107143Y-98238571D02*
X96821429Y-98238571D01*
X96678572Y-98310000D01*
X96607143Y-98381429D01*
X96464286Y-98595714D01*
X96392857Y-98881429D01*
X96392857Y-99452857D01*
X96464286Y-99595714D01*
X96535714Y-99667143D01*
X96678572Y-99738571D01*
X96964286Y-99738571D01*
X97107143Y-99667143D01*
X97178572Y-99595714D01*
X97250000Y-99452857D01*
X97250000Y-99095714D01*
X97178572Y-98952857D01*
X97107143Y-98881429D01*
X96964286Y-98810000D01*
X96678572Y-98810000D01*
X96535714Y-98881429D01*
X96464286Y-98952857D01*
X96392857Y-99095714D01*
X93250000Y-118717143D02*
X93464286Y-118788571D01*
X93821429Y-118788571D01*
X93964286Y-118717143D01*
X94035715Y-118645714D01*
X94107143Y-118502857D01*
X94107143Y-118360000D01*
X94035715Y-118217143D01*
X93964286Y-118145714D01*
X93821429Y-118074286D01*
X93535715Y-118002857D01*
X93392857Y-117931429D01*
X93321429Y-117860000D01*
X93250000Y-117717143D01*
X93250000Y-117574286D01*
X93321429Y-117431429D01*
X93392857Y-117360000D01*
X93535715Y-117288571D01*
X93892857Y-117288571D01*
X94107143Y-117360000D01*
X94607143Y-117288571D02*
X94964286Y-118788571D01*
X95250000Y-117717143D01*
X95535714Y-118788571D01*
X95892857Y-117288571D01*
X96321429Y-117288571D02*
X97321429Y-117288571D01*
X96678572Y-118788571D01*
X93250000Y-137767143D02*
X93464286Y-137838571D01*
X93821429Y-137838571D01*
X93964286Y-137767143D01*
X94035715Y-137695714D01*
X94107143Y-137552857D01*
X94107143Y-137410000D01*
X94035715Y-137267143D01*
X93964286Y-137195714D01*
X93821429Y-137124286D01*
X93535715Y-137052857D01*
X93392857Y-136981429D01*
X93321429Y-136910000D01*
X93250000Y-136767143D01*
X93250000Y-136624286D01*
X93321429Y-136481429D01*
X93392857Y-136410000D01*
X93535715Y-136338571D01*
X93892857Y-136338571D01*
X94107143Y-136410000D01*
X94607143Y-136338571D02*
X94964286Y-137838571D01*
X95250000Y-136767143D01*
X95535714Y-137838571D01*
X95892857Y-136338571D01*
X96678572Y-136981429D02*
X96535714Y-136910000D01*
X96464286Y-136838571D01*
X96392857Y-136695714D01*
X96392857Y-136624286D01*
X96464286Y-136481429D01*
X96535714Y-136410000D01*
X96678572Y-136338571D01*
X96964286Y-136338571D01*
X97107143Y-136410000D01*
X97178572Y-136481429D01*
X97250000Y-136624286D01*
X97250000Y-136695714D01*
X97178572Y-136838571D01*
X97107143Y-136910000D01*
X96964286Y-136981429D01*
X96678572Y-136981429D01*
X96535714Y-137052857D01*
X96464286Y-137124286D01*
X96392857Y-137267143D01*
X96392857Y-137552857D01*
X96464286Y-137695714D01*
X96535714Y-137767143D01*
X96678572Y-137838571D01*
X96964286Y-137838571D01*
X97107143Y-137767143D01*
X97178572Y-137695714D01*
X97250000Y-137552857D01*
X97250000Y-137267143D01*
X97178572Y-137124286D01*
X97107143Y-137052857D01*
X96964286Y-136981429D01*
X111585715Y-99667143D02*
X111800001Y-99738571D01*
X112157144Y-99738571D01*
X112300001Y-99667143D01*
X112371430Y-99595714D01*
X112442858Y-99452857D01*
X112442858Y-99310000D01*
X112371430Y-99167143D01*
X112300001Y-99095714D01*
X112157144Y-99024286D01*
X111871430Y-98952857D01*
X111728572Y-98881429D01*
X111657144Y-98810000D01*
X111585715Y-98667143D01*
X111585715Y-98524286D01*
X111657144Y-98381429D01*
X111728572Y-98310000D01*
X111871430Y-98238571D01*
X112228572Y-98238571D01*
X112442858Y-98310000D01*
X112942858Y-98238571D02*
X113300001Y-99738571D01*
X113585715Y-98667143D01*
X113871429Y-99738571D01*
X114228572Y-98238571D01*
X115585715Y-99738571D02*
X114728572Y-99738571D01*
X115157144Y-99738571D02*
X115157144Y-98238571D01*
X115014287Y-98452857D01*
X114871429Y-98595714D01*
X114728572Y-98667143D01*
X117014286Y-99738571D02*
X116157143Y-99738571D01*
X116585715Y-99738571D02*
X116585715Y-98238571D01*
X116442858Y-98452857D01*
X116300000Y-98595714D01*
X116157143Y-98667143D01*
X111585715Y-118717143D02*
X111800001Y-118788571D01*
X112157144Y-118788571D01*
X112300001Y-118717143D01*
X112371430Y-118645714D01*
X112442858Y-118502857D01*
X112442858Y-118360000D01*
X112371430Y-118217143D01*
X112300001Y-118145714D01*
X112157144Y-118074286D01*
X111871430Y-118002857D01*
X111728572Y-117931429D01*
X111657144Y-117860000D01*
X111585715Y-117717143D01*
X111585715Y-117574286D01*
X111657144Y-117431429D01*
X111728572Y-117360000D01*
X111871430Y-117288571D01*
X112228572Y-117288571D01*
X112442858Y-117360000D01*
X112942858Y-117288571D02*
X113300001Y-118788571D01*
X113585715Y-117717143D01*
X113871429Y-118788571D01*
X114228572Y-117288571D01*
X115585715Y-118788571D02*
X114728572Y-118788571D01*
X115157144Y-118788571D02*
X115157144Y-117288571D01*
X115014287Y-117502857D01*
X114871429Y-117645714D01*
X114728572Y-117717143D01*
X116157143Y-117431429D02*
X116228572Y-117360000D01*
X116371429Y-117288571D01*
X116728572Y-117288571D01*
X116871429Y-117360000D01*
X116942858Y-117431429D01*
X117014286Y-117574286D01*
X117014286Y-117717143D01*
X116942858Y-117931429D01*
X116085715Y-118788571D01*
X117014286Y-118788571D01*
X111585715Y-137767143D02*
X111800001Y-137838571D01*
X112157144Y-137838571D01*
X112300001Y-137767143D01*
X112371430Y-137695714D01*
X112442858Y-137552857D01*
X112442858Y-137410000D01*
X112371430Y-137267143D01*
X112300001Y-137195714D01*
X112157144Y-137124286D01*
X111871430Y-137052857D01*
X111728572Y-136981429D01*
X111657144Y-136910000D01*
X111585715Y-136767143D01*
X111585715Y-136624286D01*
X111657144Y-136481429D01*
X111728572Y-136410000D01*
X111871430Y-136338571D01*
X112228572Y-136338571D01*
X112442858Y-136410000D01*
X112942858Y-136338571D02*
X113300001Y-137838571D01*
X113585715Y-136767143D01*
X113871429Y-137838571D01*
X114228572Y-136338571D01*
X115585715Y-137838571D02*
X114728572Y-137838571D01*
X115157144Y-137838571D02*
X115157144Y-136338571D01*
X115014287Y-136552857D01*
X114871429Y-136695714D01*
X114728572Y-136767143D01*
X116085715Y-136338571D02*
X117014286Y-136338571D01*
X116514286Y-136910000D01*
X116728572Y-136910000D01*
X116871429Y-136981429D01*
X116942858Y-137052857D01*
X117014286Y-137195714D01*
X117014286Y-137552857D01*
X116942858Y-137695714D01*
X116871429Y-137767143D01*
X116728572Y-137838571D01*
X116300000Y-137838571D01*
X116157143Y-137767143D01*
X116085715Y-137695714D01*
X111585715Y-156817143D02*
X111800001Y-156888571D01*
X112157144Y-156888571D01*
X112300001Y-156817143D01*
X112371430Y-156745714D01*
X112442858Y-156602857D01*
X112442858Y-156460000D01*
X112371430Y-156317143D01*
X112300001Y-156245714D01*
X112157144Y-156174286D01*
X111871430Y-156102857D01*
X111728572Y-156031429D01*
X111657144Y-155960000D01*
X111585715Y-155817143D01*
X111585715Y-155674286D01*
X111657144Y-155531429D01*
X111728572Y-155460000D01*
X111871430Y-155388571D01*
X112228572Y-155388571D01*
X112442858Y-155460000D01*
X112942858Y-155388571D02*
X113300001Y-156888571D01*
X113585715Y-155817143D01*
X113871429Y-156888571D01*
X114228572Y-155388571D01*
X115585715Y-156888571D02*
X114728572Y-156888571D01*
X115157144Y-156888571D02*
X115157144Y-155388571D01*
X115014287Y-155602857D01*
X114871429Y-155745714D01*
X114728572Y-155817143D01*
X116871429Y-155888571D02*
X116871429Y-156888571D01*
X116514286Y-155317143D02*
X116157143Y-156388571D01*
X117085715Y-156388571D01*
X130635715Y-99667143D02*
X130850001Y-99738571D01*
X131207144Y-99738571D01*
X131350001Y-99667143D01*
X131421430Y-99595714D01*
X131492858Y-99452857D01*
X131492858Y-99310000D01*
X131421430Y-99167143D01*
X131350001Y-99095714D01*
X131207144Y-99024286D01*
X130921430Y-98952857D01*
X130778572Y-98881429D01*
X130707144Y-98810000D01*
X130635715Y-98667143D01*
X130635715Y-98524286D01*
X130707144Y-98381429D01*
X130778572Y-98310000D01*
X130921430Y-98238571D01*
X131278572Y-98238571D01*
X131492858Y-98310000D01*
X131992858Y-98238571D02*
X132350001Y-99738571D01*
X132635715Y-98667143D01*
X132921429Y-99738571D01*
X133278572Y-98238571D01*
X134635715Y-99738571D02*
X133778572Y-99738571D01*
X134207144Y-99738571D02*
X134207144Y-98238571D01*
X134064287Y-98452857D01*
X133921429Y-98595714D01*
X133778572Y-98667143D01*
X135921429Y-98238571D02*
X135635715Y-98238571D01*
X135492858Y-98310000D01*
X135421429Y-98381429D01*
X135278572Y-98595714D01*
X135207143Y-98881429D01*
X135207143Y-99452857D01*
X135278572Y-99595714D01*
X135350000Y-99667143D01*
X135492858Y-99738571D01*
X135778572Y-99738571D01*
X135921429Y-99667143D01*
X135992858Y-99595714D01*
X136064286Y-99452857D01*
X136064286Y-99095714D01*
X135992858Y-98952857D01*
X135921429Y-98881429D01*
X135778572Y-98810000D01*
X135492858Y-98810000D01*
X135350000Y-98881429D01*
X135278572Y-98952857D01*
X135207143Y-99095714D01*
X130635715Y-137767143D02*
X130850001Y-137838571D01*
X131207144Y-137838571D01*
X131350001Y-137767143D01*
X131421430Y-137695714D01*
X131492858Y-137552857D01*
X131492858Y-137410000D01*
X131421430Y-137267143D01*
X131350001Y-137195714D01*
X131207144Y-137124286D01*
X130921430Y-137052857D01*
X130778572Y-136981429D01*
X130707144Y-136910000D01*
X130635715Y-136767143D01*
X130635715Y-136624286D01*
X130707144Y-136481429D01*
X130778572Y-136410000D01*
X130921430Y-136338571D01*
X131278572Y-136338571D01*
X131492858Y-136410000D01*
X131992858Y-136338571D02*
X132350001Y-137838571D01*
X132635715Y-136767143D01*
X132921429Y-137838571D01*
X133278572Y-136338571D01*
X134635715Y-137838571D02*
X133778572Y-137838571D01*
X134207144Y-137838571D02*
X134207144Y-136338571D01*
X134064287Y-136552857D01*
X133921429Y-136695714D01*
X133778572Y-136767143D01*
X135492858Y-136981429D02*
X135350000Y-136910000D01*
X135278572Y-136838571D01*
X135207143Y-136695714D01*
X135207143Y-136624286D01*
X135278572Y-136481429D01*
X135350000Y-136410000D01*
X135492858Y-136338571D01*
X135778572Y-136338571D01*
X135921429Y-136410000D01*
X135992858Y-136481429D01*
X136064286Y-136624286D01*
X136064286Y-136695714D01*
X135992858Y-136838571D01*
X135921429Y-136910000D01*
X135778572Y-136981429D01*
X135492858Y-136981429D01*
X135350000Y-137052857D01*
X135278572Y-137124286D01*
X135207143Y-137267143D01*
X135207143Y-137552857D01*
X135278572Y-137695714D01*
X135350000Y-137767143D01*
X135492858Y-137838571D01*
X135778572Y-137838571D01*
X135921429Y-137767143D01*
X135992858Y-137695714D01*
X136064286Y-137552857D01*
X136064286Y-137267143D01*
X135992858Y-137124286D01*
X135921429Y-137052857D01*
X135778572Y-136981429D01*
X130635715Y-156817143D02*
X130850001Y-156888571D01*
X131207144Y-156888571D01*
X131350001Y-156817143D01*
X131421430Y-156745714D01*
X131492858Y-156602857D01*
X131492858Y-156460000D01*
X131421430Y-156317143D01*
X131350001Y-156245714D01*
X131207144Y-156174286D01*
X130921430Y-156102857D01*
X130778572Y-156031429D01*
X130707144Y-155960000D01*
X130635715Y-155817143D01*
X130635715Y-155674286D01*
X130707144Y-155531429D01*
X130778572Y-155460000D01*
X130921430Y-155388571D01*
X131278572Y-155388571D01*
X131492858Y-155460000D01*
X131992858Y-155388571D02*
X132350001Y-156888571D01*
X132635715Y-155817143D01*
X132921429Y-156888571D01*
X133278572Y-155388571D01*
X134635715Y-156888571D02*
X133778572Y-156888571D01*
X134207144Y-156888571D02*
X134207144Y-155388571D01*
X134064287Y-155602857D01*
X133921429Y-155745714D01*
X133778572Y-155817143D01*
X135350000Y-156888571D02*
X135635715Y-156888571D01*
X135778572Y-156817143D01*
X135850000Y-156745714D01*
X135992858Y-156531429D01*
X136064286Y-156245714D01*
X136064286Y-155674286D01*
X135992858Y-155531429D01*
X135921429Y-155460000D01*
X135778572Y-155388571D01*
X135492858Y-155388571D01*
X135350000Y-155460000D01*
X135278572Y-155531429D01*
X135207143Y-155674286D01*
X135207143Y-156031429D01*
X135278572Y-156174286D01*
X135350000Y-156245714D01*
X135492858Y-156317143D01*
X135778572Y-156317143D01*
X135921429Y-156245714D01*
X135992858Y-156174286D01*
X136064286Y-156031429D01*
X149685715Y-99667143D02*
X149900001Y-99738571D01*
X150257144Y-99738571D01*
X150400001Y-99667143D01*
X150471430Y-99595714D01*
X150542858Y-99452857D01*
X150542858Y-99310000D01*
X150471430Y-99167143D01*
X150400001Y-99095714D01*
X150257144Y-99024286D01*
X149971430Y-98952857D01*
X149828572Y-98881429D01*
X149757144Y-98810000D01*
X149685715Y-98667143D01*
X149685715Y-98524286D01*
X149757144Y-98381429D01*
X149828572Y-98310000D01*
X149971430Y-98238571D01*
X150328572Y-98238571D01*
X150542858Y-98310000D01*
X151042858Y-98238571D02*
X151400001Y-99738571D01*
X151685715Y-98667143D01*
X151971429Y-99738571D01*
X152328572Y-98238571D01*
X152828572Y-98381429D02*
X152900001Y-98310000D01*
X153042858Y-98238571D01*
X153400001Y-98238571D01*
X153542858Y-98310000D01*
X153614287Y-98381429D01*
X153685715Y-98524286D01*
X153685715Y-98667143D01*
X153614287Y-98881429D01*
X152757144Y-99738571D01*
X153685715Y-99738571D01*
X155114286Y-99738571D02*
X154257143Y-99738571D01*
X154685715Y-99738571D02*
X154685715Y-98238571D01*
X154542858Y-98452857D01*
X154400000Y-98595714D01*
X154257143Y-98667143D01*
X149685715Y-137767143D02*
X149900001Y-137838571D01*
X150257144Y-137838571D01*
X150400001Y-137767143D01*
X150471430Y-137695714D01*
X150542858Y-137552857D01*
X150542858Y-137410000D01*
X150471430Y-137267143D01*
X150400001Y-137195714D01*
X150257144Y-137124286D01*
X149971430Y-137052857D01*
X149828572Y-136981429D01*
X149757144Y-136910000D01*
X149685715Y-136767143D01*
X149685715Y-136624286D01*
X149757144Y-136481429D01*
X149828572Y-136410000D01*
X149971430Y-136338571D01*
X150328572Y-136338571D01*
X150542858Y-136410000D01*
X151042858Y-136338571D02*
X151400001Y-137838571D01*
X151685715Y-136767143D01*
X151971429Y-137838571D01*
X152328572Y-136338571D01*
X152828572Y-136481429D02*
X152900001Y-136410000D01*
X153042858Y-136338571D01*
X153400001Y-136338571D01*
X153542858Y-136410000D01*
X153614287Y-136481429D01*
X153685715Y-136624286D01*
X153685715Y-136767143D01*
X153614287Y-136981429D01*
X152757144Y-137838571D01*
X153685715Y-137838571D01*
X154185715Y-136338571D02*
X155114286Y-136338571D01*
X154614286Y-136910000D01*
X154828572Y-136910000D01*
X154971429Y-136981429D01*
X155042858Y-137052857D01*
X155114286Y-137195714D01*
X155114286Y-137552857D01*
X155042858Y-137695714D01*
X154971429Y-137767143D01*
X154828572Y-137838571D01*
X154400000Y-137838571D01*
X154257143Y-137767143D01*
X154185715Y-137695714D01*
X149685715Y-156817143D02*
X149900001Y-156888571D01*
X150257144Y-156888571D01*
X150400001Y-156817143D01*
X150471430Y-156745714D01*
X150542858Y-156602857D01*
X150542858Y-156460000D01*
X150471430Y-156317143D01*
X150400001Y-156245714D01*
X150257144Y-156174286D01*
X149971430Y-156102857D01*
X149828572Y-156031429D01*
X149757144Y-155960000D01*
X149685715Y-155817143D01*
X149685715Y-155674286D01*
X149757144Y-155531429D01*
X149828572Y-155460000D01*
X149971430Y-155388571D01*
X150328572Y-155388571D01*
X150542858Y-155460000D01*
X151042858Y-155388571D02*
X151400001Y-156888571D01*
X151685715Y-155817143D01*
X151971429Y-156888571D01*
X152328572Y-155388571D01*
X152828572Y-155531429D02*
X152900001Y-155460000D01*
X153042858Y-155388571D01*
X153400001Y-155388571D01*
X153542858Y-155460000D01*
X153614287Y-155531429D01*
X153685715Y-155674286D01*
X153685715Y-155817143D01*
X153614287Y-156031429D01*
X152757144Y-156888571D01*
X153685715Y-156888571D01*
X154971429Y-155888571D02*
X154971429Y-156888571D01*
X154614286Y-155317143D02*
X154257143Y-156388571D01*
X155185715Y-156388571D01*
X168735715Y-137767143D02*
X168950001Y-137838571D01*
X169307144Y-137838571D01*
X169450001Y-137767143D01*
X169521430Y-137695714D01*
X169592858Y-137552857D01*
X169592858Y-137410000D01*
X169521430Y-137267143D01*
X169450001Y-137195714D01*
X169307144Y-137124286D01*
X169021430Y-137052857D01*
X168878572Y-136981429D01*
X168807144Y-136910000D01*
X168735715Y-136767143D01*
X168735715Y-136624286D01*
X168807144Y-136481429D01*
X168878572Y-136410000D01*
X169021430Y-136338571D01*
X169378572Y-136338571D01*
X169592858Y-136410000D01*
X170092858Y-136338571D02*
X170450001Y-137838571D01*
X170735715Y-136767143D01*
X171021429Y-137838571D01*
X171378572Y-136338571D01*
X171878572Y-136481429D02*
X171950001Y-136410000D01*
X172092858Y-136338571D01*
X172450001Y-136338571D01*
X172592858Y-136410000D01*
X172664287Y-136481429D01*
X172735715Y-136624286D01*
X172735715Y-136767143D01*
X172664287Y-136981429D01*
X171807144Y-137838571D01*
X172735715Y-137838571D01*
X173592858Y-136981429D02*
X173450000Y-136910000D01*
X173378572Y-136838571D01*
X173307143Y-136695714D01*
X173307143Y-136624286D01*
X173378572Y-136481429D01*
X173450000Y-136410000D01*
X173592858Y-136338571D01*
X173878572Y-136338571D01*
X174021429Y-136410000D01*
X174092858Y-136481429D01*
X174164286Y-136624286D01*
X174164286Y-136695714D01*
X174092858Y-136838571D01*
X174021429Y-136910000D01*
X173878572Y-136981429D01*
X173592858Y-136981429D01*
X173450000Y-137052857D01*
X173378572Y-137124286D01*
X173307143Y-137267143D01*
X173307143Y-137552857D01*
X173378572Y-137695714D01*
X173450000Y-137767143D01*
X173592858Y-137838571D01*
X173878572Y-137838571D01*
X174021429Y-137767143D01*
X174092858Y-137695714D01*
X174164286Y-137552857D01*
X174164286Y-137267143D01*
X174092858Y-137124286D01*
X174021429Y-137052857D01*
X173878572Y-136981429D01*
X187785715Y-118717143D02*
X188000001Y-118788571D01*
X188357144Y-118788571D01*
X188500001Y-118717143D01*
X188571430Y-118645714D01*
X188642858Y-118502857D01*
X188642858Y-118360000D01*
X188571430Y-118217143D01*
X188500001Y-118145714D01*
X188357144Y-118074286D01*
X188071430Y-118002857D01*
X187928572Y-117931429D01*
X187857144Y-117860000D01*
X187785715Y-117717143D01*
X187785715Y-117574286D01*
X187857144Y-117431429D01*
X187928572Y-117360000D01*
X188071430Y-117288571D01*
X188428572Y-117288571D01*
X188642858Y-117360000D01*
X189142858Y-117288571D02*
X189500001Y-118788571D01*
X189785715Y-117717143D01*
X190071429Y-118788571D01*
X190428572Y-117288571D01*
X190857144Y-117288571D02*
X191785715Y-117288571D01*
X191285715Y-117860000D01*
X191500001Y-117860000D01*
X191642858Y-117931429D01*
X191714287Y-118002857D01*
X191785715Y-118145714D01*
X191785715Y-118502857D01*
X191714287Y-118645714D01*
X191642858Y-118717143D01*
X191500001Y-118788571D01*
X191071429Y-118788571D01*
X190928572Y-118717143D01*
X190857144Y-118645714D01*
X192357143Y-117431429D02*
X192428572Y-117360000D01*
X192571429Y-117288571D01*
X192928572Y-117288571D01*
X193071429Y-117360000D01*
X193142858Y-117431429D01*
X193214286Y-117574286D01*
X193214286Y-117717143D01*
X193142858Y-117931429D01*
X192285715Y-118788571D01*
X193214286Y-118788571D01*
X187785715Y-137767143D02*
X188000001Y-137838571D01*
X188357144Y-137838571D01*
X188500001Y-137767143D01*
X188571430Y-137695714D01*
X188642858Y-137552857D01*
X188642858Y-137410000D01*
X188571430Y-137267143D01*
X188500001Y-137195714D01*
X188357144Y-137124286D01*
X188071430Y-137052857D01*
X187928572Y-136981429D01*
X187857144Y-136910000D01*
X187785715Y-136767143D01*
X187785715Y-136624286D01*
X187857144Y-136481429D01*
X187928572Y-136410000D01*
X188071430Y-136338571D01*
X188428572Y-136338571D01*
X188642858Y-136410000D01*
X189142858Y-136338571D02*
X189500001Y-137838571D01*
X189785715Y-136767143D01*
X190071429Y-137838571D01*
X190428572Y-136338571D01*
X190857144Y-136338571D02*
X191785715Y-136338571D01*
X191285715Y-136910000D01*
X191500001Y-136910000D01*
X191642858Y-136981429D01*
X191714287Y-137052857D01*
X191785715Y-137195714D01*
X191785715Y-137552857D01*
X191714287Y-137695714D01*
X191642858Y-137767143D01*
X191500001Y-137838571D01*
X191071429Y-137838571D01*
X190928572Y-137767143D01*
X190857144Y-137695714D01*
X192285715Y-136338571D02*
X193214286Y-136338571D01*
X192714286Y-136910000D01*
X192928572Y-136910000D01*
X193071429Y-136981429D01*
X193142858Y-137052857D01*
X193214286Y-137195714D01*
X193214286Y-137552857D01*
X193142858Y-137695714D01*
X193071429Y-137767143D01*
X192928572Y-137838571D01*
X192500000Y-137838571D01*
X192357143Y-137767143D01*
X192285715Y-137695714D01*
X187785715Y-156817143D02*
X188000001Y-156888571D01*
X188357144Y-156888571D01*
X188500001Y-156817143D01*
X188571430Y-156745714D01*
X188642858Y-156602857D01*
X188642858Y-156460000D01*
X188571430Y-156317143D01*
X188500001Y-156245714D01*
X188357144Y-156174286D01*
X188071430Y-156102857D01*
X187928572Y-156031429D01*
X187857144Y-155960000D01*
X187785715Y-155817143D01*
X187785715Y-155674286D01*
X187857144Y-155531429D01*
X187928572Y-155460000D01*
X188071430Y-155388571D01*
X188428572Y-155388571D01*
X188642858Y-155460000D01*
X189142858Y-155388571D02*
X189500001Y-156888571D01*
X189785715Y-155817143D01*
X190071429Y-156888571D01*
X190428572Y-155388571D01*
X190857144Y-155388571D02*
X191785715Y-155388571D01*
X191285715Y-155960000D01*
X191500001Y-155960000D01*
X191642858Y-156031429D01*
X191714287Y-156102857D01*
X191785715Y-156245714D01*
X191785715Y-156602857D01*
X191714287Y-156745714D01*
X191642858Y-156817143D01*
X191500001Y-156888571D01*
X191071429Y-156888571D01*
X190928572Y-156817143D01*
X190857144Y-156745714D01*
X193071429Y-155888571D02*
X193071429Y-156888571D01*
X192714286Y-155317143D02*
X192357143Y-156388571D01*
X193285715Y-156388571D01*
X206835715Y-118717143D02*
X207050001Y-118788571D01*
X207407144Y-118788571D01*
X207550001Y-118717143D01*
X207621430Y-118645714D01*
X207692858Y-118502857D01*
X207692858Y-118360000D01*
X207621430Y-118217143D01*
X207550001Y-118145714D01*
X207407144Y-118074286D01*
X207121430Y-118002857D01*
X206978572Y-117931429D01*
X206907144Y-117860000D01*
X206835715Y-117717143D01*
X206835715Y-117574286D01*
X206907144Y-117431429D01*
X206978572Y-117360000D01*
X207121430Y-117288571D01*
X207478572Y-117288571D01*
X207692858Y-117360000D01*
X208192858Y-117288571D02*
X208550001Y-118788571D01*
X208835715Y-117717143D01*
X209121429Y-118788571D01*
X209478572Y-117288571D01*
X209907144Y-117288571D02*
X210835715Y-117288571D01*
X210335715Y-117860000D01*
X210550001Y-117860000D01*
X210692858Y-117931429D01*
X210764287Y-118002857D01*
X210835715Y-118145714D01*
X210835715Y-118502857D01*
X210764287Y-118645714D01*
X210692858Y-118717143D01*
X210550001Y-118788571D01*
X210121429Y-118788571D01*
X209978572Y-118717143D01*
X209907144Y-118645714D01*
X211335715Y-117288571D02*
X212335715Y-117288571D01*
X211692858Y-118788571D01*
X206835715Y-137767143D02*
X207050001Y-137838571D01*
X207407144Y-137838571D01*
X207550001Y-137767143D01*
X207621430Y-137695714D01*
X207692858Y-137552857D01*
X207692858Y-137410000D01*
X207621430Y-137267143D01*
X207550001Y-137195714D01*
X207407144Y-137124286D01*
X207121430Y-137052857D01*
X206978572Y-136981429D01*
X206907144Y-136910000D01*
X206835715Y-136767143D01*
X206835715Y-136624286D01*
X206907144Y-136481429D01*
X206978572Y-136410000D01*
X207121430Y-136338571D01*
X207478572Y-136338571D01*
X207692858Y-136410000D01*
X208192858Y-136338571D02*
X208550001Y-137838571D01*
X208835715Y-136767143D01*
X209121429Y-137838571D01*
X209478572Y-136338571D01*
X209907144Y-136338571D02*
X210835715Y-136338571D01*
X210335715Y-136910000D01*
X210550001Y-136910000D01*
X210692858Y-136981429D01*
X210764287Y-137052857D01*
X210835715Y-137195714D01*
X210835715Y-137552857D01*
X210764287Y-137695714D01*
X210692858Y-137767143D01*
X210550001Y-137838571D01*
X210121429Y-137838571D01*
X209978572Y-137767143D01*
X209907144Y-137695714D01*
X211692858Y-136981429D02*
X211550000Y-136910000D01*
X211478572Y-136838571D01*
X211407143Y-136695714D01*
X211407143Y-136624286D01*
X211478572Y-136481429D01*
X211550000Y-136410000D01*
X211692858Y-136338571D01*
X211978572Y-136338571D01*
X212121429Y-136410000D01*
X212192858Y-136481429D01*
X212264286Y-136624286D01*
X212264286Y-136695714D01*
X212192858Y-136838571D01*
X212121429Y-136910000D01*
X211978572Y-136981429D01*
X211692858Y-136981429D01*
X211550000Y-137052857D01*
X211478572Y-137124286D01*
X211407143Y-137267143D01*
X211407143Y-137552857D01*
X211478572Y-137695714D01*
X211550000Y-137767143D01*
X211692858Y-137838571D01*
X211978572Y-137838571D01*
X212121429Y-137767143D01*
X212192858Y-137695714D01*
X212264286Y-137552857D01*
X212264286Y-137267143D01*
X212192858Y-137124286D01*
X212121429Y-137052857D01*
X211978572Y-136981429D01*
X206835715Y-156817143D02*
X207050001Y-156888571D01*
X207407144Y-156888571D01*
X207550001Y-156817143D01*
X207621430Y-156745714D01*
X207692858Y-156602857D01*
X207692858Y-156460000D01*
X207621430Y-156317143D01*
X207550001Y-156245714D01*
X207407144Y-156174286D01*
X207121430Y-156102857D01*
X206978572Y-156031429D01*
X206907144Y-155960000D01*
X206835715Y-155817143D01*
X206835715Y-155674286D01*
X206907144Y-155531429D01*
X206978572Y-155460000D01*
X207121430Y-155388571D01*
X207478572Y-155388571D01*
X207692858Y-155460000D01*
X208192858Y-155388571D02*
X208550001Y-156888571D01*
X208835715Y-155817143D01*
X209121429Y-156888571D01*
X209478572Y-155388571D01*
X209907144Y-155388571D02*
X210835715Y-155388571D01*
X210335715Y-155960000D01*
X210550001Y-155960000D01*
X210692858Y-156031429D01*
X210764287Y-156102857D01*
X210835715Y-156245714D01*
X210835715Y-156602857D01*
X210764287Y-156745714D01*
X210692858Y-156817143D01*
X210550001Y-156888571D01*
X210121429Y-156888571D01*
X209978572Y-156817143D01*
X209907144Y-156745714D01*
X211550000Y-156888571D02*
X211835715Y-156888571D01*
X211978572Y-156817143D01*
X212050000Y-156745714D01*
X212192858Y-156531429D01*
X212264286Y-156245714D01*
X212264286Y-155674286D01*
X212192858Y-155531429D01*
X212121429Y-155460000D01*
X211978572Y-155388571D01*
X211692858Y-155388571D01*
X211550000Y-155460000D01*
X211478572Y-155531429D01*
X211407143Y-155674286D01*
X211407143Y-156031429D01*
X211478572Y-156174286D01*
X211550000Y-156245714D01*
X211692858Y-156317143D01*
X211978572Y-156317143D01*
X212121429Y-156245714D01*
X212192858Y-156174286D01*
X212264286Y-156031429D01*
X225885715Y-156817143D02*
X226100001Y-156888571D01*
X226457144Y-156888571D01*
X226600001Y-156817143D01*
X226671430Y-156745714D01*
X226742858Y-156602857D01*
X226742858Y-156460000D01*
X226671430Y-156317143D01*
X226600001Y-156245714D01*
X226457144Y-156174286D01*
X226171430Y-156102857D01*
X226028572Y-156031429D01*
X225957144Y-155960000D01*
X225885715Y-155817143D01*
X225885715Y-155674286D01*
X225957144Y-155531429D01*
X226028572Y-155460000D01*
X226171430Y-155388571D01*
X226528572Y-155388571D01*
X226742858Y-155460000D01*
X227242858Y-155388571D02*
X227600001Y-156888571D01*
X227885715Y-155817143D01*
X228171429Y-156888571D01*
X228528572Y-155388571D01*
X229742858Y-155888571D02*
X229742858Y-156888571D01*
X229385715Y-155317143D02*
X229028572Y-156388571D01*
X229957144Y-156388571D01*
X231171429Y-155888571D02*
X231171429Y-156888571D01*
X230814286Y-155317143D02*
X230457143Y-156388571D01*
X231385715Y-156388571D01*
X244935715Y-99667143D02*
X245150001Y-99738571D01*
X245507144Y-99738571D01*
X245650001Y-99667143D01*
X245721430Y-99595714D01*
X245792858Y-99452857D01*
X245792858Y-99310000D01*
X245721430Y-99167143D01*
X245650001Y-99095714D01*
X245507144Y-99024286D01*
X245221430Y-98952857D01*
X245078572Y-98881429D01*
X245007144Y-98810000D01*
X244935715Y-98667143D01*
X244935715Y-98524286D01*
X245007144Y-98381429D01*
X245078572Y-98310000D01*
X245221430Y-98238571D01*
X245578572Y-98238571D01*
X245792858Y-98310000D01*
X246292858Y-98238571D02*
X246650001Y-99738571D01*
X246935715Y-98667143D01*
X247221429Y-99738571D01*
X247578572Y-98238571D01*
X248792858Y-98738571D02*
X248792858Y-99738571D01*
X248435715Y-98167143D02*
X248078572Y-99238571D01*
X249007144Y-99238571D01*
X250221429Y-98238571D02*
X249935715Y-98238571D01*
X249792858Y-98310000D01*
X249721429Y-98381429D01*
X249578572Y-98595714D01*
X249507143Y-98881429D01*
X249507143Y-99452857D01*
X249578572Y-99595714D01*
X249650000Y-99667143D01*
X249792858Y-99738571D01*
X250078572Y-99738571D01*
X250221429Y-99667143D01*
X250292858Y-99595714D01*
X250364286Y-99452857D01*
X250364286Y-99095714D01*
X250292858Y-98952857D01*
X250221429Y-98881429D01*
X250078572Y-98810000D01*
X249792858Y-98810000D01*
X249650000Y-98881429D01*
X249578572Y-98952857D01*
X249507143Y-99095714D01*
X244935715Y-118717143D02*
X245150001Y-118788571D01*
X245507144Y-118788571D01*
X245650001Y-118717143D01*
X245721430Y-118645714D01*
X245792858Y-118502857D01*
X245792858Y-118360000D01*
X245721430Y-118217143D01*
X245650001Y-118145714D01*
X245507144Y-118074286D01*
X245221430Y-118002857D01*
X245078572Y-117931429D01*
X245007144Y-117860000D01*
X244935715Y-117717143D01*
X244935715Y-117574286D01*
X245007144Y-117431429D01*
X245078572Y-117360000D01*
X245221430Y-117288571D01*
X245578572Y-117288571D01*
X245792858Y-117360000D01*
X246292858Y-117288571D02*
X246650001Y-118788571D01*
X246935715Y-117717143D01*
X247221429Y-118788571D01*
X247578572Y-117288571D01*
X248792858Y-117788571D02*
X248792858Y-118788571D01*
X248435715Y-117217143D02*
X248078572Y-118288571D01*
X249007144Y-118288571D01*
X249435715Y-117288571D02*
X250435715Y-117288571D01*
X249792858Y-118788571D01*
X244935715Y-137767143D02*
X245150001Y-137838571D01*
X245507144Y-137838571D01*
X245650001Y-137767143D01*
X245721430Y-137695714D01*
X245792858Y-137552857D01*
X245792858Y-137410000D01*
X245721430Y-137267143D01*
X245650001Y-137195714D01*
X245507144Y-137124286D01*
X245221430Y-137052857D01*
X245078572Y-136981429D01*
X245007144Y-136910000D01*
X244935715Y-136767143D01*
X244935715Y-136624286D01*
X245007144Y-136481429D01*
X245078572Y-136410000D01*
X245221430Y-136338571D01*
X245578572Y-136338571D01*
X245792858Y-136410000D01*
X246292858Y-136338571D02*
X246650001Y-137838571D01*
X246935715Y-136767143D01*
X247221429Y-137838571D01*
X247578572Y-136338571D01*
X248792858Y-136838571D02*
X248792858Y-137838571D01*
X248435715Y-136267143D02*
X248078572Y-137338571D01*
X249007144Y-137338571D01*
X249792858Y-136981429D02*
X249650000Y-136910000D01*
X249578572Y-136838571D01*
X249507143Y-136695714D01*
X249507143Y-136624286D01*
X249578572Y-136481429D01*
X249650000Y-136410000D01*
X249792858Y-136338571D01*
X250078572Y-136338571D01*
X250221429Y-136410000D01*
X250292858Y-136481429D01*
X250364286Y-136624286D01*
X250364286Y-136695714D01*
X250292858Y-136838571D01*
X250221429Y-136910000D01*
X250078572Y-136981429D01*
X249792858Y-136981429D01*
X249650000Y-137052857D01*
X249578572Y-137124286D01*
X249507143Y-137267143D01*
X249507143Y-137552857D01*
X249578572Y-137695714D01*
X249650000Y-137767143D01*
X249792858Y-137838571D01*
X250078572Y-137838571D01*
X250221429Y-137767143D01*
X250292858Y-137695714D01*
X250364286Y-137552857D01*
X250364286Y-137267143D01*
X250292858Y-137124286D01*
X250221429Y-137052857D01*
X250078572Y-136981429D01*
X244935715Y-156817143D02*
X245150001Y-156888571D01*
X245507144Y-156888571D01*
X245650001Y-156817143D01*
X245721430Y-156745714D01*
X245792858Y-156602857D01*
X245792858Y-156460000D01*
X245721430Y-156317143D01*
X245650001Y-156245714D01*
X245507144Y-156174286D01*
X245221430Y-156102857D01*
X245078572Y-156031429D01*
X245007144Y-155960000D01*
X244935715Y-155817143D01*
X244935715Y-155674286D01*
X245007144Y-155531429D01*
X245078572Y-155460000D01*
X245221430Y-155388571D01*
X245578572Y-155388571D01*
X245792858Y-155460000D01*
X246292858Y-155388571D02*
X246650001Y-156888571D01*
X246935715Y-155817143D01*
X247221429Y-156888571D01*
X247578572Y-155388571D01*
X248792858Y-155888571D02*
X248792858Y-156888571D01*
X248435715Y-155317143D02*
X248078572Y-156388571D01*
X249007144Y-156388571D01*
X249650000Y-156888571D02*
X249935715Y-156888571D01*
X250078572Y-156817143D01*
X250150000Y-156745714D01*
X250292858Y-156531429D01*
X250364286Y-156245714D01*
X250364286Y-155674286D01*
X250292858Y-155531429D01*
X250221429Y-155460000D01*
X250078572Y-155388571D01*
X249792858Y-155388571D01*
X249650000Y-155460000D01*
X249578572Y-155531429D01*
X249507143Y-155674286D01*
X249507143Y-156031429D01*
X249578572Y-156174286D01*
X249650000Y-156245714D01*
X249792858Y-156317143D01*
X250078572Y-156317143D01*
X250221429Y-156245714D01*
X250292858Y-156174286D01*
X250364286Y-156031429D01*
X263985715Y-99667143D02*
X264200001Y-99738571D01*
X264557144Y-99738571D01*
X264700001Y-99667143D01*
X264771430Y-99595714D01*
X264842858Y-99452857D01*
X264842858Y-99310000D01*
X264771430Y-99167143D01*
X264700001Y-99095714D01*
X264557144Y-99024286D01*
X264271430Y-98952857D01*
X264128572Y-98881429D01*
X264057144Y-98810000D01*
X263985715Y-98667143D01*
X263985715Y-98524286D01*
X264057144Y-98381429D01*
X264128572Y-98310000D01*
X264271430Y-98238571D01*
X264628572Y-98238571D01*
X264842858Y-98310000D01*
X265342858Y-98238571D02*
X265700001Y-99738571D01*
X265985715Y-98667143D01*
X266271429Y-99738571D01*
X266628572Y-98238571D01*
X267914287Y-98238571D02*
X267200001Y-98238571D01*
X267128572Y-98952857D01*
X267200001Y-98881429D01*
X267342858Y-98810000D01*
X267700001Y-98810000D01*
X267842858Y-98881429D01*
X267914287Y-98952857D01*
X267985715Y-99095714D01*
X267985715Y-99452857D01*
X267914287Y-99595714D01*
X267842858Y-99667143D01*
X267700001Y-99738571D01*
X267342858Y-99738571D01*
X267200001Y-99667143D01*
X267128572Y-99595714D01*
X269414286Y-99738571D02*
X268557143Y-99738571D01*
X268985715Y-99738571D02*
X268985715Y-98238571D01*
X268842858Y-98452857D01*
X268700000Y-98595714D01*
X268557143Y-98667143D01*
X263985715Y-118717143D02*
X264200001Y-118788571D01*
X264557144Y-118788571D01*
X264700001Y-118717143D01*
X264771430Y-118645714D01*
X264842858Y-118502857D01*
X264842858Y-118360000D01*
X264771430Y-118217143D01*
X264700001Y-118145714D01*
X264557144Y-118074286D01*
X264271430Y-118002857D01*
X264128572Y-117931429D01*
X264057144Y-117860000D01*
X263985715Y-117717143D01*
X263985715Y-117574286D01*
X264057144Y-117431429D01*
X264128572Y-117360000D01*
X264271430Y-117288571D01*
X264628572Y-117288571D01*
X264842858Y-117360000D01*
X265342858Y-117288571D02*
X265700001Y-118788571D01*
X265985715Y-117717143D01*
X266271429Y-118788571D01*
X266628572Y-117288571D01*
X267914287Y-117288571D02*
X267200001Y-117288571D01*
X267128572Y-118002857D01*
X267200001Y-117931429D01*
X267342858Y-117860000D01*
X267700001Y-117860000D01*
X267842858Y-117931429D01*
X267914287Y-118002857D01*
X267985715Y-118145714D01*
X267985715Y-118502857D01*
X267914287Y-118645714D01*
X267842858Y-118717143D01*
X267700001Y-118788571D01*
X267342858Y-118788571D01*
X267200001Y-118717143D01*
X267128572Y-118645714D01*
X268557143Y-117431429D02*
X268628572Y-117360000D01*
X268771429Y-117288571D01*
X269128572Y-117288571D01*
X269271429Y-117360000D01*
X269342858Y-117431429D01*
X269414286Y-117574286D01*
X269414286Y-117717143D01*
X269342858Y-117931429D01*
X268485715Y-118788571D01*
X269414286Y-118788571D01*
X263985715Y-137767143D02*
X264200001Y-137838571D01*
X264557144Y-137838571D01*
X264700001Y-137767143D01*
X264771430Y-137695714D01*
X264842858Y-137552857D01*
X264842858Y-137410000D01*
X264771430Y-137267143D01*
X264700001Y-137195714D01*
X264557144Y-137124286D01*
X264271430Y-137052857D01*
X264128572Y-136981429D01*
X264057144Y-136910000D01*
X263985715Y-136767143D01*
X263985715Y-136624286D01*
X264057144Y-136481429D01*
X264128572Y-136410000D01*
X264271430Y-136338571D01*
X264628572Y-136338571D01*
X264842858Y-136410000D01*
X265342858Y-136338571D02*
X265700001Y-137838571D01*
X265985715Y-136767143D01*
X266271429Y-137838571D01*
X266628572Y-136338571D01*
X267914287Y-136338571D02*
X267200001Y-136338571D01*
X267128572Y-137052857D01*
X267200001Y-136981429D01*
X267342858Y-136910000D01*
X267700001Y-136910000D01*
X267842858Y-136981429D01*
X267914287Y-137052857D01*
X267985715Y-137195714D01*
X267985715Y-137552857D01*
X267914287Y-137695714D01*
X267842858Y-137767143D01*
X267700001Y-137838571D01*
X267342858Y-137838571D01*
X267200001Y-137767143D01*
X267128572Y-137695714D01*
X268485715Y-136338571D02*
X269414286Y-136338571D01*
X268914286Y-136910000D01*
X269128572Y-136910000D01*
X269271429Y-136981429D01*
X269342858Y-137052857D01*
X269414286Y-137195714D01*
X269414286Y-137552857D01*
X269342858Y-137695714D01*
X269271429Y-137767143D01*
X269128572Y-137838571D01*
X268700000Y-137838571D01*
X268557143Y-137767143D01*
X268485715Y-137695714D01*
X263985715Y-156817143D02*
X264200001Y-156888571D01*
X264557144Y-156888571D01*
X264700001Y-156817143D01*
X264771430Y-156745714D01*
X264842858Y-156602857D01*
X264842858Y-156460000D01*
X264771430Y-156317143D01*
X264700001Y-156245714D01*
X264557144Y-156174286D01*
X264271430Y-156102857D01*
X264128572Y-156031429D01*
X264057144Y-155960000D01*
X263985715Y-155817143D01*
X263985715Y-155674286D01*
X264057144Y-155531429D01*
X264128572Y-155460000D01*
X264271430Y-155388571D01*
X264628572Y-155388571D01*
X264842858Y-155460000D01*
X265342858Y-155388571D02*
X265700001Y-156888571D01*
X265985715Y-155817143D01*
X266271429Y-156888571D01*
X266628572Y-155388571D01*
X267914287Y-155388571D02*
X267200001Y-155388571D01*
X267128572Y-156102857D01*
X267200001Y-156031429D01*
X267342858Y-155960000D01*
X267700001Y-155960000D01*
X267842858Y-156031429D01*
X267914287Y-156102857D01*
X267985715Y-156245714D01*
X267985715Y-156602857D01*
X267914287Y-156745714D01*
X267842858Y-156817143D01*
X267700001Y-156888571D01*
X267342858Y-156888571D01*
X267200001Y-156817143D01*
X267128572Y-156745714D01*
X269271429Y-155888571D02*
X269271429Y-156888571D01*
X268914286Y-155317143D02*
X268557143Y-156388571D01*
X269485715Y-156388571D01*
X283035715Y-99667143D02*
X283250001Y-99738571D01*
X283607144Y-99738571D01*
X283750001Y-99667143D01*
X283821430Y-99595714D01*
X283892858Y-99452857D01*
X283892858Y-99310000D01*
X283821430Y-99167143D01*
X283750001Y-99095714D01*
X283607144Y-99024286D01*
X283321430Y-98952857D01*
X283178572Y-98881429D01*
X283107144Y-98810000D01*
X283035715Y-98667143D01*
X283035715Y-98524286D01*
X283107144Y-98381429D01*
X283178572Y-98310000D01*
X283321430Y-98238571D01*
X283678572Y-98238571D01*
X283892858Y-98310000D01*
X284392858Y-98238571D02*
X284750001Y-99738571D01*
X285035715Y-98667143D01*
X285321429Y-99738571D01*
X285678572Y-98238571D01*
X286964287Y-98238571D02*
X286250001Y-98238571D01*
X286178572Y-98952857D01*
X286250001Y-98881429D01*
X286392858Y-98810000D01*
X286750001Y-98810000D01*
X286892858Y-98881429D01*
X286964287Y-98952857D01*
X287035715Y-99095714D01*
X287035715Y-99452857D01*
X286964287Y-99595714D01*
X286892858Y-99667143D01*
X286750001Y-99738571D01*
X286392858Y-99738571D01*
X286250001Y-99667143D01*
X286178572Y-99595714D01*
X288321429Y-98238571D02*
X288035715Y-98238571D01*
X287892858Y-98310000D01*
X287821429Y-98381429D01*
X287678572Y-98595714D01*
X287607143Y-98881429D01*
X287607143Y-99452857D01*
X287678572Y-99595714D01*
X287750000Y-99667143D01*
X287892858Y-99738571D01*
X288178572Y-99738571D01*
X288321429Y-99667143D01*
X288392858Y-99595714D01*
X288464286Y-99452857D01*
X288464286Y-99095714D01*
X288392858Y-98952857D01*
X288321429Y-98881429D01*
X288178572Y-98810000D01*
X287892858Y-98810000D01*
X287750000Y-98881429D01*
X287678572Y-98952857D01*
X287607143Y-99095714D01*
X283035715Y-118717143D02*
X283250001Y-118788571D01*
X283607144Y-118788571D01*
X283750001Y-118717143D01*
X283821430Y-118645714D01*
X283892858Y-118502857D01*
X283892858Y-118360000D01*
X283821430Y-118217143D01*
X283750001Y-118145714D01*
X283607144Y-118074286D01*
X283321430Y-118002857D01*
X283178572Y-117931429D01*
X283107144Y-117860000D01*
X283035715Y-117717143D01*
X283035715Y-117574286D01*
X283107144Y-117431429D01*
X283178572Y-117360000D01*
X283321430Y-117288571D01*
X283678572Y-117288571D01*
X283892858Y-117360000D01*
X284392858Y-117288571D02*
X284750001Y-118788571D01*
X285035715Y-117717143D01*
X285321429Y-118788571D01*
X285678572Y-117288571D01*
X286964287Y-117288571D02*
X286250001Y-117288571D01*
X286178572Y-118002857D01*
X286250001Y-117931429D01*
X286392858Y-117860000D01*
X286750001Y-117860000D01*
X286892858Y-117931429D01*
X286964287Y-118002857D01*
X287035715Y-118145714D01*
X287035715Y-118502857D01*
X286964287Y-118645714D01*
X286892858Y-118717143D01*
X286750001Y-118788571D01*
X286392858Y-118788571D01*
X286250001Y-118717143D01*
X286178572Y-118645714D01*
X287535715Y-117288571D02*
X288535715Y-117288571D01*
X287892858Y-118788571D01*
X283035715Y-137767143D02*
X283250001Y-137838571D01*
X283607144Y-137838571D01*
X283750001Y-137767143D01*
X283821430Y-137695714D01*
X283892858Y-137552857D01*
X283892858Y-137410000D01*
X283821430Y-137267143D01*
X283750001Y-137195714D01*
X283607144Y-137124286D01*
X283321430Y-137052857D01*
X283178572Y-136981429D01*
X283107144Y-136910000D01*
X283035715Y-136767143D01*
X283035715Y-136624286D01*
X283107144Y-136481429D01*
X283178572Y-136410000D01*
X283321430Y-136338571D01*
X283678572Y-136338571D01*
X283892858Y-136410000D01*
X284392858Y-136338571D02*
X284750001Y-137838571D01*
X285035715Y-136767143D01*
X285321429Y-137838571D01*
X285678572Y-136338571D01*
X286964287Y-136338571D02*
X286250001Y-136338571D01*
X286178572Y-137052857D01*
X286250001Y-136981429D01*
X286392858Y-136910000D01*
X286750001Y-136910000D01*
X286892858Y-136981429D01*
X286964287Y-137052857D01*
X287035715Y-137195714D01*
X287035715Y-137552857D01*
X286964287Y-137695714D01*
X286892858Y-137767143D01*
X286750001Y-137838571D01*
X286392858Y-137838571D01*
X286250001Y-137767143D01*
X286178572Y-137695714D01*
X287892858Y-136981429D02*
X287750000Y-136910000D01*
X287678572Y-136838571D01*
X287607143Y-136695714D01*
X287607143Y-136624286D01*
X287678572Y-136481429D01*
X287750000Y-136410000D01*
X287892858Y-136338571D01*
X288178572Y-136338571D01*
X288321429Y-136410000D01*
X288392858Y-136481429D01*
X288464286Y-136624286D01*
X288464286Y-136695714D01*
X288392858Y-136838571D01*
X288321429Y-136910000D01*
X288178572Y-136981429D01*
X287892858Y-136981429D01*
X287750000Y-137052857D01*
X287678572Y-137124286D01*
X287607143Y-137267143D01*
X287607143Y-137552857D01*
X287678572Y-137695714D01*
X287750000Y-137767143D01*
X287892858Y-137838571D01*
X288178572Y-137838571D01*
X288321429Y-137767143D01*
X288392858Y-137695714D01*
X288464286Y-137552857D01*
X288464286Y-137267143D01*
X288392858Y-137124286D01*
X288321429Y-137052857D01*
X288178572Y-136981429D01*
X283035715Y-156817143D02*
X283250001Y-156888571D01*
X283607144Y-156888571D01*
X283750001Y-156817143D01*
X283821430Y-156745714D01*
X283892858Y-156602857D01*
X283892858Y-156460000D01*
X283821430Y-156317143D01*
X283750001Y-156245714D01*
X283607144Y-156174286D01*
X283321430Y-156102857D01*
X283178572Y-156031429D01*
X283107144Y-155960000D01*
X283035715Y-155817143D01*
X283035715Y-155674286D01*
X283107144Y-155531429D01*
X283178572Y-155460000D01*
X283321430Y-155388571D01*
X283678572Y-155388571D01*
X283892858Y-155460000D01*
X284392858Y-155388571D02*
X284750001Y-156888571D01*
X285035715Y-155817143D01*
X285321429Y-156888571D01*
X285678572Y-155388571D01*
X286964287Y-155388571D02*
X286250001Y-155388571D01*
X286178572Y-156102857D01*
X286250001Y-156031429D01*
X286392858Y-155960000D01*
X286750001Y-155960000D01*
X286892858Y-156031429D01*
X286964287Y-156102857D01*
X287035715Y-156245714D01*
X287035715Y-156602857D01*
X286964287Y-156745714D01*
X286892858Y-156817143D01*
X286750001Y-156888571D01*
X286392858Y-156888571D01*
X286250001Y-156817143D01*
X286178572Y-156745714D01*
X287750000Y-156888571D02*
X288035715Y-156888571D01*
X288178572Y-156817143D01*
X288250000Y-156745714D01*
X288392858Y-156531429D01*
X288464286Y-156245714D01*
X288464286Y-155674286D01*
X288392858Y-155531429D01*
X288321429Y-155460000D01*
X288178572Y-155388571D01*
X287892858Y-155388571D01*
X287750000Y-155460000D01*
X287678572Y-155531429D01*
X287607143Y-155674286D01*
X287607143Y-156031429D01*
X287678572Y-156174286D01*
X287750000Y-156245714D01*
X287892858Y-156317143D01*
X288178572Y-156317143D01*
X288321429Y-156245714D01*
X288392858Y-156174286D01*
X288464286Y-156031429D01*
X302085715Y-99667143D02*
X302300001Y-99738571D01*
X302657144Y-99738571D01*
X302800001Y-99667143D01*
X302871430Y-99595714D01*
X302942858Y-99452857D01*
X302942858Y-99310000D01*
X302871430Y-99167143D01*
X302800001Y-99095714D01*
X302657144Y-99024286D01*
X302371430Y-98952857D01*
X302228572Y-98881429D01*
X302157144Y-98810000D01*
X302085715Y-98667143D01*
X302085715Y-98524286D01*
X302157144Y-98381429D01*
X302228572Y-98310000D01*
X302371430Y-98238571D01*
X302728572Y-98238571D01*
X302942858Y-98310000D01*
X303442858Y-98238571D02*
X303800001Y-99738571D01*
X304085715Y-98667143D01*
X304371429Y-99738571D01*
X304728572Y-98238571D01*
X305942858Y-98238571D02*
X305657144Y-98238571D01*
X305514287Y-98310000D01*
X305442858Y-98381429D01*
X305300001Y-98595714D01*
X305228572Y-98881429D01*
X305228572Y-99452857D01*
X305300001Y-99595714D01*
X305371429Y-99667143D01*
X305514287Y-99738571D01*
X305800001Y-99738571D01*
X305942858Y-99667143D01*
X306014287Y-99595714D01*
X306085715Y-99452857D01*
X306085715Y-99095714D01*
X306014287Y-98952857D01*
X305942858Y-98881429D01*
X305800001Y-98810000D01*
X305514287Y-98810000D01*
X305371429Y-98881429D01*
X305300001Y-98952857D01*
X305228572Y-99095714D01*
X307514286Y-99738571D02*
X306657143Y-99738571D01*
X307085715Y-99738571D02*
X307085715Y-98238571D01*
X306942858Y-98452857D01*
X306800000Y-98595714D01*
X306657143Y-98667143D01*
X302085715Y-118717143D02*
X302300001Y-118788571D01*
X302657144Y-118788571D01*
X302800001Y-118717143D01*
X302871430Y-118645714D01*
X302942858Y-118502857D01*
X302942858Y-118360000D01*
X302871430Y-118217143D01*
X302800001Y-118145714D01*
X302657144Y-118074286D01*
X302371430Y-118002857D01*
X302228572Y-117931429D01*
X302157144Y-117860000D01*
X302085715Y-117717143D01*
X302085715Y-117574286D01*
X302157144Y-117431429D01*
X302228572Y-117360000D01*
X302371430Y-117288571D01*
X302728572Y-117288571D01*
X302942858Y-117360000D01*
X303442858Y-117288571D02*
X303800001Y-118788571D01*
X304085715Y-117717143D01*
X304371429Y-118788571D01*
X304728572Y-117288571D01*
X305942858Y-117288571D02*
X305657144Y-117288571D01*
X305514287Y-117360000D01*
X305442858Y-117431429D01*
X305300001Y-117645714D01*
X305228572Y-117931429D01*
X305228572Y-118502857D01*
X305300001Y-118645714D01*
X305371429Y-118717143D01*
X305514287Y-118788571D01*
X305800001Y-118788571D01*
X305942858Y-118717143D01*
X306014287Y-118645714D01*
X306085715Y-118502857D01*
X306085715Y-118145714D01*
X306014287Y-118002857D01*
X305942858Y-117931429D01*
X305800001Y-117860000D01*
X305514287Y-117860000D01*
X305371429Y-117931429D01*
X305300001Y-118002857D01*
X305228572Y-118145714D01*
X306657143Y-117431429D02*
X306728572Y-117360000D01*
X306871429Y-117288571D01*
X307228572Y-117288571D01*
X307371429Y-117360000D01*
X307442858Y-117431429D01*
X307514286Y-117574286D01*
X307514286Y-117717143D01*
X307442858Y-117931429D01*
X306585715Y-118788571D01*
X307514286Y-118788571D01*
X302085715Y-137767143D02*
X302300001Y-137838571D01*
X302657144Y-137838571D01*
X302800001Y-137767143D01*
X302871430Y-137695714D01*
X302942858Y-137552857D01*
X302942858Y-137410000D01*
X302871430Y-137267143D01*
X302800001Y-137195714D01*
X302657144Y-137124286D01*
X302371430Y-137052857D01*
X302228572Y-136981429D01*
X302157144Y-136910000D01*
X302085715Y-136767143D01*
X302085715Y-136624286D01*
X302157144Y-136481429D01*
X302228572Y-136410000D01*
X302371430Y-136338571D01*
X302728572Y-136338571D01*
X302942858Y-136410000D01*
X303442858Y-136338571D02*
X303800001Y-137838571D01*
X304085715Y-136767143D01*
X304371429Y-137838571D01*
X304728572Y-136338571D01*
X305942858Y-136338571D02*
X305657144Y-136338571D01*
X305514287Y-136410000D01*
X305442858Y-136481429D01*
X305300001Y-136695714D01*
X305228572Y-136981429D01*
X305228572Y-137552857D01*
X305300001Y-137695714D01*
X305371429Y-137767143D01*
X305514287Y-137838571D01*
X305800001Y-137838571D01*
X305942858Y-137767143D01*
X306014287Y-137695714D01*
X306085715Y-137552857D01*
X306085715Y-137195714D01*
X306014287Y-137052857D01*
X305942858Y-136981429D01*
X305800001Y-136910000D01*
X305514287Y-136910000D01*
X305371429Y-136981429D01*
X305300001Y-137052857D01*
X305228572Y-137195714D01*
X306585715Y-136338571D02*
X307514286Y-136338571D01*
X307014286Y-136910000D01*
X307228572Y-136910000D01*
X307371429Y-136981429D01*
X307442858Y-137052857D01*
X307514286Y-137195714D01*
X307514286Y-137552857D01*
X307442858Y-137695714D01*
X307371429Y-137767143D01*
X307228572Y-137838571D01*
X306800000Y-137838571D01*
X306657143Y-137767143D01*
X306585715Y-137695714D01*
X302085715Y-156817143D02*
X302300001Y-156888571D01*
X302657144Y-156888571D01*
X302800001Y-156817143D01*
X302871430Y-156745714D01*
X302942858Y-156602857D01*
X302942858Y-156460000D01*
X302871430Y-156317143D01*
X302800001Y-156245714D01*
X302657144Y-156174286D01*
X302371430Y-156102857D01*
X302228572Y-156031429D01*
X302157144Y-155960000D01*
X302085715Y-155817143D01*
X302085715Y-155674286D01*
X302157144Y-155531429D01*
X302228572Y-155460000D01*
X302371430Y-155388571D01*
X302728572Y-155388571D01*
X302942858Y-155460000D01*
X303442858Y-155388571D02*
X303800001Y-156888571D01*
X304085715Y-155817143D01*
X304371429Y-156888571D01*
X304728572Y-155388571D01*
X305942858Y-155388571D02*
X305657144Y-155388571D01*
X305514287Y-155460000D01*
X305442858Y-155531429D01*
X305300001Y-155745714D01*
X305228572Y-156031429D01*
X305228572Y-156602857D01*
X305300001Y-156745714D01*
X305371429Y-156817143D01*
X305514287Y-156888571D01*
X305800001Y-156888571D01*
X305942858Y-156817143D01*
X306014287Y-156745714D01*
X306085715Y-156602857D01*
X306085715Y-156245714D01*
X306014287Y-156102857D01*
X305942858Y-156031429D01*
X305800001Y-155960000D01*
X305514287Y-155960000D01*
X305371429Y-156031429D01*
X305300001Y-156102857D01*
X305228572Y-156245714D01*
X307371429Y-155888571D02*
X307371429Y-156888571D01*
X307014286Y-155317143D02*
X306657143Y-156388571D01*
X307585715Y-156388571D01*
X321135715Y-99667143D02*
X321350001Y-99738571D01*
X321707144Y-99738571D01*
X321850001Y-99667143D01*
X321921430Y-99595714D01*
X321992858Y-99452857D01*
X321992858Y-99310000D01*
X321921430Y-99167143D01*
X321850001Y-99095714D01*
X321707144Y-99024286D01*
X321421430Y-98952857D01*
X321278572Y-98881429D01*
X321207144Y-98810000D01*
X321135715Y-98667143D01*
X321135715Y-98524286D01*
X321207144Y-98381429D01*
X321278572Y-98310000D01*
X321421430Y-98238571D01*
X321778572Y-98238571D01*
X321992858Y-98310000D01*
X322492858Y-98238571D02*
X322850001Y-99738571D01*
X323135715Y-98667143D01*
X323421429Y-99738571D01*
X323778572Y-98238571D01*
X324992858Y-98238571D02*
X324707144Y-98238571D01*
X324564287Y-98310000D01*
X324492858Y-98381429D01*
X324350001Y-98595714D01*
X324278572Y-98881429D01*
X324278572Y-99452857D01*
X324350001Y-99595714D01*
X324421429Y-99667143D01*
X324564287Y-99738571D01*
X324850001Y-99738571D01*
X324992858Y-99667143D01*
X325064287Y-99595714D01*
X325135715Y-99452857D01*
X325135715Y-99095714D01*
X325064287Y-98952857D01*
X324992858Y-98881429D01*
X324850001Y-98810000D01*
X324564287Y-98810000D01*
X324421429Y-98881429D01*
X324350001Y-98952857D01*
X324278572Y-99095714D01*
X326421429Y-98238571D02*
X326135715Y-98238571D01*
X325992858Y-98310000D01*
X325921429Y-98381429D01*
X325778572Y-98595714D01*
X325707143Y-98881429D01*
X325707143Y-99452857D01*
X325778572Y-99595714D01*
X325850000Y-99667143D01*
X325992858Y-99738571D01*
X326278572Y-99738571D01*
X326421429Y-99667143D01*
X326492858Y-99595714D01*
X326564286Y-99452857D01*
X326564286Y-99095714D01*
X326492858Y-98952857D01*
X326421429Y-98881429D01*
X326278572Y-98810000D01*
X325992858Y-98810000D01*
X325850000Y-98881429D01*
X325778572Y-98952857D01*
X325707143Y-99095714D01*
X321135715Y-137767143D02*
X321350001Y-137838571D01*
X321707144Y-137838571D01*
X321850001Y-137767143D01*
X321921430Y-137695714D01*
X321992858Y-137552857D01*
X321992858Y-137410000D01*
X321921430Y-137267143D01*
X321850001Y-137195714D01*
X321707144Y-137124286D01*
X321421430Y-137052857D01*
X321278572Y-136981429D01*
X321207144Y-136910000D01*
X321135715Y-136767143D01*
X321135715Y-136624286D01*
X321207144Y-136481429D01*
X321278572Y-136410000D01*
X321421430Y-136338571D01*
X321778572Y-136338571D01*
X321992858Y-136410000D01*
X322492858Y-136338571D02*
X322850001Y-137838571D01*
X323135715Y-136767143D01*
X323421429Y-137838571D01*
X323778572Y-136338571D01*
X324992858Y-136338571D02*
X324707144Y-136338571D01*
X324564287Y-136410000D01*
X324492858Y-136481429D01*
X324350001Y-136695714D01*
X324278572Y-136981429D01*
X324278572Y-137552857D01*
X324350001Y-137695714D01*
X324421429Y-137767143D01*
X324564287Y-137838571D01*
X324850001Y-137838571D01*
X324992858Y-137767143D01*
X325064287Y-137695714D01*
X325135715Y-137552857D01*
X325135715Y-137195714D01*
X325064287Y-137052857D01*
X324992858Y-136981429D01*
X324850001Y-136910000D01*
X324564287Y-136910000D01*
X324421429Y-136981429D01*
X324350001Y-137052857D01*
X324278572Y-137195714D01*
X325992858Y-136981429D02*
X325850000Y-136910000D01*
X325778572Y-136838571D01*
X325707143Y-136695714D01*
X325707143Y-136624286D01*
X325778572Y-136481429D01*
X325850000Y-136410000D01*
X325992858Y-136338571D01*
X326278572Y-136338571D01*
X326421429Y-136410000D01*
X326492858Y-136481429D01*
X326564286Y-136624286D01*
X326564286Y-136695714D01*
X326492858Y-136838571D01*
X326421429Y-136910000D01*
X326278572Y-136981429D01*
X325992858Y-136981429D01*
X325850000Y-137052857D01*
X325778572Y-137124286D01*
X325707143Y-137267143D01*
X325707143Y-137552857D01*
X325778572Y-137695714D01*
X325850000Y-137767143D01*
X325992858Y-137838571D01*
X326278572Y-137838571D01*
X326421429Y-137767143D01*
X326492858Y-137695714D01*
X326564286Y-137552857D01*
X326564286Y-137267143D01*
X326492858Y-137124286D01*
X326421429Y-137052857D01*
X326278572Y-136981429D01*
X340185715Y-99667143D02*
X340400001Y-99738571D01*
X340757144Y-99738571D01*
X340900001Y-99667143D01*
X340971430Y-99595714D01*
X341042858Y-99452857D01*
X341042858Y-99310000D01*
X340971430Y-99167143D01*
X340900001Y-99095714D01*
X340757144Y-99024286D01*
X340471430Y-98952857D01*
X340328572Y-98881429D01*
X340257144Y-98810000D01*
X340185715Y-98667143D01*
X340185715Y-98524286D01*
X340257144Y-98381429D01*
X340328572Y-98310000D01*
X340471430Y-98238571D01*
X340828572Y-98238571D01*
X341042858Y-98310000D01*
X341542858Y-98238571D02*
X341900001Y-99738571D01*
X342185715Y-98667143D01*
X342471429Y-99738571D01*
X342828572Y-98238571D01*
X343257144Y-98238571D02*
X344257144Y-98238571D01*
X343614287Y-99738571D01*
X345614286Y-99738571D02*
X344757143Y-99738571D01*
X345185715Y-99738571D02*
X345185715Y-98238571D01*
X345042858Y-98452857D01*
X344900000Y-98595714D01*
X344757143Y-98667143D01*
X340185715Y-118717143D02*
X340400001Y-118788571D01*
X340757144Y-118788571D01*
X340900001Y-118717143D01*
X340971430Y-118645714D01*
X341042858Y-118502857D01*
X341042858Y-118360000D01*
X340971430Y-118217143D01*
X340900001Y-118145714D01*
X340757144Y-118074286D01*
X340471430Y-118002857D01*
X340328572Y-117931429D01*
X340257144Y-117860000D01*
X340185715Y-117717143D01*
X340185715Y-117574286D01*
X340257144Y-117431429D01*
X340328572Y-117360000D01*
X340471430Y-117288571D01*
X340828572Y-117288571D01*
X341042858Y-117360000D01*
X341542858Y-117288571D02*
X341900001Y-118788571D01*
X342185715Y-117717143D01*
X342471429Y-118788571D01*
X342828572Y-117288571D01*
X343257144Y-117288571D02*
X344257144Y-117288571D01*
X343614287Y-118788571D01*
X344757143Y-117431429D02*
X344828572Y-117360000D01*
X344971429Y-117288571D01*
X345328572Y-117288571D01*
X345471429Y-117360000D01*
X345542858Y-117431429D01*
X345614286Y-117574286D01*
X345614286Y-117717143D01*
X345542858Y-117931429D01*
X344685715Y-118788571D01*
X345614286Y-118788571D01*
X225885715Y-118717143D02*
X226100001Y-118788571D01*
X226457144Y-118788571D01*
X226600001Y-118717143D01*
X226671430Y-118645714D01*
X226742858Y-118502857D01*
X226742858Y-118360000D01*
X226671430Y-118217143D01*
X226600001Y-118145714D01*
X226457144Y-118074286D01*
X226171430Y-118002857D01*
X226028572Y-117931429D01*
X225957144Y-117860000D01*
X225885715Y-117717143D01*
X225885715Y-117574286D01*
X225957144Y-117431429D01*
X226028572Y-117360000D01*
X226171430Y-117288571D01*
X226528572Y-117288571D01*
X226742858Y-117360000D01*
X227242858Y-117288571D02*
X227600001Y-118788571D01*
X227885715Y-117717143D01*
X228171429Y-118788571D01*
X228528572Y-117288571D01*
X229742858Y-117788571D02*
X229742858Y-118788571D01*
X229385715Y-117217143D02*
X229028572Y-118288571D01*
X229957144Y-118288571D01*
X230457143Y-117431429D02*
X230528572Y-117360000D01*
X230671429Y-117288571D01*
X231028572Y-117288571D01*
X231171429Y-117360000D01*
X231242858Y-117431429D01*
X231314286Y-117574286D01*
X231314286Y-117717143D01*
X231242858Y-117931429D01*
X230385715Y-118788571D01*
X231314286Y-118788571D01*
X187785715Y-99667143D02*
X188000001Y-99738571D01*
X188357144Y-99738571D01*
X188500001Y-99667143D01*
X188571430Y-99595714D01*
X188642858Y-99452857D01*
X188642858Y-99310000D01*
X188571430Y-99167143D01*
X188500001Y-99095714D01*
X188357144Y-99024286D01*
X188071430Y-98952857D01*
X187928572Y-98881429D01*
X187857144Y-98810000D01*
X187785715Y-98667143D01*
X187785715Y-98524286D01*
X187857144Y-98381429D01*
X187928572Y-98310000D01*
X188071430Y-98238571D01*
X188428572Y-98238571D01*
X188642858Y-98310000D01*
X189142858Y-98238571D02*
X189500001Y-99738571D01*
X189785715Y-98667143D01*
X190071429Y-99738571D01*
X190428572Y-98238571D01*
X190857144Y-98238571D02*
X191785715Y-98238571D01*
X191285715Y-98810000D01*
X191500001Y-98810000D01*
X191642858Y-98881429D01*
X191714287Y-98952857D01*
X191785715Y-99095714D01*
X191785715Y-99452857D01*
X191714287Y-99595714D01*
X191642858Y-99667143D01*
X191500001Y-99738571D01*
X191071429Y-99738571D01*
X190928572Y-99667143D01*
X190857144Y-99595714D01*
X193214286Y-99738571D02*
X192357143Y-99738571D01*
X192785715Y-99738571D02*
X192785715Y-98238571D01*
X192642858Y-98452857D01*
X192500000Y-98595714D01*
X192357143Y-98667143D01*
X206835715Y-99667143D02*
X207050001Y-99738571D01*
X207407144Y-99738571D01*
X207550001Y-99667143D01*
X207621430Y-99595714D01*
X207692858Y-99452857D01*
X207692858Y-99310000D01*
X207621430Y-99167143D01*
X207550001Y-99095714D01*
X207407144Y-99024286D01*
X207121430Y-98952857D01*
X206978572Y-98881429D01*
X206907144Y-98810000D01*
X206835715Y-98667143D01*
X206835715Y-98524286D01*
X206907144Y-98381429D01*
X206978572Y-98310000D01*
X207121430Y-98238571D01*
X207478572Y-98238571D01*
X207692858Y-98310000D01*
X208192858Y-98238571D02*
X208550001Y-99738571D01*
X208835715Y-98667143D01*
X209121429Y-99738571D01*
X209478572Y-98238571D01*
X209907144Y-98238571D02*
X210835715Y-98238571D01*
X210335715Y-98810000D01*
X210550001Y-98810000D01*
X210692858Y-98881429D01*
X210764287Y-98952857D01*
X210835715Y-99095714D01*
X210835715Y-99452857D01*
X210764287Y-99595714D01*
X210692858Y-99667143D01*
X210550001Y-99738571D01*
X210121429Y-99738571D01*
X209978572Y-99667143D01*
X209907144Y-99595714D01*
X212121429Y-98238571D02*
X211835715Y-98238571D01*
X211692858Y-98310000D01*
X211621429Y-98381429D01*
X211478572Y-98595714D01*
X211407143Y-98881429D01*
X211407143Y-99452857D01*
X211478572Y-99595714D01*
X211550000Y-99667143D01*
X211692858Y-99738571D01*
X211978572Y-99738571D01*
X212121429Y-99667143D01*
X212192858Y-99595714D01*
X212264286Y-99452857D01*
X212264286Y-99095714D01*
X212192858Y-98952857D01*
X212121429Y-98881429D01*
X211978572Y-98810000D01*
X211692858Y-98810000D01*
X211550000Y-98881429D01*
X211478572Y-98952857D01*
X211407143Y-99095714D01*
X130635715Y-118717143D02*
X130850001Y-118788571D01*
X131207144Y-118788571D01*
X131350001Y-118717143D01*
X131421430Y-118645714D01*
X131492858Y-118502857D01*
X131492858Y-118360000D01*
X131421430Y-118217143D01*
X131350001Y-118145714D01*
X131207144Y-118074286D01*
X130921430Y-118002857D01*
X130778572Y-117931429D01*
X130707144Y-117860000D01*
X130635715Y-117717143D01*
X130635715Y-117574286D01*
X130707144Y-117431429D01*
X130778572Y-117360000D01*
X130921430Y-117288571D01*
X131278572Y-117288571D01*
X131492858Y-117360000D01*
X131992858Y-117288571D02*
X132350001Y-118788571D01*
X132635715Y-117717143D01*
X132921429Y-118788571D01*
X133278572Y-117288571D01*
X134635715Y-118788571D02*
X133778572Y-118788571D01*
X134207144Y-118788571D02*
X134207144Y-117288571D01*
X134064287Y-117502857D01*
X133921429Y-117645714D01*
X133778572Y-117717143D01*
X135135715Y-117288571D02*
X136135715Y-117288571D01*
X135492858Y-118788571D01*
X168735715Y-118717143D02*
X168950001Y-118788571D01*
X169307144Y-118788571D01*
X169450001Y-118717143D01*
X169521430Y-118645714D01*
X169592858Y-118502857D01*
X169592858Y-118360000D01*
X169521430Y-118217143D01*
X169450001Y-118145714D01*
X169307144Y-118074286D01*
X169021430Y-118002857D01*
X168878572Y-117931429D01*
X168807144Y-117860000D01*
X168735715Y-117717143D01*
X168735715Y-117574286D01*
X168807144Y-117431429D01*
X168878572Y-117360000D01*
X169021430Y-117288571D01*
X169378572Y-117288571D01*
X169592858Y-117360000D01*
X170092858Y-117288571D02*
X170450001Y-118788571D01*
X170735715Y-117717143D01*
X171021429Y-118788571D01*
X171378572Y-117288571D01*
X171878572Y-117431429D02*
X171950001Y-117360000D01*
X172092858Y-117288571D01*
X172450001Y-117288571D01*
X172592858Y-117360000D01*
X172664287Y-117431429D01*
X172735715Y-117574286D01*
X172735715Y-117717143D01*
X172664287Y-117931429D01*
X171807144Y-118788571D01*
X172735715Y-118788571D01*
X173235715Y-117288571D02*
X174235715Y-117288571D01*
X173592858Y-118788571D01*
X168735715Y-99667143D02*
X168950001Y-99738571D01*
X169307144Y-99738571D01*
X169450001Y-99667143D01*
X169521430Y-99595714D01*
X169592858Y-99452857D01*
X169592858Y-99310000D01*
X169521430Y-99167143D01*
X169450001Y-99095714D01*
X169307144Y-99024286D01*
X169021430Y-98952857D01*
X168878572Y-98881429D01*
X168807144Y-98810000D01*
X168735715Y-98667143D01*
X168735715Y-98524286D01*
X168807144Y-98381429D01*
X168878572Y-98310000D01*
X169021430Y-98238571D01*
X169378572Y-98238571D01*
X169592858Y-98310000D01*
X170092858Y-98238571D02*
X170450001Y-99738571D01*
X170735715Y-98667143D01*
X171021429Y-99738571D01*
X171378572Y-98238571D01*
X171878572Y-98381429D02*
X171950001Y-98310000D01*
X172092858Y-98238571D01*
X172450001Y-98238571D01*
X172592858Y-98310000D01*
X172664287Y-98381429D01*
X172735715Y-98524286D01*
X172735715Y-98667143D01*
X172664287Y-98881429D01*
X171807144Y-99738571D01*
X172735715Y-99738571D01*
X174021429Y-98238571D02*
X173735715Y-98238571D01*
X173592858Y-98310000D01*
X173521429Y-98381429D01*
X173378572Y-98595714D01*
X173307143Y-98881429D01*
X173307143Y-99452857D01*
X173378572Y-99595714D01*
X173450000Y-99667143D01*
X173592858Y-99738571D01*
X173878572Y-99738571D01*
X174021429Y-99667143D01*
X174092858Y-99595714D01*
X174164286Y-99452857D01*
X174164286Y-99095714D01*
X174092858Y-98952857D01*
X174021429Y-98881429D01*
X173878572Y-98810000D01*
X173592858Y-98810000D01*
X173450000Y-98881429D01*
X173378572Y-98952857D01*
X173307143Y-99095714D01*
X149685715Y-118717143D02*
X149900001Y-118788571D01*
X150257144Y-118788571D01*
X150400001Y-118717143D01*
X150471430Y-118645714D01*
X150542858Y-118502857D01*
X150542858Y-118360000D01*
X150471430Y-118217143D01*
X150400001Y-118145714D01*
X150257144Y-118074286D01*
X149971430Y-118002857D01*
X149828572Y-117931429D01*
X149757144Y-117860000D01*
X149685715Y-117717143D01*
X149685715Y-117574286D01*
X149757144Y-117431429D01*
X149828572Y-117360000D01*
X149971430Y-117288571D01*
X150328572Y-117288571D01*
X150542858Y-117360000D01*
X151042858Y-117288571D02*
X151400001Y-118788571D01*
X151685715Y-117717143D01*
X151971429Y-118788571D01*
X152328572Y-117288571D01*
X152828572Y-117431429D02*
X152900001Y-117360000D01*
X153042858Y-117288571D01*
X153400001Y-117288571D01*
X153542858Y-117360000D01*
X153614287Y-117431429D01*
X153685715Y-117574286D01*
X153685715Y-117717143D01*
X153614287Y-117931429D01*
X152757144Y-118788571D01*
X153685715Y-118788571D01*
X154257143Y-117431429D02*
X154328572Y-117360000D01*
X154471429Y-117288571D01*
X154828572Y-117288571D01*
X154971429Y-117360000D01*
X155042858Y-117431429D01*
X155114286Y-117574286D01*
X155114286Y-117717143D01*
X155042858Y-117931429D01*
X154185715Y-118788571D01*
X155114286Y-118788571D01*
X74200000Y-99667143D02*
X74414286Y-99738571D01*
X74771429Y-99738571D01*
X74914286Y-99667143D01*
X74985715Y-99595714D01*
X75057143Y-99452857D01*
X75057143Y-99310000D01*
X74985715Y-99167143D01*
X74914286Y-99095714D01*
X74771429Y-99024286D01*
X74485715Y-98952857D01*
X74342857Y-98881429D01*
X74271429Y-98810000D01*
X74200000Y-98667143D01*
X74200000Y-98524286D01*
X74271429Y-98381429D01*
X74342857Y-98310000D01*
X74485715Y-98238571D01*
X74842857Y-98238571D01*
X75057143Y-98310000D01*
X75557143Y-98238571D02*
X75914286Y-99738571D01*
X76200000Y-98667143D01*
X76485714Y-99738571D01*
X76842857Y-98238571D01*
X78200000Y-99738571D02*
X77342857Y-99738571D01*
X77771429Y-99738571D02*
X77771429Y-98238571D01*
X77628572Y-98452857D01*
X77485714Y-98595714D01*
X77342857Y-98667143D01*
X206835715Y-175867143D02*
X207050001Y-175938571D01*
X207407144Y-175938571D01*
X207550001Y-175867143D01*
X207621430Y-175795714D01*
X207692858Y-175652857D01*
X207692858Y-175510000D01*
X207621430Y-175367143D01*
X207550001Y-175295714D01*
X207407144Y-175224286D01*
X207121430Y-175152857D01*
X206978572Y-175081429D01*
X206907144Y-175010000D01*
X206835715Y-174867143D01*
X206835715Y-174724286D01*
X206907144Y-174581429D01*
X206978572Y-174510000D01*
X207121430Y-174438571D01*
X207478572Y-174438571D01*
X207692858Y-174510000D01*
X208192858Y-174438571D02*
X208550001Y-175938571D01*
X208835715Y-174867143D01*
X209121429Y-175938571D01*
X209478572Y-174438571D01*
X210692858Y-174938571D02*
X210692858Y-175938571D01*
X210335715Y-174367143D02*
X209978572Y-175438571D01*
X210907144Y-175438571D01*
X211764286Y-174438571D02*
X211907143Y-174438571D01*
X212050000Y-174510000D01*
X212121429Y-174581429D01*
X212192858Y-174724286D01*
X212264286Y-175010000D01*
X212264286Y-175367143D01*
X212192858Y-175652857D01*
X212121429Y-175795714D01*
X212050000Y-175867143D01*
X211907143Y-175938571D01*
X211764286Y-175938571D01*
X211621429Y-175867143D01*
X211550000Y-175795714D01*
X211478572Y-175652857D01*
X211407143Y-175367143D01*
X211407143Y-175010000D01*
X211478572Y-174724286D01*
X211550000Y-174581429D01*
X211621429Y-174510000D01*
X211764286Y-174438571D01*
X74200000Y-175867143D02*
X74414286Y-175938571D01*
X74771429Y-175938571D01*
X74914286Y-175867143D01*
X74985715Y-175795714D01*
X75057143Y-175652857D01*
X75057143Y-175510000D01*
X74985715Y-175367143D01*
X74914286Y-175295714D01*
X74771429Y-175224286D01*
X74485715Y-175152857D01*
X74342857Y-175081429D01*
X74271429Y-175010000D01*
X74200000Y-174867143D01*
X74200000Y-174724286D01*
X74271429Y-174581429D01*
X74342857Y-174510000D01*
X74485715Y-174438571D01*
X74842857Y-174438571D01*
X75057143Y-174510000D01*
X75557143Y-174438571D02*
X75914286Y-175938571D01*
X76200000Y-174867143D01*
X76485714Y-175938571D01*
X76842857Y-174438571D01*
X78128572Y-174438571D02*
X77414286Y-174438571D01*
X77342857Y-175152857D01*
X77414286Y-175081429D01*
X77557143Y-175010000D01*
X77914286Y-175010000D01*
X78057143Y-175081429D01*
X78128572Y-175152857D01*
X78200000Y-175295714D01*
X78200000Y-175652857D01*
X78128572Y-175795714D01*
X78057143Y-175867143D01*
X77914286Y-175938571D01*
X77557143Y-175938571D01*
X77414286Y-175867143D01*
X77342857Y-175795714D01*
X321135715Y-175867143D02*
X321350001Y-175938571D01*
X321707144Y-175938571D01*
X321850001Y-175867143D01*
X321921430Y-175795714D01*
X321992858Y-175652857D01*
X321992858Y-175510000D01*
X321921430Y-175367143D01*
X321850001Y-175295714D01*
X321707144Y-175224286D01*
X321421430Y-175152857D01*
X321278572Y-175081429D01*
X321207144Y-175010000D01*
X321135715Y-174867143D01*
X321135715Y-174724286D01*
X321207144Y-174581429D01*
X321278572Y-174510000D01*
X321421430Y-174438571D01*
X321778572Y-174438571D01*
X321992858Y-174510000D01*
X322492858Y-174438571D02*
X322850001Y-175938571D01*
X323135715Y-174867143D01*
X323421429Y-175938571D01*
X323778572Y-174438571D01*
X324207144Y-174438571D02*
X325207144Y-174438571D01*
X324564287Y-175938571D01*
X326064286Y-174438571D02*
X326207143Y-174438571D01*
X326350000Y-174510000D01*
X326421429Y-174581429D01*
X326492858Y-174724286D01*
X326564286Y-175010000D01*
X326564286Y-175367143D01*
X326492858Y-175652857D01*
X326421429Y-175795714D01*
X326350000Y-175867143D01*
X326207143Y-175938571D01*
X326064286Y-175938571D01*
X325921429Y-175867143D01*
X325850000Y-175795714D01*
X325778572Y-175652857D01*
X325707143Y-175367143D01*
X325707143Y-175010000D01*
X325778572Y-174724286D01*
X325850000Y-174581429D01*
X325921429Y-174510000D01*
X326064286Y-174438571D01*
X302085715Y-175867143D02*
X302300001Y-175938571D01*
X302657144Y-175938571D01*
X302800001Y-175867143D01*
X302871430Y-175795714D01*
X302942858Y-175652857D01*
X302942858Y-175510000D01*
X302871430Y-175367143D01*
X302800001Y-175295714D01*
X302657144Y-175224286D01*
X302371430Y-175152857D01*
X302228572Y-175081429D01*
X302157144Y-175010000D01*
X302085715Y-174867143D01*
X302085715Y-174724286D01*
X302157144Y-174581429D01*
X302228572Y-174510000D01*
X302371430Y-174438571D01*
X302728572Y-174438571D01*
X302942858Y-174510000D01*
X303442858Y-174438571D02*
X303800001Y-175938571D01*
X304085715Y-174867143D01*
X304371429Y-175938571D01*
X304728572Y-174438571D01*
X305942858Y-174438571D02*
X305657144Y-174438571D01*
X305514287Y-174510000D01*
X305442858Y-174581429D01*
X305300001Y-174795714D01*
X305228572Y-175081429D01*
X305228572Y-175652857D01*
X305300001Y-175795714D01*
X305371429Y-175867143D01*
X305514287Y-175938571D01*
X305800001Y-175938571D01*
X305942858Y-175867143D01*
X306014287Y-175795714D01*
X306085715Y-175652857D01*
X306085715Y-175295714D01*
X306014287Y-175152857D01*
X305942858Y-175081429D01*
X305800001Y-175010000D01*
X305514287Y-175010000D01*
X305371429Y-175081429D01*
X305300001Y-175152857D01*
X305228572Y-175295714D01*
X307442858Y-174438571D02*
X306728572Y-174438571D01*
X306657143Y-175152857D01*
X306728572Y-175081429D01*
X306871429Y-175010000D01*
X307228572Y-175010000D01*
X307371429Y-175081429D01*
X307442858Y-175152857D01*
X307514286Y-175295714D01*
X307514286Y-175652857D01*
X307442858Y-175795714D01*
X307371429Y-175867143D01*
X307228572Y-175938571D01*
X306871429Y-175938571D01*
X306728572Y-175867143D01*
X306657143Y-175795714D01*
X263985715Y-175867143D02*
X264200001Y-175938571D01*
X264557144Y-175938571D01*
X264700001Y-175867143D01*
X264771430Y-175795714D01*
X264842858Y-175652857D01*
X264842858Y-175510000D01*
X264771430Y-175367143D01*
X264700001Y-175295714D01*
X264557144Y-175224286D01*
X264271430Y-175152857D01*
X264128572Y-175081429D01*
X264057144Y-175010000D01*
X263985715Y-174867143D01*
X263985715Y-174724286D01*
X264057144Y-174581429D01*
X264128572Y-174510000D01*
X264271430Y-174438571D01*
X264628572Y-174438571D01*
X264842858Y-174510000D01*
X265342858Y-174438571D02*
X265700001Y-175938571D01*
X265985715Y-174867143D01*
X266271429Y-175938571D01*
X266628572Y-174438571D01*
X267914287Y-174438571D02*
X267200001Y-174438571D01*
X267128572Y-175152857D01*
X267200001Y-175081429D01*
X267342858Y-175010000D01*
X267700001Y-175010000D01*
X267842858Y-175081429D01*
X267914287Y-175152857D01*
X267985715Y-175295714D01*
X267985715Y-175652857D01*
X267914287Y-175795714D01*
X267842858Y-175867143D01*
X267700001Y-175938571D01*
X267342858Y-175938571D01*
X267200001Y-175867143D01*
X267128572Y-175795714D01*
X269342858Y-174438571D02*
X268628572Y-174438571D01*
X268557143Y-175152857D01*
X268628572Y-175081429D01*
X268771429Y-175010000D01*
X269128572Y-175010000D01*
X269271429Y-175081429D01*
X269342858Y-175152857D01*
X269414286Y-175295714D01*
X269414286Y-175652857D01*
X269342858Y-175795714D01*
X269271429Y-175867143D01*
X269128572Y-175938571D01*
X268771429Y-175938571D01*
X268628572Y-175867143D01*
X268557143Y-175795714D01*
X225885715Y-175867143D02*
X226100001Y-175938571D01*
X226457144Y-175938571D01*
X226600001Y-175867143D01*
X226671430Y-175795714D01*
X226742858Y-175652857D01*
X226742858Y-175510000D01*
X226671430Y-175367143D01*
X226600001Y-175295714D01*
X226457144Y-175224286D01*
X226171430Y-175152857D01*
X226028572Y-175081429D01*
X225957144Y-175010000D01*
X225885715Y-174867143D01*
X225885715Y-174724286D01*
X225957144Y-174581429D01*
X226028572Y-174510000D01*
X226171430Y-174438571D01*
X226528572Y-174438571D01*
X226742858Y-174510000D01*
X227242858Y-174438571D02*
X227600001Y-175938571D01*
X227885715Y-174867143D01*
X228171429Y-175938571D01*
X228528572Y-174438571D01*
X229742858Y-174938571D02*
X229742858Y-175938571D01*
X229385715Y-174367143D02*
X229028572Y-175438571D01*
X229957144Y-175438571D01*
X231242858Y-174438571D02*
X230528572Y-174438571D01*
X230457143Y-175152857D01*
X230528572Y-175081429D01*
X230671429Y-175010000D01*
X231028572Y-175010000D01*
X231171429Y-175081429D01*
X231242858Y-175152857D01*
X231314286Y-175295714D01*
X231314286Y-175652857D01*
X231242858Y-175795714D01*
X231171429Y-175867143D01*
X231028572Y-175938571D01*
X230671429Y-175938571D01*
X230528572Y-175867143D01*
X230457143Y-175795714D01*
X187785715Y-175867143D02*
X188000001Y-175938571D01*
X188357144Y-175938571D01*
X188500001Y-175867143D01*
X188571430Y-175795714D01*
X188642858Y-175652857D01*
X188642858Y-175510000D01*
X188571430Y-175367143D01*
X188500001Y-175295714D01*
X188357144Y-175224286D01*
X188071430Y-175152857D01*
X187928572Y-175081429D01*
X187857144Y-175010000D01*
X187785715Y-174867143D01*
X187785715Y-174724286D01*
X187857144Y-174581429D01*
X187928572Y-174510000D01*
X188071430Y-174438571D01*
X188428572Y-174438571D01*
X188642858Y-174510000D01*
X189142858Y-174438571D02*
X189500001Y-175938571D01*
X189785715Y-174867143D01*
X190071429Y-175938571D01*
X190428572Y-174438571D01*
X190857144Y-174438571D02*
X191785715Y-174438571D01*
X191285715Y-175010000D01*
X191500001Y-175010000D01*
X191642858Y-175081429D01*
X191714287Y-175152857D01*
X191785715Y-175295714D01*
X191785715Y-175652857D01*
X191714287Y-175795714D01*
X191642858Y-175867143D01*
X191500001Y-175938571D01*
X191071429Y-175938571D01*
X190928572Y-175867143D01*
X190857144Y-175795714D01*
X193142858Y-174438571D02*
X192428572Y-174438571D01*
X192357143Y-175152857D01*
X192428572Y-175081429D01*
X192571429Y-175010000D01*
X192928572Y-175010000D01*
X193071429Y-175081429D01*
X193142858Y-175152857D01*
X193214286Y-175295714D01*
X193214286Y-175652857D01*
X193142858Y-175795714D01*
X193071429Y-175867143D01*
X192928572Y-175938571D01*
X192571429Y-175938571D01*
X192428572Y-175867143D01*
X192357143Y-175795714D01*
X168735715Y-175867143D02*
X168950001Y-175938571D01*
X169307144Y-175938571D01*
X169450001Y-175867143D01*
X169521430Y-175795714D01*
X169592858Y-175652857D01*
X169592858Y-175510000D01*
X169521430Y-175367143D01*
X169450001Y-175295714D01*
X169307144Y-175224286D01*
X169021430Y-175152857D01*
X168878572Y-175081429D01*
X168807144Y-175010000D01*
X168735715Y-174867143D01*
X168735715Y-174724286D01*
X168807144Y-174581429D01*
X168878572Y-174510000D01*
X169021430Y-174438571D01*
X169378572Y-174438571D01*
X169592858Y-174510000D01*
X170092858Y-174438571D02*
X170450001Y-175938571D01*
X170735715Y-174867143D01*
X171021429Y-175938571D01*
X171378572Y-174438571D01*
X171807144Y-174438571D02*
X172735715Y-174438571D01*
X172235715Y-175010000D01*
X172450001Y-175010000D01*
X172592858Y-175081429D01*
X172664287Y-175152857D01*
X172735715Y-175295714D01*
X172735715Y-175652857D01*
X172664287Y-175795714D01*
X172592858Y-175867143D01*
X172450001Y-175938571D01*
X172021429Y-175938571D01*
X171878572Y-175867143D01*
X171807144Y-175795714D01*
X173664286Y-174438571D02*
X173807143Y-174438571D01*
X173950000Y-174510000D01*
X174021429Y-174581429D01*
X174092858Y-174724286D01*
X174164286Y-175010000D01*
X174164286Y-175367143D01*
X174092858Y-175652857D01*
X174021429Y-175795714D01*
X173950000Y-175867143D01*
X173807143Y-175938571D01*
X173664286Y-175938571D01*
X173521429Y-175867143D01*
X173450000Y-175795714D01*
X173378572Y-175652857D01*
X173307143Y-175367143D01*
X173307143Y-175010000D01*
X173378572Y-174724286D01*
X173450000Y-174581429D01*
X173521429Y-174510000D01*
X173664286Y-174438571D01*
X149685715Y-175867143D02*
X149900001Y-175938571D01*
X150257144Y-175938571D01*
X150400001Y-175867143D01*
X150471430Y-175795714D01*
X150542858Y-175652857D01*
X150542858Y-175510000D01*
X150471430Y-175367143D01*
X150400001Y-175295714D01*
X150257144Y-175224286D01*
X149971430Y-175152857D01*
X149828572Y-175081429D01*
X149757144Y-175010000D01*
X149685715Y-174867143D01*
X149685715Y-174724286D01*
X149757144Y-174581429D01*
X149828572Y-174510000D01*
X149971430Y-174438571D01*
X150328572Y-174438571D01*
X150542858Y-174510000D01*
X151042858Y-174438571D02*
X151400001Y-175938571D01*
X151685715Y-174867143D01*
X151971429Y-175938571D01*
X152328572Y-174438571D01*
X152828572Y-174581429D02*
X152900001Y-174510000D01*
X153042858Y-174438571D01*
X153400001Y-174438571D01*
X153542858Y-174510000D01*
X153614287Y-174581429D01*
X153685715Y-174724286D01*
X153685715Y-174867143D01*
X153614287Y-175081429D01*
X152757144Y-175938571D01*
X153685715Y-175938571D01*
X155042858Y-174438571D02*
X154328572Y-174438571D01*
X154257143Y-175152857D01*
X154328572Y-175081429D01*
X154471429Y-175010000D01*
X154828572Y-175010000D01*
X154971429Y-175081429D01*
X155042858Y-175152857D01*
X155114286Y-175295714D01*
X155114286Y-175652857D01*
X155042858Y-175795714D01*
X154971429Y-175867143D01*
X154828572Y-175938571D01*
X154471429Y-175938571D01*
X154328572Y-175867143D01*
X154257143Y-175795714D01*
X130635715Y-175867143D02*
X130850001Y-175938571D01*
X131207144Y-175938571D01*
X131350001Y-175867143D01*
X131421430Y-175795714D01*
X131492858Y-175652857D01*
X131492858Y-175510000D01*
X131421430Y-175367143D01*
X131350001Y-175295714D01*
X131207144Y-175224286D01*
X130921430Y-175152857D01*
X130778572Y-175081429D01*
X130707144Y-175010000D01*
X130635715Y-174867143D01*
X130635715Y-174724286D01*
X130707144Y-174581429D01*
X130778572Y-174510000D01*
X130921430Y-174438571D01*
X131278572Y-174438571D01*
X131492858Y-174510000D01*
X131992858Y-174438571D02*
X132350001Y-175938571D01*
X132635715Y-174867143D01*
X132921429Y-175938571D01*
X133278572Y-174438571D01*
X133778572Y-174581429D02*
X133850001Y-174510000D01*
X133992858Y-174438571D01*
X134350001Y-174438571D01*
X134492858Y-174510000D01*
X134564287Y-174581429D01*
X134635715Y-174724286D01*
X134635715Y-174867143D01*
X134564287Y-175081429D01*
X133707144Y-175938571D01*
X134635715Y-175938571D01*
X135564286Y-174438571D02*
X135707143Y-174438571D01*
X135850000Y-174510000D01*
X135921429Y-174581429D01*
X135992858Y-174724286D01*
X136064286Y-175010000D01*
X136064286Y-175367143D01*
X135992858Y-175652857D01*
X135921429Y-175795714D01*
X135850000Y-175867143D01*
X135707143Y-175938571D01*
X135564286Y-175938571D01*
X135421429Y-175867143D01*
X135350000Y-175795714D01*
X135278572Y-175652857D01*
X135207143Y-175367143D01*
X135207143Y-175010000D01*
X135278572Y-174724286D01*
X135350000Y-174581429D01*
X135421429Y-174510000D01*
X135564286Y-174438571D01*
X111585715Y-175867143D02*
X111800001Y-175938571D01*
X112157144Y-175938571D01*
X112300001Y-175867143D01*
X112371430Y-175795714D01*
X112442858Y-175652857D01*
X112442858Y-175510000D01*
X112371430Y-175367143D01*
X112300001Y-175295714D01*
X112157144Y-175224286D01*
X111871430Y-175152857D01*
X111728572Y-175081429D01*
X111657144Y-175010000D01*
X111585715Y-174867143D01*
X111585715Y-174724286D01*
X111657144Y-174581429D01*
X111728572Y-174510000D01*
X111871430Y-174438571D01*
X112228572Y-174438571D01*
X112442858Y-174510000D01*
X112942858Y-174438571D02*
X113300001Y-175938571D01*
X113585715Y-174867143D01*
X113871429Y-175938571D01*
X114228572Y-174438571D01*
X115585715Y-175938571D02*
X114728572Y-175938571D01*
X115157144Y-175938571D02*
X115157144Y-174438571D01*
X115014287Y-174652857D01*
X114871429Y-174795714D01*
X114728572Y-174867143D01*
X116942858Y-174438571D02*
X116228572Y-174438571D01*
X116157143Y-175152857D01*
X116228572Y-175081429D01*
X116371429Y-175010000D01*
X116728572Y-175010000D01*
X116871429Y-175081429D01*
X116942858Y-175152857D01*
X117014286Y-175295714D01*
X117014286Y-175652857D01*
X116942858Y-175795714D01*
X116871429Y-175867143D01*
X116728572Y-175938571D01*
X116371429Y-175938571D01*
X116228572Y-175867143D01*
X116157143Y-175795714D01*
X92535715Y-175867143D02*
X92750001Y-175938571D01*
X93107144Y-175938571D01*
X93250001Y-175867143D01*
X93321430Y-175795714D01*
X93392858Y-175652857D01*
X93392858Y-175510000D01*
X93321430Y-175367143D01*
X93250001Y-175295714D01*
X93107144Y-175224286D01*
X92821430Y-175152857D01*
X92678572Y-175081429D01*
X92607144Y-175010000D01*
X92535715Y-174867143D01*
X92535715Y-174724286D01*
X92607144Y-174581429D01*
X92678572Y-174510000D01*
X92821430Y-174438571D01*
X93178572Y-174438571D01*
X93392858Y-174510000D01*
X93892858Y-174438571D02*
X94250001Y-175938571D01*
X94535715Y-174867143D01*
X94821429Y-175938571D01*
X95178572Y-174438571D01*
X96535715Y-175938571D02*
X95678572Y-175938571D01*
X96107144Y-175938571D02*
X96107144Y-174438571D01*
X95964287Y-174652857D01*
X95821429Y-174795714D01*
X95678572Y-174867143D01*
X97464286Y-174438571D02*
X97607143Y-174438571D01*
X97750000Y-174510000D01*
X97821429Y-174581429D01*
X97892858Y-174724286D01*
X97964286Y-175010000D01*
X97964286Y-175367143D01*
X97892858Y-175652857D01*
X97821429Y-175795714D01*
X97750000Y-175867143D01*
X97607143Y-175938571D01*
X97464286Y-175938571D01*
X97321429Y-175867143D01*
X97250000Y-175795714D01*
X97178572Y-175652857D01*
X97107143Y-175367143D01*
X97107143Y-175010000D01*
X97178572Y-174724286D01*
X97250000Y-174581429D01*
X97321429Y-174510000D01*
X97464286Y-174438571D01*
X340185715Y-175867143D02*
X340400001Y-175938571D01*
X340757144Y-175938571D01*
X340900001Y-175867143D01*
X340971430Y-175795714D01*
X341042858Y-175652857D01*
X341042858Y-175510000D01*
X340971430Y-175367143D01*
X340900001Y-175295714D01*
X340757144Y-175224286D01*
X340471430Y-175152857D01*
X340328572Y-175081429D01*
X340257144Y-175010000D01*
X340185715Y-174867143D01*
X340185715Y-174724286D01*
X340257144Y-174581429D01*
X340328572Y-174510000D01*
X340471430Y-174438571D01*
X340828572Y-174438571D01*
X341042858Y-174510000D01*
X341542858Y-174438571D02*
X341900001Y-175938571D01*
X342185715Y-174867143D01*
X342471429Y-175938571D01*
X342828572Y-174438571D01*
X343257144Y-174438571D02*
X344257144Y-174438571D01*
X343614287Y-175938571D01*
X345542858Y-174438571D02*
X344828572Y-174438571D01*
X344757143Y-175152857D01*
X344828572Y-175081429D01*
X344971429Y-175010000D01*
X345328572Y-175010000D01*
X345471429Y-175081429D01*
X345542858Y-175152857D01*
X345614286Y-175295714D01*
X345614286Y-175652857D01*
X345542858Y-175795714D01*
X345471429Y-175867143D01*
X345328572Y-175938571D01*
X344971429Y-175938571D01*
X344828572Y-175867143D01*
X344757143Y-175795714D01*
X244935715Y-175867143D02*
X245150001Y-175938571D01*
X245507144Y-175938571D01*
X245650001Y-175867143D01*
X245721430Y-175795714D01*
X245792858Y-175652857D01*
X245792858Y-175510000D01*
X245721430Y-175367143D01*
X245650001Y-175295714D01*
X245507144Y-175224286D01*
X245221430Y-175152857D01*
X245078572Y-175081429D01*
X245007144Y-175010000D01*
X244935715Y-174867143D01*
X244935715Y-174724286D01*
X245007144Y-174581429D01*
X245078572Y-174510000D01*
X245221430Y-174438571D01*
X245578572Y-174438571D01*
X245792858Y-174510000D01*
X246292858Y-174438571D02*
X246650001Y-175938571D01*
X246935715Y-174867143D01*
X247221429Y-175938571D01*
X247578572Y-174438571D01*
X248864287Y-174438571D02*
X248150001Y-174438571D01*
X248078572Y-175152857D01*
X248150001Y-175081429D01*
X248292858Y-175010000D01*
X248650001Y-175010000D01*
X248792858Y-175081429D01*
X248864287Y-175152857D01*
X248935715Y-175295714D01*
X248935715Y-175652857D01*
X248864287Y-175795714D01*
X248792858Y-175867143D01*
X248650001Y-175938571D01*
X248292858Y-175938571D01*
X248150001Y-175867143D01*
X248078572Y-175795714D01*
X249864286Y-174438571D02*
X250007143Y-174438571D01*
X250150000Y-174510000D01*
X250221429Y-174581429D01*
X250292858Y-174724286D01*
X250364286Y-175010000D01*
X250364286Y-175367143D01*
X250292858Y-175652857D01*
X250221429Y-175795714D01*
X250150000Y-175867143D01*
X250007143Y-175938571D01*
X249864286Y-175938571D01*
X249721429Y-175867143D01*
X249650000Y-175795714D01*
X249578572Y-175652857D01*
X249507143Y-175367143D01*
X249507143Y-175010000D01*
X249578572Y-174724286D01*
X249650000Y-174581429D01*
X249721429Y-174510000D01*
X249864286Y-174438571D01*
X283035715Y-175867143D02*
X283250001Y-175938571D01*
X283607144Y-175938571D01*
X283750001Y-175867143D01*
X283821430Y-175795714D01*
X283892858Y-175652857D01*
X283892858Y-175510000D01*
X283821430Y-175367143D01*
X283750001Y-175295714D01*
X283607144Y-175224286D01*
X283321430Y-175152857D01*
X283178572Y-175081429D01*
X283107144Y-175010000D01*
X283035715Y-174867143D01*
X283035715Y-174724286D01*
X283107144Y-174581429D01*
X283178572Y-174510000D01*
X283321430Y-174438571D01*
X283678572Y-174438571D01*
X283892858Y-174510000D01*
X284392858Y-174438571D02*
X284750001Y-175938571D01*
X285035715Y-174867143D01*
X285321429Y-175938571D01*
X285678572Y-174438571D01*
X286892858Y-174438571D02*
X286607144Y-174438571D01*
X286464287Y-174510000D01*
X286392858Y-174581429D01*
X286250001Y-174795714D01*
X286178572Y-175081429D01*
X286178572Y-175652857D01*
X286250001Y-175795714D01*
X286321429Y-175867143D01*
X286464287Y-175938571D01*
X286750001Y-175938571D01*
X286892858Y-175867143D01*
X286964287Y-175795714D01*
X287035715Y-175652857D01*
X287035715Y-175295714D01*
X286964287Y-175152857D01*
X286892858Y-175081429D01*
X286750001Y-175010000D01*
X286464287Y-175010000D01*
X286321429Y-175081429D01*
X286250001Y-175152857D01*
X286178572Y-175295714D01*
X287964286Y-174438571D02*
X288107143Y-174438571D01*
X288250000Y-174510000D01*
X288321429Y-174581429D01*
X288392858Y-174724286D01*
X288464286Y-175010000D01*
X288464286Y-175367143D01*
X288392858Y-175652857D01*
X288321429Y-175795714D01*
X288250000Y-175867143D01*
X288107143Y-175938571D01*
X287964286Y-175938571D01*
X287821429Y-175867143D01*
X287750000Y-175795714D01*
X287678572Y-175652857D01*
X287607143Y-175367143D01*
X287607143Y-175010000D01*
X287678572Y-174724286D01*
X287750000Y-174581429D01*
X287821429Y-174510000D01*
X287964286Y-174438571D01*
%LPC*%
D13*
X85725000Y-88900000D03*
X88265000Y-88900000D03*
X83185000Y-88900000D03*
X88265000Y-83820000D03*
X83185000Y-83820000D03*
D14*
X347980000Y-133985000D03*
D15*
X345440000Y-128905000D03*
D16*
X342900000Y-133985000D03*
D15*
X339090000Y-131445000D03*
D14*
X337820000Y-133985000D03*
X328930000Y-114935000D03*
D15*
X326390000Y-109855000D03*
D16*
X323850000Y-114935000D03*
D15*
X320040000Y-112395000D03*
D14*
X318770000Y-114935000D03*
X233680000Y-133985000D03*
D15*
X231140000Y-128905000D03*
D16*
X228600000Y-133985000D03*
D15*
X224790000Y-131445000D03*
D14*
X223520000Y-133985000D03*
X233680000Y-95885000D03*
D15*
X231140000Y-90805000D03*
D16*
X228600000Y-95885000D03*
D15*
X224790000Y-93345000D03*
D14*
X223520000Y-95885000D03*
X100330000Y-153035000D03*
D15*
X97790000Y-147955000D03*
D16*
X95250000Y-153035000D03*
D15*
X91440000Y-150495000D03*
D14*
X90170000Y-153035000D03*
X176530000Y-153035000D03*
D15*
X173990000Y-147955000D03*
D16*
X171450000Y-153035000D03*
D15*
X167640000Y-150495000D03*
D14*
X166370000Y-153035000D03*
X328930000Y-153035000D03*
D15*
X326390000Y-147955000D03*
D16*
X323850000Y-153035000D03*
D15*
X320040000Y-150495000D03*
D14*
X318770000Y-153035000D03*
X347980000Y-153035000D03*
D15*
X345440000Y-147955000D03*
D16*
X342900000Y-153035000D03*
D15*
X339090000Y-150495000D03*
D14*
X337820000Y-153035000D03*
X81280000Y-114935000D03*
D15*
X78740000Y-109855000D03*
D16*
X76200000Y-114935000D03*
D15*
X72390000Y-112395000D03*
D14*
X71120000Y-114935000D03*
X81280000Y-133985000D03*
D15*
X78740000Y-128905000D03*
D16*
X76200000Y-133985000D03*
D15*
X72390000Y-131445000D03*
D14*
X71120000Y-133985000D03*
X81280000Y-153035000D03*
D15*
X78740000Y-147955000D03*
D16*
X76200000Y-153035000D03*
D15*
X72390000Y-150495000D03*
D14*
X71120000Y-153035000D03*
X100330000Y-95885000D03*
D15*
X97790000Y-90805000D03*
D16*
X95250000Y-95885000D03*
D15*
X91440000Y-93345000D03*
D14*
X90170000Y-95885000D03*
X100330000Y-114935000D03*
D15*
X97790000Y-109855000D03*
D16*
X95250000Y-114935000D03*
D15*
X91440000Y-112395000D03*
D14*
X90170000Y-114935000D03*
X100330000Y-133985000D03*
D15*
X97790000Y-128905000D03*
D16*
X95250000Y-133985000D03*
D15*
X91440000Y-131445000D03*
D14*
X90170000Y-133985000D03*
X119380000Y-95885000D03*
D15*
X116840000Y-90805000D03*
D16*
X114300000Y-95885000D03*
D15*
X110490000Y-93345000D03*
D14*
X109220000Y-95885000D03*
X119380000Y-114935000D03*
D15*
X116840000Y-109855000D03*
D16*
X114300000Y-114935000D03*
D15*
X110490000Y-112395000D03*
D14*
X109220000Y-114935000D03*
X119380000Y-133985000D03*
D15*
X116840000Y-128905000D03*
D16*
X114300000Y-133985000D03*
D15*
X110490000Y-131445000D03*
D14*
X109220000Y-133985000D03*
X119380000Y-153035000D03*
D15*
X116840000Y-147955000D03*
D16*
X114300000Y-153035000D03*
D15*
X110490000Y-150495000D03*
D14*
X109220000Y-153035000D03*
X138430000Y-95885000D03*
D15*
X135890000Y-90805000D03*
D16*
X133350000Y-95885000D03*
D15*
X129540000Y-93345000D03*
D14*
X128270000Y-95885000D03*
X138430000Y-133985000D03*
D15*
X135890000Y-128905000D03*
D16*
X133350000Y-133985000D03*
D15*
X129540000Y-131445000D03*
D14*
X128270000Y-133985000D03*
X138430000Y-153035000D03*
D15*
X135890000Y-147955000D03*
D16*
X133350000Y-153035000D03*
D15*
X129540000Y-150495000D03*
D14*
X128270000Y-153035000D03*
X157480000Y-95885000D03*
D15*
X154940000Y-90805000D03*
D16*
X152400000Y-95885000D03*
D15*
X148590000Y-93345000D03*
D14*
X147320000Y-95885000D03*
X157480000Y-133985000D03*
D15*
X154940000Y-128905000D03*
D16*
X152400000Y-133985000D03*
D15*
X148590000Y-131445000D03*
D14*
X147320000Y-133985000D03*
X157480000Y-153035000D03*
D15*
X154940000Y-147955000D03*
D16*
X152400000Y-153035000D03*
D15*
X148590000Y-150495000D03*
D14*
X147320000Y-153035000D03*
X176530000Y-133985000D03*
D15*
X173990000Y-128905000D03*
D16*
X171450000Y-133985000D03*
D15*
X167640000Y-131445000D03*
D14*
X166370000Y-133985000D03*
X195580000Y-114935000D03*
D15*
X193040000Y-109855000D03*
D16*
X190500000Y-114935000D03*
D15*
X186690000Y-112395000D03*
D14*
X185420000Y-114935000D03*
X195580000Y-133985000D03*
D15*
X193040000Y-128905000D03*
D16*
X190500000Y-133985000D03*
D15*
X186690000Y-131445000D03*
D14*
X185420000Y-133985000D03*
X195580000Y-153035000D03*
D15*
X193040000Y-147955000D03*
D16*
X190500000Y-153035000D03*
D15*
X186690000Y-150495000D03*
D14*
X185420000Y-153035000D03*
X214630000Y-114935000D03*
D15*
X212090000Y-109855000D03*
D16*
X209550000Y-114935000D03*
D15*
X205740000Y-112395000D03*
D14*
X204470000Y-114935000D03*
X214630000Y-133985000D03*
D15*
X212090000Y-128905000D03*
D16*
X209550000Y-133985000D03*
D15*
X205740000Y-131445000D03*
D14*
X204470000Y-133985000D03*
X214630000Y-153035000D03*
D15*
X212090000Y-147955000D03*
D16*
X209550000Y-153035000D03*
D15*
X205740000Y-150495000D03*
D14*
X204470000Y-153035000D03*
X233680000Y-153035000D03*
D15*
X231140000Y-147955000D03*
D16*
X228600000Y-153035000D03*
D15*
X224790000Y-150495000D03*
D14*
X223520000Y-153035000D03*
X252730000Y-95885000D03*
D15*
X250190000Y-90805000D03*
D16*
X247650000Y-95885000D03*
D15*
X243840000Y-93345000D03*
D14*
X242570000Y-95885000D03*
X252730000Y-114935000D03*
D15*
X250190000Y-109855000D03*
D16*
X247650000Y-114935000D03*
D15*
X243840000Y-112395000D03*
D14*
X242570000Y-114935000D03*
X252730000Y-133985000D03*
D15*
X250190000Y-128905000D03*
D16*
X247650000Y-133985000D03*
D15*
X243840000Y-131445000D03*
D14*
X242570000Y-133985000D03*
X252730000Y-153035000D03*
D15*
X250190000Y-147955000D03*
D16*
X247650000Y-153035000D03*
D15*
X243840000Y-150495000D03*
D14*
X242570000Y-153035000D03*
X271780000Y-95885000D03*
D15*
X269240000Y-90805000D03*
D16*
X266700000Y-95885000D03*
D15*
X262890000Y-93345000D03*
D14*
X261620000Y-95885000D03*
X271780000Y-114935000D03*
D15*
X269240000Y-109855000D03*
D16*
X266700000Y-114935000D03*
D15*
X262890000Y-112395000D03*
D14*
X261620000Y-114935000D03*
X271780000Y-133985000D03*
D15*
X269240000Y-128905000D03*
D16*
X266700000Y-133985000D03*
D15*
X262890000Y-131445000D03*
D14*
X261620000Y-133985000D03*
X271780000Y-153035000D03*
D15*
X269240000Y-147955000D03*
D16*
X266700000Y-153035000D03*
D15*
X262890000Y-150495000D03*
D14*
X261620000Y-153035000D03*
X290830000Y-95885000D03*
D15*
X288290000Y-90805000D03*
D16*
X285750000Y-95885000D03*
D15*
X281940000Y-93345000D03*
D14*
X280670000Y-95885000D03*
X290830000Y-114935000D03*
D15*
X288290000Y-109855000D03*
D16*
X285750000Y-114935000D03*
D15*
X281940000Y-112395000D03*
D14*
X280670000Y-114935000D03*
X290830000Y-133985000D03*
D15*
X288290000Y-128905000D03*
D16*
X285750000Y-133985000D03*
D15*
X281940000Y-131445000D03*
D14*
X280670000Y-133985000D03*
X290830000Y-153035000D03*
D15*
X288290000Y-147955000D03*
D16*
X285750000Y-153035000D03*
D15*
X281940000Y-150495000D03*
D14*
X280670000Y-153035000D03*
X309880000Y-95885000D03*
D15*
X307340000Y-90805000D03*
D16*
X304800000Y-95885000D03*
D15*
X300990000Y-93345000D03*
D14*
X299720000Y-95885000D03*
X309880000Y-114935000D03*
D15*
X307340000Y-109855000D03*
D16*
X304800000Y-114935000D03*
D15*
X300990000Y-112395000D03*
D14*
X299720000Y-114935000D03*
X309880000Y-133985000D03*
D15*
X307340000Y-128905000D03*
D16*
X304800000Y-133985000D03*
D15*
X300990000Y-131445000D03*
D14*
X299720000Y-133985000D03*
X309880000Y-153035000D03*
D15*
X307340000Y-147955000D03*
D16*
X304800000Y-153035000D03*
D15*
X300990000Y-150495000D03*
D14*
X299720000Y-153035000D03*
X328930000Y-95885000D03*
D15*
X326390000Y-90805000D03*
D16*
X323850000Y-95885000D03*
D15*
X320040000Y-93345000D03*
D14*
X318770000Y-95885000D03*
X328930000Y-133985000D03*
D15*
X326390000Y-128905000D03*
D16*
X323850000Y-133985000D03*
D15*
X320040000Y-131445000D03*
D14*
X318770000Y-133985000D03*
X347980000Y-95885000D03*
D15*
X345440000Y-90805000D03*
D16*
X342900000Y-95885000D03*
D15*
X339090000Y-93345000D03*
D14*
X337820000Y-95885000D03*
X347980000Y-114935000D03*
D15*
X345440000Y-109855000D03*
D16*
X342900000Y-114935000D03*
D15*
X339090000Y-112395000D03*
D14*
X337820000Y-114935000D03*
X233680000Y-114935000D03*
D15*
X231140000Y-109855000D03*
D16*
X228600000Y-114935000D03*
D15*
X224790000Y-112395000D03*
D14*
X223520000Y-114935000D03*
X195580000Y-95885000D03*
D15*
X193040000Y-90805000D03*
D16*
X190500000Y-95885000D03*
D15*
X186690000Y-93345000D03*
D14*
X185420000Y-95885000D03*
X214630000Y-95885000D03*
D15*
X212090000Y-90805000D03*
D16*
X209550000Y-95885000D03*
D15*
X205740000Y-93345000D03*
D14*
X204470000Y-95885000D03*
X138430000Y-114935000D03*
D15*
X135890000Y-109855000D03*
D16*
X133350000Y-114935000D03*
D15*
X129540000Y-112395000D03*
D14*
X128270000Y-114935000D03*
X176530000Y-114935000D03*
D15*
X173990000Y-109855000D03*
D16*
X171450000Y-114935000D03*
D15*
X167640000Y-112395000D03*
D14*
X166370000Y-114935000D03*
X176530000Y-95885000D03*
D15*
X173990000Y-90805000D03*
D16*
X171450000Y-95885000D03*
D15*
X167640000Y-93345000D03*
D14*
X166370000Y-95885000D03*
X157480000Y-114935000D03*
D15*
X154940000Y-109855000D03*
D16*
X152400000Y-114935000D03*
D15*
X148590000Y-112395000D03*
D14*
X147320000Y-114935000D03*
X81280000Y-95885000D03*
D15*
X78740000Y-90805000D03*
D16*
X76200000Y-95885000D03*
D15*
X72390000Y-93345000D03*
D14*
X71120000Y-95885000D03*
D17*
X74930000Y-100965000D03*
D18*
X77470000Y-100965000D03*
D19*
X139175000Y-103505000D03*
X146775000Y-103505000D03*
X184675000Y-103505000D03*
X177075000Y-103505000D03*
X82025000Y-103505000D03*
X89625000Y-103505000D03*
X127525000Y-103505000D03*
X119925000Y-103505000D03*
D18*
X236220000Y-95885000D03*
X236220000Y-98425000D03*
X236220000Y-100965000D03*
X236220000Y-103505000D03*
X236220000Y-106045000D03*
X236220000Y-108585000D03*
X236220000Y-111125000D03*
X236220000Y-113665000D03*
X236220000Y-116205000D03*
X236220000Y-118745000D03*
X236220000Y-121285000D03*
X236220000Y-123825000D03*
X236220000Y-126365000D03*
X220980000Y-126365000D03*
X220980000Y-123825000D03*
X220980000Y-121285000D03*
X220980000Y-118745000D03*
X220980000Y-116205000D03*
X220980000Y-113665000D03*
X220980000Y-111125000D03*
X220980000Y-108585000D03*
X220980000Y-106045000D03*
X220980000Y-103505000D03*
X220980000Y-100965000D03*
X220980000Y-98425000D03*
X220980000Y-95885000D03*
X220980000Y-93345000D03*
X220980000Y-90805000D03*
X220980000Y-88265000D03*
D14*
X214630000Y-172085000D03*
D20*
X212090000Y-167005000D03*
D16*
X209550000Y-172085000D03*
D15*
X205740000Y-169545000D03*
D14*
X204470000Y-172085000D03*
D21*
X215050000Y-172085000D03*
X204050000Y-172085000D03*
D22*
X204330000Y-176285000D03*
D13*
X209550000Y-166185000D03*
X214550000Y-168285000D03*
D14*
X81280000Y-172085000D03*
D20*
X78740000Y-167005000D03*
D16*
X76200000Y-172085000D03*
D15*
X72390000Y-169545000D03*
D14*
X71120000Y-172085000D03*
D21*
X81700000Y-172085000D03*
X70700000Y-172085000D03*
D22*
X70980000Y-176285000D03*
D13*
X76200000Y-166185000D03*
X81200000Y-168285000D03*
D14*
X328930000Y-172085000D03*
D20*
X326390000Y-167005000D03*
D16*
X323850000Y-172085000D03*
D15*
X320040000Y-169545000D03*
D14*
X318770000Y-172085000D03*
D21*
X329350000Y-172085000D03*
X318350000Y-172085000D03*
D22*
X318630000Y-176285000D03*
D13*
X323850000Y-166185000D03*
X328850000Y-168285000D03*
D14*
X309880000Y-172085000D03*
D20*
X307340000Y-167005000D03*
D16*
X304800000Y-172085000D03*
D15*
X300990000Y-169545000D03*
D14*
X299720000Y-172085000D03*
D21*
X310300000Y-172085000D03*
X299300000Y-172085000D03*
D22*
X299580000Y-176285000D03*
D13*
X304800000Y-166185000D03*
X309800000Y-168285000D03*
D14*
X271780000Y-172085000D03*
D20*
X269240000Y-167005000D03*
D16*
X266700000Y-172085000D03*
D15*
X262890000Y-169545000D03*
D14*
X261620000Y-172085000D03*
D21*
X272200000Y-172085000D03*
X261200000Y-172085000D03*
D22*
X261480000Y-176285000D03*
D13*
X266700000Y-166185000D03*
X271700000Y-168285000D03*
D14*
X233680000Y-172085000D03*
D20*
X231140000Y-167005000D03*
D16*
X228600000Y-172085000D03*
D15*
X224790000Y-169545000D03*
D14*
X223520000Y-172085000D03*
D21*
X234100000Y-172085000D03*
X223100000Y-172085000D03*
D22*
X223380000Y-176285000D03*
D13*
X228600000Y-166185000D03*
X233600000Y-168285000D03*
D14*
X195580000Y-172085000D03*
D20*
X193040000Y-167005000D03*
D16*
X190500000Y-172085000D03*
D15*
X186690000Y-169545000D03*
D14*
X185420000Y-172085000D03*
D21*
X196000000Y-172085000D03*
X185000000Y-172085000D03*
D22*
X185280000Y-176285000D03*
D13*
X190500000Y-166185000D03*
X195500000Y-168285000D03*
D14*
X176530000Y-172085000D03*
D20*
X173990000Y-167005000D03*
D16*
X171450000Y-172085000D03*
D15*
X167640000Y-169545000D03*
D14*
X166370000Y-172085000D03*
D21*
X176950000Y-172085000D03*
X165950000Y-172085000D03*
D22*
X166230000Y-176285000D03*
D13*
X171450000Y-166185000D03*
X176450000Y-168285000D03*
D14*
X157480000Y-172085000D03*
D20*
X154940000Y-167005000D03*
D16*
X152400000Y-172085000D03*
D15*
X148590000Y-169545000D03*
D14*
X147320000Y-172085000D03*
D21*
X157900000Y-172085000D03*
X146900000Y-172085000D03*
D22*
X147180000Y-176285000D03*
D13*
X152400000Y-166185000D03*
X157400000Y-168285000D03*
D14*
X138430000Y-172085000D03*
D20*
X135890000Y-167005000D03*
D16*
X133350000Y-172085000D03*
D15*
X129540000Y-169545000D03*
D14*
X128270000Y-172085000D03*
D21*
X138850000Y-172085000D03*
X127850000Y-172085000D03*
D22*
X128130000Y-176285000D03*
D13*
X133350000Y-166185000D03*
X138350000Y-168285000D03*
D14*
X119380000Y-172085000D03*
D20*
X116840000Y-167005000D03*
D16*
X114300000Y-172085000D03*
D15*
X110490000Y-169545000D03*
D14*
X109220000Y-172085000D03*
D21*
X119800000Y-172085000D03*
X108800000Y-172085000D03*
D22*
X109080000Y-176285000D03*
D13*
X114300000Y-166185000D03*
X119300000Y-168285000D03*
D14*
X100330000Y-172085000D03*
D20*
X97790000Y-167005000D03*
D16*
X95250000Y-172085000D03*
D15*
X91440000Y-169545000D03*
D14*
X90170000Y-172085000D03*
D21*
X100750000Y-172085000D03*
X89750000Y-172085000D03*
D22*
X90030000Y-176285000D03*
D13*
X95250000Y-166185000D03*
X100250000Y-168285000D03*
D14*
X347980000Y-172085000D03*
D20*
X345440000Y-167005000D03*
D16*
X342900000Y-172085000D03*
D15*
X339090000Y-169545000D03*
D14*
X337820000Y-172085000D03*
D21*
X348400000Y-172085000D03*
X337400000Y-172085000D03*
D22*
X337680000Y-176285000D03*
D13*
X342900000Y-166185000D03*
X347900000Y-168285000D03*
D14*
X252730000Y-172085000D03*
D20*
X250190000Y-167005000D03*
D16*
X247650000Y-172085000D03*
D15*
X243840000Y-169545000D03*
D14*
X242570000Y-172085000D03*
D21*
X253150000Y-172085000D03*
X242150000Y-172085000D03*
D22*
X242430000Y-176285000D03*
D13*
X247650000Y-166185000D03*
X252650000Y-168285000D03*
D14*
X290830000Y-172085000D03*
D20*
X288290000Y-167005000D03*
D16*
X285750000Y-172085000D03*
D15*
X281940000Y-169545000D03*
D14*
X280670000Y-172085000D03*
D21*
X291250000Y-172085000D03*
X280250000Y-172085000D03*
D22*
X280530000Y-176285000D03*
D13*
X285750000Y-166185000D03*
X290750000Y-168285000D03*
M02*
