G04 #@! TF.FileFunction,Copper,L2,Bot,Signal*
%FSLAX46Y46*%
G04 Gerber Fmt 4.6, Leading zero omitted, Abs format (unit mm)*
G04 Created by KiCad (PCBNEW 4.0.7) date 04/13/18 19:54:45*
%MOMM*%
%LPD*%
G01*
G04 APERTURE LIST*
%ADD10C,0.100000*%
%ADD11R,0.800000X1.000000*%
%ADD12C,2.000000*%
%ADD13C,2.200000*%
%ADD14C,2.500000*%
%ADD15R,1.600000X1.600000*%
%ADD16C,1.600000*%
%ADD17C,3.200000*%
%ADD18R,0.950000X1.300000*%
%ADD19C,2.300000*%
%ADD20C,1.200000*%
%ADD21C,0.800000*%
%ADD22C,0.500000*%
%ADD23C,3.000000*%
%ADD24C,0.300000*%
G04 APERTURE END LIST*
D10*
D11*
X76200000Y-104510000D03*
X76200000Y-106310000D03*
D12*
X69215000Y-160020000D03*
X69215000Y-165100000D03*
X145415000Y-160020000D03*
X145415000Y-165100000D03*
X240665000Y-160020000D03*
X240665000Y-165100000D03*
X335915000Y-160020000D03*
X335915000Y-165100000D03*
X216535000Y-160020000D03*
X216535000Y-165100000D03*
X88265000Y-160020000D03*
X88265000Y-165100000D03*
X107315000Y-160020000D03*
X107315000Y-165100000D03*
X126365000Y-160020000D03*
X126365000Y-165100000D03*
X164465000Y-160020000D03*
X164465000Y-165100000D03*
X183515000Y-160020000D03*
X183515000Y-165100000D03*
X202565000Y-160020000D03*
X202565000Y-165100000D03*
X221615000Y-160020000D03*
X221615000Y-165100000D03*
X259715000Y-160020000D03*
X259715000Y-165100000D03*
X278765000Y-160020000D03*
X278765000Y-165100000D03*
X297815000Y-160020000D03*
X297815000Y-165100000D03*
X316865000Y-160020000D03*
X316865000Y-165100000D03*
D13*
X85725000Y-88900000D03*
X88265000Y-88900000D03*
X83185000Y-88900000D03*
X88265000Y-83820000D03*
X83185000Y-83820000D03*
D14*
X345440000Y-128905000D03*
X339090000Y-131445000D03*
X326390000Y-109855000D03*
X320040000Y-112395000D03*
X231140000Y-128905000D03*
X224790000Y-131445000D03*
X231140000Y-90805000D03*
X224790000Y-93345000D03*
X97790000Y-147955000D03*
X91440000Y-150495000D03*
X173990000Y-147955000D03*
X167640000Y-150495000D03*
X326390000Y-147955000D03*
X320040000Y-150495000D03*
X345440000Y-147955000D03*
X339090000Y-150495000D03*
X78740000Y-109855000D03*
X72390000Y-112395000D03*
X78740000Y-128905000D03*
X72390000Y-131445000D03*
X78740000Y-147955000D03*
X72390000Y-150495000D03*
X97790000Y-90805000D03*
X91440000Y-93345000D03*
X97790000Y-109855000D03*
X91440000Y-112395000D03*
X97790000Y-128905000D03*
X91440000Y-131445000D03*
X116840000Y-90805000D03*
X110490000Y-93345000D03*
X116840000Y-109855000D03*
X110490000Y-112395000D03*
X116840000Y-128905000D03*
X110490000Y-131445000D03*
X116840000Y-147955000D03*
X110490000Y-150495000D03*
X135890000Y-90805000D03*
X129540000Y-93345000D03*
X135890000Y-128905000D03*
X129540000Y-131445000D03*
X135890000Y-147955000D03*
X129540000Y-150495000D03*
X154940000Y-90805000D03*
X148590000Y-93345000D03*
X154940000Y-128905000D03*
X148590000Y-131445000D03*
X154940000Y-147955000D03*
X148590000Y-150495000D03*
X173990000Y-128905000D03*
X167640000Y-131445000D03*
X193040000Y-109855000D03*
X186690000Y-112395000D03*
X193040000Y-128905000D03*
X186690000Y-131445000D03*
X193040000Y-147955000D03*
X186690000Y-150495000D03*
X212090000Y-109855000D03*
X205740000Y-112395000D03*
X212090000Y-128905000D03*
X205740000Y-131445000D03*
X212090000Y-147955000D03*
X205740000Y-150495000D03*
X231140000Y-147955000D03*
X224790000Y-150495000D03*
X250190000Y-90805000D03*
X243840000Y-93345000D03*
X250190000Y-109855000D03*
X243840000Y-112395000D03*
X250190000Y-128905000D03*
X243840000Y-131445000D03*
X250190000Y-147955000D03*
X243840000Y-150495000D03*
X269240000Y-90805000D03*
X262890000Y-93345000D03*
X269240000Y-109855000D03*
X262890000Y-112395000D03*
X269240000Y-128905000D03*
X262890000Y-131445000D03*
X269240000Y-147955000D03*
X262890000Y-150495000D03*
X288290000Y-90805000D03*
X281940000Y-93345000D03*
X288290000Y-109855000D03*
X281940000Y-112395000D03*
X288290000Y-128905000D03*
X281940000Y-131445000D03*
X288290000Y-147955000D03*
X281940000Y-150495000D03*
X307340000Y-90805000D03*
X300990000Y-93345000D03*
X307340000Y-109855000D03*
X300990000Y-112395000D03*
X307340000Y-128905000D03*
X300990000Y-131445000D03*
X307340000Y-147955000D03*
X300990000Y-150495000D03*
X326390000Y-90805000D03*
X320040000Y-93345000D03*
X326390000Y-128905000D03*
X320040000Y-131445000D03*
X345440000Y-90805000D03*
X339090000Y-93345000D03*
X345440000Y-109855000D03*
X339090000Y-112395000D03*
X231140000Y-109855000D03*
X224790000Y-112395000D03*
X193040000Y-90805000D03*
X186690000Y-93345000D03*
X212090000Y-90805000D03*
X205740000Y-93345000D03*
X135890000Y-109855000D03*
X129540000Y-112395000D03*
X173990000Y-109855000D03*
X167640000Y-112395000D03*
X173990000Y-90805000D03*
X167640000Y-93345000D03*
X154940000Y-109855000D03*
X148590000Y-112395000D03*
X78740000Y-90805000D03*
X72390000Y-93345000D03*
D15*
X74930000Y-100965000D03*
D16*
X77470000Y-100965000D03*
D17*
X139175000Y-103505000D03*
X146775000Y-103505000D03*
X184675000Y-103505000D03*
X177075000Y-103505000D03*
X82025000Y-103505000D03*
X89625000Y-103505000D03*
X127525000Y-103505000D03*
X119925000Y-103505000D03*
D16*
X236220000Y-95885000D03*
X236220000Y-98425000D03*
X236220000Y-100965000D03*
X236220000Y-103505000D03*
X236220000Y-106045000D03*
X236220000Y-108585000D03*
X236220000Y-111125000D03*
X236220000Y-113665000D03*
X236220000Y-116205000D03*
X236220000Y-118745000D03*
X236220000Y-121285000D03*
X236220000Y-123825000D03*
X236220000Y-126365000D03*
X220980000Y-126365000D03*
X220980000Y-123825000D03*
X220980000Y-121285000D03*
X220980000Y-118745000D03*
X220980000Y-116205000D03*
X220980000Y-113665000D03*
X220980000Y-111125000D03*
X220980000Y-108585000D03*
X220980000Y-106045000D03*
X220980000Y-103505000D03*
X220980000Y-100965000D03*
X220980000Y-98425000D03*
X220980000Y-95885000D03*
X220980000Y-93345000D03*
X220980000Y-90805000D03*
X220980000Y-88265000D03*
D18*
X346075000Y-178940000D03*
X346075000Y-175390000D03*
X335915000Y-144275000D03*
X335915000Y-147825000D03*
X346075000Y-141475000D03*
X346075000Y-137925000D03*
X346075000Y-122425000D03*
X346075000Y-118875000D03*
X346075000Y-103375000D03*
X346075000Y-99825000D03*
X327025000Y-178940000D03*
X327025000Y-175390000D03*
X330835000Y-144275000D03*
X330835000Y-147825000D03*
X327025000Y-141475000D03*
X327025000Y-137925000D03*
X327025000Y-122425000D03*
X327025000Y-118875000D03*
X327025000Y-103375000D03*
X327025000Y-99825000D03*
X307975000Y-178940000D03*
X307975000Y-175390000D03*
X311785000Y-144275000D03*
X311785000Y-147825000D03*
X307975000Y-141475000D03*
X307975000Y-137925000D03*
X307975000Y-122425000D03*
X307975000Y-118875000D03*
X307975000Y-103375000D03*
X307975000Y-99825000D03*
X288925000Y-178940000D03*
X288925000Y-175390000D03*
X292735000Y-144275000D03*
X292735000Y-147825000D03*
X288925000Y-141475000D03*
X288925000Y-137925000D03*
X288925000Y-122425000D03*
X288925000Y-118875000D03*
X288925000Y-103375000D03*
X288925000Y-99825000D03*
X269875000Y-178940000D03*
X269875000Y-175390000D03*
X273685000Y-144275000D03*
X273685000Y-147825000D03*
X269875000Y-141475000D03*
X269875000Y-137925000D03*
X269875000Y-122425000D03*
X269875000Y-118875000D03*
X269875000Y-103375000D03*
X269875000Y-99825000D03*
X250825000Y-178940000D03*
X250825000Y-175390000D03*
X254635000Y-144275000D03*
X254635000Y-147825000D03*
X250825000Y-141475000D03*
X250825000Y-137925000D03*
X250825000Y-122425000D03*
X250825000Y-118875000D03*
X250825000Y-103375000D03*
X250825000Y-99825000D03*
X231775000Y-178940000D03*
X231775000Y-175390000D03*
X235585000Y-144275000D03*
X235585000Y-147825000D03*
X231775000Y-141475000D03*
X231775000Y-137925000D03*
X231775000Y-103375000D03*
X231775000Y-99825000D03*
X212725000Y-178940000D03*
X212725000Y-175390000D03*
X216535000Y-144275000D03*
X216535000Y-147825000D03*
X212725000Y-141475000D03*
X212725000Y-137925000D03*
X212725000Y-122425000D03*
X212725000Y-118875000D03*
X212725000Y-103375000D03*
X212725000Y-99825000D03*
X193675000Y-178940000D03*
X193675000Y-175390000D03*
X197485000Y-144275000D03*
X197485000Y-147825000D03*
X193675000Y-141475000D03*
X193675000Y-137925000D03*
X193675000Y-122425000D03*
X193675000Y-118875000D03*
X193675000Y-103375000D03*
X193675000Y-99825000D03*
X174625000Y-178940000D03*
X174625000Y-175390000D03*
X178435000Y-144275000D03*
X178435000Y-147825000D03*
X174625000Y-141475000D03*
X174625000Y-137925000D03*
X174625000Y-122425000D03*
X174625000Y-118875000D03*
X180340000Y-95755000D03*
X180340000Y-92205000D03*
X155575000Y-178940000D03*
X155575000Y-175390000D03*
X159385000Y-144275000D03*
X159385000Y-147825000D03*
X155575000Y-141475000D03*
X155575000Y-137925000D03*
X155575000Y-122425000D03*
X155575000Y-118875000D03*
X161290000Y-95755000D03*
X161290000Y-92205000D03*
X136525000Y-178940000D03*
X136525000Y-175390000D03*
X140335000Y-144275000D03*
X140335000Y-147825000D03*
X136525000Y-141475000D03*
X136525000Y-137925000D03*
X136525000Y-122425000D03*
X136525000Y-118875000D03*
X142240000Y-95755000D03*
X142240000Y-92205000D03*
X117475000Y-178940000D03*
X117475000Y-175390000D03*
X121285000Y-144275000D03*
X121285000Y-147825000D03*
X117475000Y-141475000D03*
X117475000Y-137925000D03*
X117475000Y-122425000D03*
X117475000Y-118875000D03*
X123190000Y-95755000D03*
X123190000Y-92205000D03*
X98425000Y-178940000D03*
X98425000Y-175390000D03*
X102235000Y-144275000D03*
X102235000Y-147825000D03*
X98425000Y-141475000D03*
X98425000Y-137925000D03*
X98425000Y-122425000D03*
X98425000Y-118875000D03*
X104140000Y-95755000D03*
X104140000Y-92205000D03*
X79375000Y-178940000D03*
X79375000Y-175390000D03*
X83185000Y-144275000D03*
X83185000Y-147825000D03*
X79375000Y-141475000D03*
X79375000Y-137925000D03*
X79375000Y-122425000D03*
X79375000Y-118875000D03*
X85090000Y-95755000D03*
X85090000Y-92205000D03*
X227330000Y-106175000D03*
X227330000Y-109725000D03*
D19*
X212090000Y-167005000D03*
D14*
X205740000Y-169545000D03*
D13*
X209550000Y-166185000D03*
X214550000Y-168285000D03*
D19*
X78740000Y-167005000D03*
D14*
X72390000Y-169545000D03*
D13*
X76200000Y-166185000D03*
X81200000Y-168285000D03*
D19*
X326390000Y-167005000D03*
D14*
X320040000Y-169545000D03*
D13*
X323850000Y-166185000D03*
X328850000Y-168285000D03*
D19*
X307340000Y-167005000D03*
D14*
X300990000Y-169545000D03*
D13*
X304800000Y-166185000D03*
X309800000Y-168285000D03*
D19*
X269240000Y-167005000D03*
D14*
X262890000Y-169545000D03*
D13*
X266700000Y-166185000D03*
X271700000Y-168285000D03*
D19*
X231140000Y-167005000D03*
D14*
X224790000Y-169545000D03*
D13*
X228600000Y-166185000D03*
X233600000Y-168285000D03*
D19*
X193040000Y-167005000D03*
D14*
X186690000Y-169545000D03*
D13*
X190500000Y-166185000D03*
X195500000Y-168285000D03*
D19*
X173990000Y-167005000D03*
D14*
X167640000Y-169545000D03*
D13*
X171450000Y-166185000D03*
X176450000Y-168285000D03*
D19*
X154940000Y-167005000D03*
D14*
X148590000Y-169545000D03*
D13*
X152400000Y-166185000D03*
X157400000Y-168285000D03*
D19*
X135890000Y-167005000D03*
D14*
X129540000Y-169545000D03*
D13*
X133350000Y-166185000D03*
X138350000Y-168285000D03*
D19*
X116840000Y-167005000D03*
D14*
X110490000Y-169545000D03*
D13*
X114300000Y-166185000D03*
X119300000Y-168285000D03*
D19*
X97790000Y-167005000D03*
D14*
X91440000Y-169545000D03*
D13*
X95250000Y-166185000D03*
X100250000Y-168285000D03*
D19*
X345440000Y-167005000D03*
D14*
X339090000Y-169545000D03*
D13*
X342900000Y-166185000D03*
X347900000Y-168285000D03*
D19*
X250190000Y-167005000D03*
D14*
X243840000Y-169545000D03*
D13*
X247650000Y-166185000D03*
X252650000Y-168285000D03*
D19*
X288290000Y-167005000D03*
D14*
X281940000Y-169545000D03*
D13*
X285750000Y-166185000D03*
X290750000Y-168285000D03*
D20*
X207645000Y-104775000D03*
D21*
X237236000Y-142875000D03*
X219075000Y-157480000D03*
D22*
X89625000Y-103505000D02*
X82025000Y-103505000D01*
D23*
X146775000Y-103505000D02*
X139175000Y-103505000D01*
X119925000Y-103505000D02*
X127525000Y-103505000D01*
X139175000Y-103505000D02*
X127525000Y-103505000D01*
D22*
X74930000Y-100965000D02*
X74930000Y-99695000D01*
X174535000Y-100965000D02*
X177075000Y-103505000D01*
X82550000Y-100965000D02*
X174535000Y-100965000D01*
X80645000Y-99060000D02*
X82550000Y-100965000D01*
X75565000Y-99060000D02*
X80645000Y-99060000D01*
X74930000Y-99695000D02*
X75565000Y-99060000D01*
X186690000Y-103505000D02*
X184675000Y-103505000D01*
X187960000Y-104775000D02*
X186690000Y-103505000D01*
X207645000Y-104775000D02*
X187960000Y-104775000D01*
X220980000Y-121285000D02*
X220980000Y-118745000D01*
X236220000Y-123825000D02*
X223520000Y-123825000D01*
X223520000Y-123825000D02*
X220980000Y-121285000D01*
X184675000Y-103505000D02*
X177075000Y-103505000D01*
D24*
X104648000Y-99695000D02*
X104140000Y-99695000D01*
X122682000Y-99695000D02*
X104648000Y-99695000D01*
X104521000Y-99695000D02*
X104140000Y-99314000D01*
X104648000Y-99695000D02*
X104521000Y-99695000D01*
X103632000Y-99695000D02*
X89030000Y-99695000D01*
X104140000Y-99695000D02*
X103632000Y-99695000D01*
X104140000Y-95755000D02*
X104140000Y-99314000D01*
X103632000Y-99695000D02*
X103759000Y-99695000D01*
X104140000Y-99314000D02*
X104140000Y-99695000D01*
X103759000Y-99695000D02*
X104140000Y-99314000D01*
X123698000Y-99695000D02*
X123190000Y-99695000D01*
X123571000Y-99695000D02*
X123190000Y-99314000D01*
X141732000Y-99695000D02*
X123698000Y-99695000D01*
X123698000Y-99695000D02*
X123571000Y-99695000D01*
X123190000Y-99695000D02*
X122682000Y-99695000D01*
X123190000Y-95755000D02*
X123190000Y-99314000D01*
X123190000Y-99314000D02*
X123190000Y-99695000D01*
X122682000Y-99695000D02*
X122809000Y-99695000D01*
X122809000Y-99695000D02*
X123190000Y-99314000D01*
X142748000Y-99695000D02*
X142240000Y-99695000D01*
X160782000Y-99695000D02*
X142748000Y-99695000D01*
X142748000Y-99695000D02*
X142621000Y-99695000D01*
X142621000Y-99695000D02*
X142240000Y-99314000D01*
X142240000Y-99695000D02*
X141732000Y-99695000D01*
X142240000Y-95755000D02*
X142240000Y-99314000D01*
X142240000Y-99314000D02*
X142240000Y-99695000D01*
X141732000Y-99695000D02*
X141859000Y-99695000D01*
X141859000Y-99695000D02*
X142240000Y-99314000D01*
X161798000Y-99695000D02*
X161290000Y-99695000D01*
X179832000Y-99695000D02*
X161798000Y-99695000D01*
X161798000Y-99695000D02*
X161671000Y-99695000D01*
X161671000Y-99695000D02*
X161290000Y-99314000D01*
X161290000Y-95755000D02*
X161290000Y-99314000D01*
X161290000Y-99695000D02*
X160782000Y-99695000D01*
X161290000Y-99314000D02*
X161290000Y-99695000D01*
X160782000Y-99695000D02*
X160909000Y-99695000D01*
X160909000Y-99695000D02*
X161290000Y-99314000D01*
X180848000Y-99695000D02*
X180340000Y-99695000D01*
X187325000Y-99695000D02*
X180848000Y-99695000D01*
X180848000Y-99695000D02*
X180721000Y-99695000D01*
X180721000Y-99695000D02*
X180340000Y-99314000D01*
X180340000Y-99695000D02*
X179832000Y-99695000D01*
X180340000Y-99314000D02*
X180340000Y-99695000D01*
X180340000Y-95755000D02*
X180340000Y-99314000D01*
X179832000Y-99695000D02*
X179959000Y-99695000D01*
X179959000Y-99695000D02*
X180340000Y-99314000D01*
X220980000Y-100965000D02*
X215519000Y-100965000D01*
X215519000Y-100965000D02*
X213109000Y-103375000D01*
X213109000Y-103375000D02*
X212725000Y-103375000D01*
X231775000Y-103375000D02*
X231391000Y-103375000D01*
X231391000Y-103375000D02*
X228981000Y-100965000D01*
X228981000Y-100965000D02*
X220980000Y-100965000D01*
X250825000Y-103375000D02*
X244980000Y-103375000D01*
X232915000Y-102235000D02*
X231775000Y-103375000D01*
X243840000Y-102235000D02*
X232915000Y-102235000D01*
X244980000Y-103375000D02*
X243840000Y-102235000D01*
X193675000Y-103375000D02*
X191005000Y-103375000D01*
X89030000Y-99695000D02*
X85090000Y-95755000D01*
X191005000Y-103375000D02*
X187325000Y-99695000D01*
X212725000Y-103375000D02*
X193675000Y-103375000D01*
X269875000Y-103375000D02*
X250825000Y-103375000D01*
X288925000Y-103375000D02*
X269875000Y-103375000D01*
X307975000Y-103375000D02*
X288925000Y-103375000D01*
X327025000Y-103375000D02*
X307975000Y-103375000D01*
X346075000Y-103375000D02*
X327025000Y-103375000D01*
X78740000Y-90805000D02*
X83690000Y-90805000D01*
X83690000Y-90805000D02*
X85090000Y-92205000D01*
X222123000Y-112395000D02*
X227076000Y-107442000D01*
X217170000Y-119126000D02*
X213871000Y-122425000D01*
X218567000Y-112395000D02*
X217170000Y-113792000D01*
X212725000Y-122425000D02*
X213871000Y-122425000D01*
X222123000Y-112395000D02*
X218567000Y-112395000D01*
X217170000Y-113792000D02*
X217170000Y-119126000D01*
X227076000Y-107442000D02*
X227076000Y-106429000D01*
X227076000Y-106429000D02*
X227330000Y-106175000D01*
X227330000Y-106175000D02*
X231270000Y-106175000D01*
X231270000Y-106175000D02*
X236220000Y-111125000D01*
X250825000Y-122425000D02*
X247520000Y-122425000D01*
X240030000Y-111125000D02*
X236220000Y-111125000D01*
X240665000Y-111760000D02*
X240030000Y-111125000D01*
X240665000Y-115570000D02*
X240665000Y-111760000D01*
X247520000Y-122425000D02*
X240665000Y-115570000D01*
X193675000Y-122425000D02*
X212725000Y-122425000D01*
X174625000Y-122425000D02*
X193675000Y-122425000D01*
X155575000Y-122425000D02*
X174625000Y-122425000D01*
X136525000Y-122425000D02*
X155575000Y-122425000D01*
X117475000Y-122425000D02*
X136525000Y-122425000D01*
X98425000Y-122425000D02*
X117475000Y-122425000D01*
X79375000Y-122425000D02*
X98425000Y-122425000D01*
X269875000Y-122425000D02*
X250825000Y-122425000D01*
X288925000Y-122425000D02*
X269875000Y-122425000D01*
X307975000Y-122425000D02*
X288925000Y-122425000D01*
X327025000Y-122425000D02*
X307975000Y-122425000D01*
X346075000Y-122425000D02*
X327025000Y-122425000D01*
X79375000Y-118875000D02*
X79375000Y-110490000D01*
X79375000Y-110490000D02*
X78740000Y-109855000D01*
X239522000Y-141475000D02*
X239014000Y-141475000D01*
X250825000Y-141475000D02*
X239522000Y-141475000D01*
X239522000Y-141475000D02*
X239265000Y-141475000D01*
X239265000Y-141475000D02*
X239014000Y-141224000D01*
X238760000Y-141475000D02*
X231775000Y-141475000D01*
X239014000Y-141475000D02*
X238760000Y-141475000D01*
X239014000Y-117729000D02*
X239014000Y-141224000D01*
X239014000Y-141224000D02*
X239014000Y-141475000D01*
X238760000Y-141475000D02*
X238763000Y-141475000D01*
X238763000Y-141475000D02*
X239014000Y-141224000D01*
X236220000Y-116205000D02*
X237490000Y-116205000D01*
X237490000Y-116205000D02*
X239014000Y-117729000D01*
X231775000Y-141475000D02*
X212725000Y-141475000D01*
X193675000Y-141475000D02*
X212725000Y-141475000D01*
X174625000Y-141475000D02*
X193675000Y-141475000D01*
X155575000Y-141475000D02*
X174625000Y-141475000D01*
X136525000Y-141475000D02*
X155575000Y-141475000D01*
X117475000Y-141475000D02*
X136525000Y-141475000D01*
X98425000Y-141475000D02*
X117475000Y-141475000D01*
X79375000Y-141475000D02*
X98425000Y-141475000D01*
X269875000Y-141475000D02*
X250825000Y-141475000D01*
X288925000Y-141475000D02*
X269875000Y-141475000D01*
X307975000Y-141475000D02*
X288925000Y-141475000D01*
X327025000Y-141475000D02*
X307975000Y-141475000D01*
X346075000Y-141475000D02*
X327025000Y-141475000D01*
X79375000Y-137925000D02*
X79375000Y-129540000D01*
X79375000Y-129540000D02*
X78740000Y-128905000D01*
X235836000Y-144275000D02*
X235585000Y-144275000D01*
X237236000Y-142875000D02*
X235836000Y-144275000D01*
X235585000Y-144275000D02*
X216535000Y-144275000D01*
X254635000Y-144275000D02*
X235585000Y-144275000D01*
X197485000Y-144275000D02*
X216535000Y-144275000D01*
X178435000Y-144275000D02*
X197485000Y-144275000D01*
X159385000Y-144275000D02*
X178435000Y-144275000D01*
X140335000Y-144275000D02*
X159385000Y-144275000D01*
X121285000Y-144275000D02*
X140335000Y-144275000D01*
X102235000Y-144275000D02*
X121285000Y-144275000D01*
X83185000Y-144275000D02*
X102235000Y-144275000D01*
X273685000Y-144275000D02*
X254635000Y-144275000D01*
X292735000Y-144275000D02*
X273685000Y-144275000D01*
X311785000Y-144275000D02*
X292735000Y-144275000D01*
X330835000Y-144275000D02*
X311785000Y-144275000D01*
X335915000Y-144275000D02*
X330835000Y-144275000D01*
X78740000Y-147955000D02*
X83055000Y-147955000D01*
X83055000Y-147955000D02*
X83185000Y-147825000D01*
X216535000Y-160020000D02*
X210820000Y-160020000D01*
X215773000Y-164338000D02*
X216535000Y-165100000D01*
X210566000Y-164338000D02*
X215773000Y-164338000D01*
X209550000Y-163322000D02*
X210566000Y-164338000D01*
X209550000Y-161290000D02*
X209550000Y-163322000D01*
X210820000Y-160020000D02*
X209550000Y-161290000D01*
X216535000Y-160020000D02*
X219075000Y-157480000D01*
X216916000Y-178562000D02*
X217294000Y-178940000D01*
X216916000Y-178562000D02*
X216538000Y-178940000D01*
X216535000Y-165100000D02*
X216535000Y-165735000D01*
X216535000Y-165735000D02*
X216916000Y-166116000D01*
X216916000Y-166116000D02*
X216916000Y-178562000D01*
X216916000Y-178562000D02*
X216916000Y-178940000D01*
X231775000Y-178940000D02*
X217294000Y-178940000D01*
X217294000Y-178940000D02*
X216916000Y-178940000D01*
X216916000Y-178940000D02*
X216538000Y-178940000D01*
X216538000Y-178940000D02*
X212725000Y-178940000D01*
X193675000Y-178940000D02*
X212725000Y-178940000D01*
X174625000Y-178940000D02*
X193675000Y-178940000D01*
X155575000Y-178940000D02*
X174625000Y-178940000D01*
X136525000Y-178940000D02*
X155575000Y-178940000D01*
X117475000Y-178940000D02*
X136525000Y-178940000D01*
X98425000Y-178940000D02*
X117475000Y-178940000D01*
X79375000Y-178940000D02*
X98425000Y-178940000D01*
X250825000Y-178940000D02*
X231775000Y-178940000D01*
X269875000Y-178940000D02*
X250825000Y-178940000D01*
X288925000Y-178940000D02*
X269875000Y-178940000D01*
X307975000Y-178940000D02*
X288925000Y-178940000D01*
X327025000Y-178940000D02*
X307975000Y-178940000D01*
X346075000Y-178940000D02*
X327025000Y-178940000D01*
X81200000Y-168285000D02*
X80020000Y-168285000D01*
X80020000Y-168285000D02*
X78740000Y-167005000D01*
X79375000Y-175390000D02*
X79375000Y-170110000D01*
X79375000Y-170110000D02*
X81200000Y-168285000D01*
X97790000Y-90805000D02*
X102740000Y-90805000D01*
X102740000Y-90805000D02*
X104140000Y-92205000D01*
X98425000Y-118875000D02*
X98425000Y-110490000D01*
X98425000Y-110490000D02*
X97790000Y-109855000D01*
X98425000Y-137925000D02*
X98425000Y-129540000D01*
X98425000Y-129540000D02*
X97790000Y-128905000D01*
X97790000Y-147955000D02*
X102105000Y-147955000D01*
X102105000Y-147955000D02*
X102235000Y-147825000D01*
X100250000Y-168285000D02*
X99070000Y-168285000D01*
X99070000Y-168285000D02*
X97790000Y-167005000D01*
X98425000Y-175390000D02*
X98425000Y-170110000D01*
X98425000Y-170110000D02*
X100250000Y-168285000D01*
X116840000Y-90805000D02*
X121790000Y-90805000D01*
X121790000Y-90805000D02*
X123190000Y-92205000D01*
X117475000Y-118875000D02*
X117475000Y-110490000D01*
X117475000Y-110490000D02*
X116840000Y-109855000D01*
X117475000Y-137925000D02*
X117475000Y-129540000D01*
X117475000Y-129540000D02*
X116840000Y-128905000D01*
X116840000Y-147955000D02*
X121155000Y-147955000D01*
X121155000Y-147955000D02*
X121285000Y-147825000D01*
X119300000Y-168285000D02*
X118120000Y-168285000D01*
X118120000Y-168285000D02*
X116840000Y-167005000D01*
X117475000Y-175390000D02*
X117475000Y-170110000D01*
X117475000Y-170110000D02*
X119300000Y-168285000D01*
X135890000Y-90805000D02*
X140840000Y-90805000D01*
X140840000Y-90805000D02*
X142240000Y-92205000D01*
X136525000Y-118875000D02*
X136525000Y-110490000D01*
X136525000Y-110490000D02*
X135890000Y-109855000D01*
X136525000Y-137925000D02*
X136525000Y-129540000D01*
X136525000Y-129540000D02*
X135890000Y-128905000D01*
X135890000Y-147955000D02*
X140205000Y-147955000D01*
X140205000Y-147955000D02*
X140335000Y-147825000D01*
X138350000Y-168285000D02*
X137170000Y-168285000D01*
X137170000Y-168285000D02*
X135890000Y-167005000D01*
X136525000Y-175390000D02*
X136525000Y-170110000D01*
X136525000Y-170110000D02*
X138350000Y-168285000D01*
X154940000Y-90805000D02*
X159890000Y-90805000D01*
X159890000Y-90805000D02*
X161290000Y-92205000D01*
X155575000Y-118875000D02*
X155575000Y-110490000D01*
X155575000Y-110490000D02*
X154940000Y-109855000D01*
X155575000Y-137925000D02*
X155575000Y-129540000D01*
X155575000Y-129540000D02*
X154940000Y-128905000D01*
X154940000Y-147955000D02*
X159255000Y-147955000D01*
X159255000Y-147955000D02*
X159385000Y-147825000D01*
X157400000Y-168285000D02*
X156220000Y-168285000D01*
X156220000Y-168285000D02*
X154940000Y-167005000D01*
X155575000Y-175390000D02*
X155575000Y-170110000D01*
X155575000Y-170110000D02*
X157400000Y-168285000D01*
X173990000Y-90805000D02*
X178940000Y-90805000D01*
X178940000Y-90805000D02*
X180340000Y-92205000D01*
X174625000Y-118875000D02*
X174625000Y-110490000D01*
X174625000Y-110490000D02*
X173990000Y-109855000D01*
X174625000Y-137925000D02*
X174625000Y-129540000D01*
X174625000Y-129540000D02*
X173990000Y-128905000D01*
X173990000Y-147955000D02*
X178305000Y-147955000D01*
X178305000Y-147955000D02*
X178435000Y-147825000D01*
X176450000Y-168285000D02*
X175270000Y-168285000D01*
X175270000Y-168285000D02*
X173990000Y-167005000D01*
X174625000Y-175390000D02*
X174625000Y-170110000D01*
X174625000Y-170110000D02*
X176450000Y-168285000D01*
X193675000Y-99825000D02*
X193675000Y-91440000D01*
X193675000Y-91440000D02*
X193040000Y-90805000D01*
X193675000Y-118875000D02*
X193675000Y-110490000D01*
X193675000Y-110490000D02*
X193040000Y-109855000D01*
X193675000Y-137925000D02*
X193675000Y-129540000D01*
X193675000Y-129540000D02*
X193040000Y-128905000D01*
X193040000Y-147955000D02*
X197355000Y-147955000D01*
X197355000Y-147955000D02*
X197485000Y-147825000D01*
X195500000Y-168285000D02*
X194320000Y-168285000D01*
X194320000Y-168285000D02*
X193040000Y-167005000D01*
X193675000Y-175390000D02*
X193675000Y-170110000D01*
X193675000Y-170110000D02*
X195500000Y-168285000D01*
X212725000Y-99825000D02*
X212725000Y-91440000D01*
X212725000Y-91440000D02*
X212090000Y-90805000D01*
X212725000Y-118875000D02*
X212725000Y-110490000D01*
X212725000Y-110490000D02*
X212090000Y-109855000D01*
X212725000Y-137925000D02*
X212725000Y-129540000D01*
X212725000Y-129540000D02*
X212090000Y-128905000D01*
X212090000Y-147955000D02*
X216405000Y-147955000D01*
X216405000Y-147955000D02*
X216535000Y-147825000D01*
X214550000Y-168285000D02*
X213370000Y-168285000D01*
X213370000Y-168285000D02*
X212090000Y-167005000D01*
X212725000Y-175390000D02*
X212725000Y-170110000D01*
X212725000Y-170110000D02*
X214550000Y-168285000D01*
X231775000Y-99825000D02*
X231775000Y-91440000D01*
X231775000Y-91440000D02*
X231140000Y-90805000D01*
X231140000Y-109855000D02*
X227460000Y-109855000D01*
X227460000Y-109855000D02*
X227330000Y-109725000D01*
X231775000Y-137925000D02*
X231775000Y-129540000D01*
X231775000Y-129540000D02*
X231140000Y-128905000D01*
X231140000Y-147955000D02*
X235455000Y-147955000D01*
X235455000Y-147955000D02*
X235585000Y-147825000D01*
X233600000Y-168285000D02*
X232420000Y-168285000D01*
X232420000Y-168285000D02*
X231140000Y-167005000D01*
X231775000Y-175390000D02*
X231775000Y-170110000D01*
X231775000Y-170110000D02*
X233600000Y-168285000D01*
X250825000Y-99825000D02*
X250825000Y-91440000D01*
X250825000Y-91440000D02*
X250190000Y-90805000D01*
X250825000Y-118875000D02*
X250825000Y-110490000D01*
X250825000Y-110490000D02*
X250190000Y-109855000D01*
X250825000Y-137925000D02*
X250825000Y-129540000D01*
X250825000Y-129540000D02*
X250190000Y-128905000D01*
X250190000Y-147955000D02*
X254505000Y-147955000D01*
X254505000Y-147955000D02*
X254635000Y-147825000D01*
X252650000Y-168285000D02*
X251470000Y-168285000D01*
X251470000Y-168285000D02*
X250190000Y-167005000D01*
X250825000Y-175390000D02*
X250825000Y-170110000D01*
X250825000Y-170110000D02*
X252650000Y-168285000D01*
X269875000Y-99825000D02*
X269875000Y-91440000D01*
X269875000Y-91440000D02*
X269240000Y-90805000D01*
X269875000Y-118875000D02*
X269875000Y-110490000D01*
X269875000Y-110490000D02*
X269240000Y-109855000D01*
X269875000Y-137925000D02*
X269875000Y-129540000D01*
X269875000Y-129540000D02*
X269240000Y-128905000D01*
X269240000Y-147955000D02*
X273555000Y-147955000D01*
X273555000Y-147955000D02*
X273685000Y-147825000D01*
X271700000Y-168285000D02*
X270520000Y-168285000D01*
X270520000Y-168285000D02*
X269240000Y-167005000D01*
X269875000Y-175390000D02*
X269875000Y-170110000D01*
X269875000Y-170110000D02*
X271700000Y-168285000D01*
X288925000Y-99825000D02*
X288925000Y-91440000D01*
X288925000Y-91440000D02*
X288290000Y-90805000D01*
X288925000Y-118875000D02*
X288925000Y-110490000D01*
X288925000Y-110490000D02*
X288290000Y-109855000D01*
X288925000Y-137925000D02*
X288925000Y-129540000D01*
X288925000Y-129540000D02*
X288290000Y-128905000D01*
X288290000Y-147955000D02*
X292605000Y-147955000D01*
X292605000Y-147955000D02*
X292735000Y-147825000D01*
X290750000Y-168285000D02*
X289570000Y-168285000D01*
X289570000Y-168285000D02*
X288290000Y-167005000D01*
X288925000Y-175390000D02*
X288925000Y-170110000D01*
X288925000Y-170110000D02*
X290750000Y-168285000D01*
X307975000Y-99825000D02*
X307975000Y-91440000D01*
X307975000Y-91440000D02*
X307340000Y-90805000D01*
X307975000Y-118875000D02*
X307975000Y-110490000D01*
X307975000Y-110490000D02*
X307340000Y-109855000D01*
X307975000Y-137925000D02*
X307975000Y-129540000D01*
X307975000Y-129540000D02*
X307340000Y-128905000D01*
X307340000Y-147955000D02*
X311655000Y-147955000D01*
X311655000Y-147955000D02*
X311785000Y-147825000D01*
X309800000Y-168285000D02*
X308620000Y-168285000D01*
X308620000Y-168285000D02*
X307340000Y-167005000D01*
X307975000Y-175390000D02*
X307975000Y-170110000D01*
X307975000Y-170110000D02*
X309800000Y-168285000D01*
X327025000Y-99825000D02*
X327025000Y-91440000D01*
X327025000Y-91440000D02*
X326390000Y-90805000D01*
X327025000Y-118875000D02*
X327025000Y-110490000D01*
X327025000Y-110490000D02*
X326390000Y-109855000D01*
X327025000Y-137925000D02*
X327025000Y-129540000D01*
X327025000Y-129540000D02*
X326390000Y-128905000D01*
X326390000Y-147955000D02*
X330705000Y-147955000D01*
X330705000Y-147955000D02*
X330835000Y-147825000D01*
X328850000Y-168285000D02*
X327670000Y-168285000D01*
X327670000Y-168285000D02*
X326390000Y-167005000D01*
X327025000Y-175390000D02*
X327025000Y-170110000D01*
X327025000Y-170110000D02*
X328850000Y-168285000D01*
X346075000Y-99825000D02*
X346075000Y-91440000D01*
X346075000Y-91440000D02*
X345440000Y-90805000D01*
X346075000Y-118875000D02*
X346075000Y-110490000D01*
X346075000Y-110490000D02*
X345440000Y-109855000D01*
X346075000Y-137925000D02*
X346075000Y-129540000D01*
X346075000Y-129540000D02*
X345440000Y-128905000D01*
X345440000Y-147955000D02*
X336045000Y-147955000D01*
X336045000Y-147955000D02*
X335915000Y-147825000D01*
X347900000Y-168285000D02*
X346720000Y-168285000D01*
X346720000Y-168285000D02*
X345440000Y-167005000D01*
X346075000Y-175390000D02*
X346075000Y-170110000D01*
X346075000Y-170110000D02*
X347900000Y-168285000D01*
X69215000Y-165100000D02*
X69215000Y-166370000D01*
X69215000Y-166370000D02*
X72390000Y-169545000D01*
X72390000Y-169545000D02*
X72840000Y-169545000D01*
X72840000Y-169545000D02*
X76200000Y-166185000D01*
X72390000Y-131445000D02*
X72517000Y-131445000D01*
X72517000Y-131445000D02*
X79502000Y-124460000D01*
X79502000Y-124460000D02*
X214122000Y-124460000D01*
X219075000Y-113665000D02*
X220980000Y-113665000D01*
X214122000Y-124460000D02*
X218186000Y-120396000D01*
X218186000Y-120396000D02*
X218186000Y-114554000D01*
X218186000Y-114554000D02*
X219075000Y-113665000D01*
X69215000Y-160020000D02*
X69850000Y-160020000D01*
X69850000Y-160020000D02*
X72390000Y-157480000D01*
X72390000Y-157480000D02*
X72390000Y-150495000D01*
X88265000Y-165100000D02*
X88265000Y-166370000D01*
X88265000Y-166370000D02*
X91440000Y-169545000D01*
X91440000Y-169545000D02*
X91890000Y-169545000D01*
X91890000Y-169545000D02*
X95250000Y-166185000D01*
X91440000Y-131445000D02*
X91567000Y-131445000D01*
X91567000Y-131445000D02*
X97028000Y-125984000D01*
X97028000Y-125984000D02*
X215138000Y-125984000D01*
X215138000Y-125984000D02*
X219202000Y-121920000D01*
X219202000Y-121920000D02*
X219202000Y-116586000D01*
X219583000Y-116205000D02*
X220980000Y-116205000D01*
X219202000Y-116586000D02*
X219583000Y-116205000D01*
X88265000Y-160020000D02*
X88900000Y-160020000D01*
X88900000Y-160020000D02*
X91440000Y-157480000D01*
X91440000Y-157480000D02*
X91440000Y-150495000D01*
X107315000Y-165100000D02*
X107315000Y-166370000D01*
X107315000Y-166370000D02*
X110490000Y-169545000D01*
X110490000Y-169545000D02*
X110940000Y-169545000D01*
X110940000Y-169545000D02*
X114300000Y-166185000D01*
X110490000Y-112395000D02*
X110490000Y-116840000D01*
X110490000Y-116840000D02*
X114300000Y-120650000D01*
X114300000Y-120650000D02*
X213360000Y-120650000D01*
X213360000Y-120650000D02*
X216154000Y-117856000D01*
X216154000Y-117856000D02*
X216154000Y-113030000D01*
X216154000Y-113030000D02*
X218059000Y-111125000D01*
X218059000Y-111125000D02*
X220980000Y-111125000D01*
X107315000Y-160020000D02*
X107950000Y-160020000D01*
X107950000Y-160020000D02*
X110490000Y-157480000D01*
X110490000Y-157480000D02*
X110490000Y-150495000D01*
X126365000Y-165100000D02*
X126365000Y-166370000D01*
X126365000Y-166370000D02*
X129540000Y-169545000D01*
X129540000Y-169545000D02*
X129990000Y-169545000D01*
X129990000Y-169545000D02*
X133350000Y-166185000D01*
X129540000Y-112395000D02*
X129667000Y-112395000D01*
X129667000Y-112395000D02*
X135128000Y-106934000D01*
X135128000Y-106934000D02*
X213868000Y-106934000D01*
X213868000Y-106934000D02*
X214757000Y-106045000D01*
X214757000Y-106045000D02*
X220980000Y-106045000D01*
X126365000Y-160020000D02*
X127000000Y-160020000D01*
X127000000Y-160020000D02*
X129540000Y-157480000D01*
X129540000Y-157480000D02*
X129540000Y-150495000D01*
X145415000Y-165100000D02*
X145415000Y-166370000D01*
X145415000Y-166370000D02*
X148590000Y-169545000D01*
X148590000Y-169545000D02*
X149040000Y-169545000D01*
X149040000Y-169545000D02*
X152400000Y-166185000D01*
X148590000Y-112395000D02*
X148717000Y-112395000D01*
X148717000Y-112395000D02*
X153416000Y-107696000D01*
X216027000Y-108585000D02*
X220980000Y-108585000D01*
X215138000Y-107696000D02*
X216027000Y-108585000D01*
X153416000Y-107696000D02*
X215138000Y-107696000D01*
X145415000Y-160020000D02*
X146050000Y-160020000D01*
X146050000Y-160020000D02*
X148590000Y-157480000D01*
X148590000Y-157480000D02*
X148590000Y-150495000D01*
X164465000Y-165100000D02*
X164465000Y-166370000D01*
X164465000Y-166370000D02*
X167640000Y-169545000D01*
X167640000Y-169545000D02*
X168090000Y-169545000D01*
X168090000Y-169545000D02*
X171450000Y-166185000D01*
X167640000Y-93345000D02*
X178181000Y-93345000D01*
X216789000Y-98425000D02*
X220980000Y-98425000D01*
X213614000Y-101600000D02*
X216789000Y-98425000D01*
X191516000Y-101600000D02*
X213614000Y-101600000D01*
X188468000Y-98552000D02*
X191516000Y-101600000D01*
X185166000Y-98552000D02*
X188468000Y-98552000D01*
X183134000Y-96520000D02*
X185166000Y-98552000D01*
X183134000Y-95504000D02*
X183134000Y-96520000D01*
X181610000Y-93980000D02*
X183134000Y-95504000D01*
X178816000Y-93980000D02*
X181610000Y-93980000D01*
X178181000Y-93345000D02*
X178816000Y-93980000D01*
X164465000Y-160020000D02*
X165100000Y-160020000D01*
X165100000Y-160020000D02*
X167640000Y-157480000D01*
X167640000Y-157480000D02*
X167640000Y-150495000D01*
X183515000Y-165100000D02*
X183515000Y-166370000D01*
X183515000Y-166370000D02*
X186690000Y-169545000D01*
X186690000Y-169545000D02*
X187140000Y-169545000D01*
X187140000Y-169545000D02*
X190500000Y-166185000D01*
X191135000Y-88265000D02*
X220980000Y-88265000D01*
X186690000Y-92710000D02*
X191135000Y-88265000D01*
X186690000Y-93345000D02*
X186690000Y-92710000D01*
X183515000Y-160020000D02*
X184150000Y-160020000D01*
X184150000Y-160020000D02*
X186690000Y-157480000D01*
X186690000Y-157480000D02*
X186690000Y-150495000D01*
X202565000Y-165100000D02*
X202565000Y-166370000D01*
X202565000Y-166370000D02*
X205740000Y-169545000D01*
X205740000Y-169545000D02*
X206190000Y-169545000D01*
X206190000Y-169545000D02*
X209550000Y-166185000D01*
X202565000Y-160020000D02*
X203200000Y-160020000D01*
X203200000Y-160020000D02*
X205740000Y-157480000D01*
X205740000Y-157480000D02*
X205740000Y-150495000D01*
X221615000Y-165100000D02*
X221615000Y-166370000D01*
X221615000Y-166370000D02*
X224790000Y-169545000D01*
X224790000Y-169545000D02*
X225240000Y-169545000D01*
X225240000Y-169545000D02*
X228600000Y-166185000D01*
X221615000Y-160020000D02*
X222250000Y-160020000D01*
X222250000Y-160020000D02*
X224790000Y-157480000D01*
X224790000Y-157480000D02*
X224790000Y-150495000D01*
X240665000Y-165100000D02*
X240665000Y-166370000D01*
X240665000Y-166370000D02*
X243840000Y-169545000D01*
X243840000Y-169545000D02*
X244290000Y-169545000D01*
X244290000Y-169545000D02*
X247650000Y-166185000D01*
X243840000Y-93345000D02*
X241300000Y-93345000D01*
X241300000Y-93345000D02*
X236220000Y-98425000D01*
X240665000Y-160020000D02*
X241300000Y-160020000D01*
X241300000Y-160020000D02*
X243840000Y-157480000D01*
X243840000Y-157480000D02*
X243840000Y-150495000D01*
X259715000Y-165100000D02*
X259715000Y-166370000D01*
X259715000Y-166370000D02*
X262890000Y-169545000D01*
X262890000Y-169545000D02*
X263340000Y-169545000D01*
X263340000Y-169545000D02*
X266700000Y-166185000D01*
X262890000Y-93345000D02*
X258445000Y-93345000D01*
X243205000Y-88900000D02*
X236220000Y-95885000D01*
X254000000Y-88900000D02*
X243205000Y-88900000D01*
X258445000Y-93345000D02*
X254000000Y-88900000D01*
X259715000Y-160020000D02*
X260350000Y-160020000D01*
X260350000Y-160020000D02*
X262890000Y-157480000D01*
X262890000Y-157480000D02*
X262890000Y-150495000D01*
X278765000Y-165100000D02*
X278765000Y-166370000D01*
X278765000Y-166370000D02*
X281940000Y-169545000D01*
X281940000Y-169545000D02*
X282390000Y-169545000D01*
X282390000Y-169545000D02*
X285750000Y-166185000D01*
X236220000Y-100965000D02*
X245745000Y-100965000D01*
X280035000Y-93345000D02*
X281940000Y-93345000D01*
X271780000Y-101600000D02*
X280035000Y-93345000D01*
X246380000Y-101600000D02*
X271780000Y-101600000D01*
X245745000Y-100965000D02*
X246380000Y-101600000D01*
X278765000Y-160020000D02*
X279400000Y-160020000D01*
X279400000Y-160020000D02*
X281940000Y-157480000D01*
X281940000Y-157480000D02*
X281940000Y-150495000D01*
X297815000Y-165100000D02*
X297815000Y-166370000D01*
X297815000Y-166370000D02*
X300990000Y-169545000D01*
X300990000Y-169545000D02*
X301440000Y-169545000D01*
X301440000Y-169545000D02*
X304800000Y-166185000D01*
X300990000Y-112395000D02*
X295910000Y-107315000D01*
X238760000Y-108585000D02*
X236220000Y-108585000D01*
X240030000Y-107315000D02*
X238760000Y-108585000D01*
X295910000Y-107315000D02*
X240030000Y-107315000D01*
X297815000Y-160020000D02*
X298450000Y-160020000D01*
X298450000Y-160020000D02*
X300990000Y-157480000D01*
X300990000Y-157480000D02*
X300990000Y-150495000D01*
X316865000Y-165100000D02*
X316865000Y-166370000D01*
X316865000Y-166370000D02*
X320040000Y-169545000D01*
X320040000Y-169545000D02*
X320490000Y-169545000D01*
X320490000Y-169545000D02*
X323850000Y-166185000D01*
X320040000Y-112395000D02*
X313690000Y-106045000D01*
X313690000Y-106045000D02*
X236220000Y-106045000D01*
X316865000Y-160020000D02*
X317500000Y-160020000D01*
X317500000Y-160020000D02*
X320040000Y-157480000D01*
X320040000Y-157480000D02*
X320040000Y-150495000D01*
X339090000Y-169545000D02*
X339540000Y-169545000D01*
X339540000Y-169545000D02*
X342900000Y-166185000D01*
X335915000Y-165100000D02*
X335915000Y-166370000D01*
X335915000Y-166370000D02*
X339090000Y-169545000D01*
X339090000Y-112395000D02*
X331470000Y-104775000D01*
X241935000Y-103505000D02*
X236220000Y-103505000D01*
X243205000Y-104775000D02*
X241935000Y-103505000D01*
X331470000Y-104775000D02*
X243205000Y-104775000D01*
X335915000Y-160020000D02*
X336550000Y-160020000D01*
X336550000Y-160020000D02*
X339090000Y-157480000D01*
X339090000Y-157480000D02*
X339090000Y-150495000D01*
X77470000Y-100965000D02*
X77470000Y-103240000D01*
X77470000Y-103240000D02*
X76200000Y-104510000D01*
X76200000Y-106310000D02*
X76338000Y-106172000D01*
X76338000Y-106172000D02*
X212344000Y-106172000D01*
X212344000Y-106172000D02*
X215011000Y-103505000D01*
X215011000Y-103505000D02*
X220980000Y-103505000D01*
M02*
