M48
;DRILL file {KiCad 4.0.7} date 04/13/18 19:54:58
;FORMAT={3:3/ absolute / metric / suppress leading zeros}
FMAT,2
METRIC,TZ
T1C1.000
T2C1.700
T3C1.900
T4C4.000
%
G90
G05
M71
T1
X70980Y-176285
X90030Y-176285
X109080Y-176285
X128130Y-176285
X147180Y-176285
X166230Y-176285
X185280Y-176285
X204330Y-176285
X223380Y-176285
X242430Y-176285
X261480Y-176285
X280530Y-176285
X299580Y-176285
X318630Y-176285
X337680Y-176285
T2
X71120Y-95885
X71120Y-114935
X71120Y-133985
X71120Y-153035
X71120Y-172085
X81280Y-95885
X81280Y-114935
X81280Y-133985
X81280Y-153035
X81280Y-172085
X90170Y-95885
X90170Y-114935
X90170Y-133985
X90170Y-153035
X90170Y-172085
X100330Y-95885
X100330Y-114935
X100330Y-133985
X100330Y-153035
X100330Y-172085
X109220Y-95885
X109220Y-114935
X109220Y-133985
X109220Y-153035
X109220Y-172085
X119380Y-95885
X119380Y-114935
X119380Y-133985
X119380Y-153035
X119380Y-172085
X128270Y-95885
X128270Y-114935
X128270Y-133985
X128270Y-153035
X128270Y-172085
X138430Y-95885
X138430Y-114935
X138430Y-133985
X138430Y-153035
X138430Y-172085
X147320Y-95885
X147320Y-114935
X147320Y-133985
X147320Y-153035
X147320Y-172085
X157480Y-95885
X157480Y-114935
X157480Y-133985
X157480Y-153035
X157480Y-172085
X166370Y-95885
X166370Y-114935
X166370Y-133985
X166370Y-153035
X166370Y-172085
X176530Y-95885
X176530Y-114935
X176530Y-133985
X176530Y-153035
X176530Y-172085
X185420Y-95885
X185420Y-114935
X185420Y-133985
X185420Y-153035
X185420Y-172085
X195580Y-95885
X195580Y-114935
X195580Y-133985
X195580Y-153035
X195580Y-172085
X204470Y-95885
X204470Y-114935
X204470Y-133985
X204470Y-153035
X204470Y-172085
X214630Y-95885
X214630Y-114935
X214630Y-133985
X214630Y-153035
X214630Y-172085
X223520Y-95885
X223520Y-114935
X223520Y-133985
X223520Y-153035
X223520Y-172085
X233680Y-95885
X233680Y-114935
X233680Y-133985
X233680Y-153035
X233680Y-172085
X242570Y-95885
X242570Y-114935
X242570Y-133985
X242570Y-153035
X242570Y-172085
X252730Y-95885
X252730Y-114935
X252730Y-133985
X252730Y-153035
X252730Y-172085
X261620Y-95885
X261620Y-114935
X261620Y-133985
X261620Y-153035
X261620Y-172085
X271780Y-95885
X271780Y-114935
X271780Y-133985
X271780Y-153035
X271780Y-172085
X280670Y-95885
X280670Y-114935
X280670Y-133985
X280670Y-153035
X280670Y-172085
X290830Y-95885
X290830Y-114935
X290830Y-133985
X290830Y-153035
X290830Y-172085
X299720Y-95885
X299720Y-114935
X299720Y-133985
X299720Y-153035
X299720Y-172085
X309880Y-95885
X309880Y-114935
X309880Y-133985
X309880Y-153035
X309880Y-172085
X318770Y-95885
X318770Y-114935
X318770Y-133985
X318770Y-153035
X318770Y-172085
X328930Y-95885
X328930Y-114935
X328930Y-133985
X328930Y-153035
X328930Y-172085
X337820Y-95885
X337820Y-114935
X337820Y-133985
X337820Y-153035
X337820Y-172085
X347980Y-95885
X347980Y-114935
X347980Y-133985
X347980Y-153035
X347980Y-172085
T3
X70700Y-172085
X81700Y-172085
X89750Y-172085
X100750Y-172085
X108800Y-172085
X119800Y-172085
X127850Y-172085
X138850Y-172085
X146900Y-172085
X157900Y-172085
X165950Y-172085
X176950Y-172085
X185000Y-172085
X196000Y-172085
X204050Y-172085
X215050Y-172085
X223100Y-172085
X234100Y-172085
X242150Y-172085
X253150Y-172085
X261200Y-172085
X272200Y-172085
X280250Y-172085
X291250Y-172085
X299300Y-172085
X310300Y-172085
X318350Y-172085
X329350Y-172085
X337400Y-172085
X348400Y-172085
T4
X76200Y-95885
X76200Y-114935
X76200Y-133985
X76200Y-153035
X76200Y-172085
X95250Y-95885
X95250Y-114935
X95250Y-133985
X95250Y-153035
X95250Y-172085
X114300Y-95885
X114300Y-114935
X114300Y-133985
X114300Y-153035
X114300Y-172085
X133350Y-95885
X133350Y-114935
X133350Y-133985
X133350Y-153035
X133350Y-172085
X152400Y-95885
X152400Y-114935
X152400Y-133985
X152400Y-153035
X152400Y-172085
X171450Y-95885
X171450Y-114935
X171450Y-133985
X171450Y-153035
X171450Y-172085
X190500Y-95885
X190500Y-114935
X190500Y-133985
X190500Y-153035
X190500Y-172085
X209550Y-95885
X209550Y-114935
X209550Y-133985
X209550Y-153035
X209550Y-172085
X228600Y-95885
X228600Y-114935
X228600Y-133985
X228600Y-153035
X228600Y-172085
X247650Y-95885
X247650Y-114935
X247650Y-133985
X247650Y-153035
X247650Y-172085
X266700Y-95885
X266700Y-114935
X266700Y-133985
X266700Y-153035
X266700Y-172085
X285750Y-95885
X285750Y-114935
X285750Y-133985
X285750Y-153035
X285750Y-172085
X304800Y-95885
X304800Y-114935
X304800Y-133985
X304800Y-153035
X304800Y-172085
X323850Y-95885
X323850Y-114935
X323850Y-133985
X323850Y-153035
X323850Y-172085
X342900Y-95885
X342900Y-114935
X342900Y-133985
X342900Y-153035
X342900Y-172085
T0
M30
