M48
;DRILL file {KiCad 4.0.7} date 04/13/18 19:54:58
;FORMAT={3:3/ absolute / metric / suppress leading zeros}
FMAT,2
METRIC,TZ
T1C0.400
T2C0.600
T3C0.800
T4C1.200
T5C1.500
T6C1.600
%
G90
G05
M71
T1
X219075Y-157480
X237236Y-142875
T2
X207645Y-104775
T3
X69215Y-160020
X69215Y-165100
X74930Y-100965
X77470Y-100965
X88265Y-160020
X88265Y-165100
X107315Y-160020
X107315Y-165100
X126365Y-160020
X126365Y-165100
X145415Y-160020
X145415Y-165100
X164465Y-160020
X164465Y-165100
X183515Y-160020
X183515Y-165100
X202565Y-160020
X202565Y-165100
X216535Y-160020
X216535Y-165100
X220980Y-88265
X220980Y-90805
X220980Y-93345
X220980Y-95885
X220980Y-98425
X220980Y-100965
X220980Y-103505
X220980Y-106045
X220980Y-108585
X220980Y-111125
X220980Y-113665
X220980Y-116205
X220980Y-118745
X220980Y-121285
X220980Y-123825
X220980Y-126365
X221615Y-160020
X221615Y-165100
X236220Y-95885
X236220Y-98425
X236220Y-100965
X236220Y-103505
X236220Y-106045
X236220Y-108585
X236220Y-111125
X236220Y-113665
X236220Y-116205
X236220Y-118745
X236220Y-121285
X236220Y-123825
X236220Y-126365
X240665Y-160020
X240665Y-165100
X259715Y-160020
X259715Y-165100
X278765Y-160020
X278765Y-165100
X297815Y-160020
X297815Y-165100
X316865Y-160020
X316865Y-165100
X335915Y-160020
X335915Y-165100
T4
X76200Y-166185
X81200Y-168285
X83185Y-83820
X83185Y-88900
X85725Y-88900
X88265Y-83820
X88265Y-88900
X95250Y-166185
X100250Y-168285
X114300Y-166185
X119300Y-168285
X133350Y-166185
X138350Y-168285
X152400Y-166185
X157400Y-168285
X171450Y-166185
X176450Y-168285
X190500Y-166185
X195500Y-168285
X209550Y-166185
X214550Y-168285
X228600Y-166185
X233600Y-168285
X247650Y-166185
X252650Y-168285
X266700Y-166185
X271700Y-168285
X285750Y-166185
X290750Y-168285
X304800Y-166185
X309800Y-168285
X323850Y-166185
X328850Y-168285
X342900Y-166185
X347900Y-168285
T5
X72390Y-93345
X72390Y-112395
X72390Y-131445
X72390Y-150495
X72390Y-169545
X78740Y-90805
X78740Y-109855
X78740Y-128905
X78740Y-147955
X78740Y-167005
X91440Y-93345
X91440Y-112395
X91440Y-131445
X91440Y-150495
X91440Y-169545
X97790Y-90805
X97790Y-109855
X97790Y-128905
X97790Y-147955
X97790Y-167005
X110490Y-93345
X110490Y-112395
X110490Y-131445
X110490Y-150495
X110490Y-169545
X116840Y-90805
X116840Y-109855
X116840Y-128905
X116840Y-147955
X116840Y-167005
X129540Y-93345
X129540Y-112395
X129540Y-131445
X129540Y-150495
X129540Y-169545
X135890Y-90805
X135890Y-109855
X135890Y-128905
X135890Y-147955
X135890Y-167005
X148590Y-93345
X148590Y-112395
X148590Y-131445
X148590Y-150495
X148590Y-169545
X154940Y-90805
X154940Y-109855
X154940Y-128905
X154940Y-147955
X154940Y-167005
X167640Y-93345
X167640Y-112395
X167640Y-131445
X167640Y-150495
X167640Y-169545
X173990Y-90805
X173990Y-109855
X173990Y-128905
X173990Y-147955
X173990Y-167005
X186690Y-93345
X186690Y-112395
X186690Y-131445
X186690Y-150495
X186690Y-169545
X193040Y-90805
X193040Y-109855
X193040Y-128905
X193040Y-147955
X193040Y-167005
X205740Y-93345
X205740Y-112395
X205740Y-131445
X205740Y-150495
X205740Y-169545
X212090Y-90805
X212090Y-109855
X212090Y-128905
X212090Y-147955
X212090Y-167005
X224790Y-93345
X224790Y-112395
X224790Y-131445
X224790Y-150495
X224790Y-169545
X231140Y-90805
X231140Y-109855
X231140Y-128905
X231140Y-147955
X231140Y-167005
X243840Y-93345
X243840Y-112395
X243840Y-131445
X243840Y-150495
X243840Y-169545
X250190Y-90805
X250190Y-109855
X250190Y-128905
X250190Y-147955
X250190Y-167005
X262890Y-93345
X262890Y-112395
X262890Y-131445
X262890Y-150495
X262890Y-169545
X269240Y-90805
X269240Y-109855
X269240Y-128905
X269240Y-147955
X269240Y-167005
X281940Y-93345
X281940Y-112395
X281940Y-131445
X281940Y-150495
X281940Y-169545
X288290Y-90805
X288290Y-109855
X288290Y-128905
X288290Y-147955
X288290Y-167005
X300990Y-93345
X300990Y-112395
X300990Y-131445
X300990Y-150495
X300990Y-169545
X307340Y-90805
X307340Y-109855
X307340Y-128905
X307340Y-147955
X307340Y-167005
X320040Y-93345
X320040Y-112395
X320040Y-131445
X320040Y-150495
X320040Y-169545
X326390Y-90805
X326390Y-109855
X326390Y-128905
X326390Y-147955
X326390Y-167005
X339090Y-93345
X339090Y-112395
X339090Y-131445
X339090Y-150495
X339090Y-169545
X345440Y-90805
X345440Y-109855
X345440Y-128905
X345440Y-147955
X345440Y-167005
T6
X82025Y-103505
X89625Y-103505
X119925Y-103505
X127525Y-103505
X139175Y-103505
X146775Y-103505
X177075Y-103505
X184675Y-103505
T0
M30
