G04 #@! TF.FileFunction,Copper,L1,Top,Signal*
%FSLAX46Y46*%
G04 Gerber Fmt 4.6, Leading zero omitted, Abs format (unit mm)*
G04 Created by KiCad (PCBNEW 4.0.7) date 04/13/18 19:54:45*
%MOMM*%
%LPD*%
G01*
G04 APERTURE LIST*
%ADD10C,0.100000*%
%ADD11C,2.200000*%
%ADD12C,2.500000*%
%ADD13R,1.600000X1.600000*%
%ADD14C,1.600000*%
%ADD15C,3.200000*%
%ADD16C,2.300000*%
%ADD17C,1.200000*%
%ADD18C,0.800000*%
%ADD19C,0.500000*%
%ADD20C,0.300000*%
G04 APERTURE END LIST*
D10*
D11*
X85725000Y-88900000D03*
X88265000Y-88900000D03*
X83185000Y-88900000D03*
X88265000Y-83820000D03*
X83185000Y-83820000D03*
D12*
X345440000Y-128905000D03*
X339090000Y-131445000D03*
X326390000Y-109855000D03*
X320040000Y-112395000D03*
X231140000Y-128905000D03*
X224790000Y-131445000D03*
X231140000Y-90805000D03*
X224790000Y-93345000D03*
X97790000Y-147955000D03*
X91440000Y-150495000D03*
X173990000Y-147955000D03*
X167640000Y-150495000D03*
X326390000Y-147955000D03*
X320040000Y-150495000D03*
X345440000Y-147955000D03*
X339090000Y-150495000D03*
X78740000Y-109855000D03*
X72390000Y-112395000D03*
X78740000Y-128905000D03*
X72390000Y-131445000D03*
X78740000Y-147955000D03*
X72390000Y-150495000D03*
X97790000Y-90805000D03*
X91440000Y-93345000D03*
X97790000Y-109855000D03*
X91440000Y-112395000D03*
X97790000Y-128905000D03*
X91440000Y-131445000D03*
X116840000Y-90805000D03*
X110490000Y-93345000D03*
X116840000Y-109855000D03*
X110490000Y-112395000D03*
X116840000Y-128905000D03*
X110490000Y-131445000D03*
X116840000Y-147955000D03*
X110490000Y-150495000D03*
X135890000Y-90805000D03*
X129540000Y-93345000D03*
X135890000Y-128905000D03*
X129540000Y-131445000D03*
X135890000Y-147955000D03*
X129540000Y-150495000D03*
X154940000Y-90805000D03*
X148590000Y-93345000D03*
X154940000Y-128905000D03*
X148590000Y-131445000D03*
X154940000Y-147955000D03*
X148590000Y-150495000D03*
X173990000Y-128905000D03*
X167640000Y-131445000D03*
X193040000Y-109855000D03*
X186690000Y-112395000D03*
X193040000Y-128905000D03*
X186690000Y-131445000D03*
X193040000Y-147955000D03*
X186690000Y-150495000D03*
X212090000Y-109855000D03*
X205740000Y-112395000D03*
X212090000Y-128905000D03*
X205740000Y-131445000D03*
X212090000Y-147955000D03*
X205740000Y-150495000D03*
X231140000Y-147955000D03*
X224790000Y-150495000D03*
X250190000Y-90805000D03*
X243840000Y-93345000D03*
X250190000Y-109855000D03*
X243840000Y-112395000D03*
X250190000Y-128905000D03*
X243840000Y-131445000D03*
X250190000Y-147955000D03*
X243840000Y-150495000D03*
X269240000Y-90805000D03*
X262890000Y-93345000D03*
X269240000Y-109855000D03*
X262890000Y-112395000D03*
X269240000Y-128905000D03*
X262890000Y-131445000D03*
X269240000Y-147955000D03*
X262890000Y-150495000D03*
X288290000Y-90805000D03*
X281940000Y-93345000D03*
X288290000Y-109855000D03*
X281940000Y-112395000D03*
X288290000Y-128905000D03*
X281940000Y-131445000D03*
X288290000Y-147955000D03*
X281940000Y-150495000D03*
X307340000Y-90805000D03*
X300990000Y-93345000D03*
X307340000Y-109855000D03*
X300990000Y-112395000D03*
X307340000Y-128905000D03*
X300990000Y-131445000D03*
X307340000Y-147955000D03*
X300990000Y-150495000D03*
X326390000Y-90805000D03*
X320040000Y-93345000D03*
X326390000Y-128905000D03*
X320040000Y-131445000D03*
X345440000Y-90805000D03*
X339090000Y-93345000D03*
X345440000Y-109855000D03*
X339090000Y-112395000D03*
X231140000Y-109855000D03*
X224790000Y-112395000D03*
X193040000Y-90805000D03*
X186690000Y-93345000D03*
X212090000Y-90805000D03*
X205740000Y-93345000D03*
X135890000Y-109855000D03*
X129540000Y-112395000D03*
X173990000Y-109855000D03*
X167640000Y-112395000D03*
X173990000Y-90805000D03*
X167640000Y-93345000D03*
X154940000Y-109855000D03*
X148590000Y-112395000D03*
X78740000Y-90805000D03*
X72390000Y-93345000D03*
D13*
X74930000Y-100965000D03*
D14*
X77470000Y-100965000D03*
D15*
X139175000Y-103505000D03*
X146775000Y-103505000D03*
X184675000Y-103505000D03*
X177075000Y-103505000D03*
X82025000Y-103505000D03*
X89625000Y-103505000D03*
X127525000Y-103505000D03*
X119925000Y-103505000D03*
D14*
X236220000Y-95885000D03*
X236220000Y-98425000D03*
X236220000Y-100965000D03*
X236220000Y-103505000D03*
X236220000Y-106045000D03*
X236220000Y-108585000D03*
X236220000Y-111125000D03*
X236220000Y-113665000D03*
X236220000Y-116205000D03*
X236220000Y-118745000D03*
X236220000Y-121285000D03*
X236220000Y-123825000D03*
X236220000Y-126365000D03*
X220980000Y-126365000D03*
X220980000Y-123825000D03*
X220980000Y-121285000D03*
X220980000Y-118745000D03*
X220980000Y-116205000D03*
X220980000Y-113665000D03*
X220980000Y-111125000D03*
X220980000Y-108585000D03*
X220980000Y-106045000D03*
X220980000Y-103505000D03*
X220980000Y-100965000D03*
X220980000Y-98425000D03*
X220980000Y-95885000D03*
X220980000Y-93345000D03*
X220980000Y-90805000D03*
X220980000Y-88265000D03*
D16*
X212090000Y-167005000D03*
D12*
X205740000Y-169545000D03*
D11*
X209550000Y-166185000D03*
X214550000Y-168285000D03*
D16*
X78740000Y-167005000D03*
D12*
X72390000Y-169545000D03*
D11*
X76200000Y-166185000D03*
X81200000Y-168285000D03*
D16*
X326390000Y-167005000D03*
D12*
X320040000Y-169545000D03*
D11*
X323850000Y-166185000D03*
X328850000Y-168285000D03*
D16*
X307340000Y-167005000D03*
D12*
X300990000Y-169545000D03*
D11*
X304800000Y-166185000D03*
X309800000Y-168285000D03*
D16*
X269240000Y-167005000D03*
D12*
X262890000Y-169545000D03*
D11*
X266700000Y-166185000D03*
X271700000Y-168285000D03*
D16*
X231140000Y-167005000D03*
D12*
X224790000Y-169545000D03*
D11*
X228600000Y-166185000D03*
X233600000Y-168285000D03*
D16*
X193040000Y-167005000D03*
D12*
X186690000Y-169545000D03*
D11*
X190500000Y-166185000D03*
X195500000Y-168285000D03*
D16*
X173990000Y-167005000D03*
D12*
X167640000Y-169545000D03*
D11*
X171450000Y-166185000D03*
X176450000Y-168285000D03*
D16*
X154940000Y-167005000D03*
D12*
X148590000Y-169545000D03*
D11*
X152400000Y-166185000D03*
X157400000Y-168285000D03*
D16*
X135890000Y-167005000D03*
D12*
X129540000Y-169545000D03*
D11*
X133350000Y-166185000D03*
X138350000Y-168285000D03*
D16*
X116840000Y-167005000D03*
D12*
X110490000Y-169545000D03*
D11*
X114300000Y-166185000D03*
X119300000Y-168285000D03*
D16*
X97790000Y-167005000D03*
D12*
X91440000Y-169545000D03*
D11*
X95250000Y-166185000D03*
X100250000Y-168285000D03*
D16*
X345440000Y-167005000D03*
D12*
X339090000Y-169545000D03*
D11*
X342900000Y-166185000D03*
X347900000Y-168285000D03*
D16*
X250190000Y-167005000D03*
D12*
X243840000Y-169545000D03*
D11*
X247650000Y-166185000D03*
X252650000Y-168285000D03*
D16*
X288290000Y-167005000D03*
D12*
X281940000Y-169545000D03*
D11*
X285750000Y-166185000D03*
X290750000Y-168285000D03*
D17*
X207645000Y-104775000D03*
D18*
X237236000Y-142875000D03*
X219075000Y-157480000D03*
D19*
X85725000Y-88900000D02*
X85725000Y-99805000D01*
X85725000Y-99805000D02*
X82025000Y-103505000D01*
X220980000Y-118745000D02*
X219075000Y-118745000D01*
X210820000Y-104775000D02*
X207645000Y-104775000D01*
X217170000Y-111125000D02*
X210820000Y-104775000D01*
X217170000Y-116840000D02*
X217170000Y-111125000D01*
X219075000Y-118745000D02*
X217170000Y-116840000D01*
D20*
X239014000Y-116459000D02*
X236220000Y-113665000D01*
X237236000Y-142875000D02*
X237236000Y-141224000D01*
X237236000Y-141224000D02*
X239014000Y-139446000D01*
X239014000Y-139446000D02*
X239014000Y-116459000D01*
X219075000Y-128270000D02*
X220980000Y-126365000D01*
X219075000Y-157480000D02*
X219075000Y-128270000D01*
X72390000Y-150495000D02*
X72390000Y-157480000D01*
X76200000Y-161290000D02*
X76200000Y-166185000D01*
X72390000Y-157480000D02*
X76200000Y-161290000D01*
X72390000Y-131445000D02*
X72390000Y-150495000D01*
X72390000Y-112395000D02*
X72390000Y-131445000D01*
X72390000Y-93345000D02*
X72390000Y-112395000D01*
X91440000Y-150495000D02*
X91440000Y-157480000D01*
X95250000Y-161290000D02*
X95250000Y-166185000D01*
X91440000Y-157480000D02*
X95250000Y-161290000D01*
X91440000Y-93345000D02*
X91440000Y-100965000D01*
X91440000Y-106045000D02*
X91440000Y-112395000D01*
X92075000Y-105410000D02*
X91440000Y-106045000D01*
X92075000Y-101600000D02*
X92075000Y-105410000D01*
X91440000Y-100965000D02*
X92075000Y-101600000D01*
X91440000Y-131445000D02*
X91440000Y-150495000D01*
X91440000Y-112395000D02*
X91440000Y-131445000D01*
X110490000Y-150495000D02*
X110490000Y-157480000D01*
X114300000Y-161290000D02*
X114300000Y-166185000D01*
X110490000Y-157480000D02*
X114300000Y-161290000D01*
X110490000Y-131445000D02*
X110490000Y-150495000D01*
X110490000Y-112395000D02*
X110490000Y-131445000D01*
X110490000Y-93345000D02*
X110490000Y-112395000D01*
X129540000Y-150495000D02*
X129540000Y-157480000D01*
X133350000Y-161290000D02*
X133350000Y-166185000D01*
X129540000Y-157480000D02*
X133350000Y-161290000D01*
X129540000Y-131445000D02*
X129540000Y-150495000D01*
X129540000Y-112395000D02*
X129540000Y-131445000D01*
X129540000Y-93345000D02*
X129540000Y-112395000D01*
X148590000Y-150495000D02*
X148590000Y-157480000D01*
X152400000Y-161290000D02*
X152400000Y-166185000D01*
X148590000Y-157480000D02*
X152400000Y-161290000D01*
X148590000Y-93345000D02*
X148590000Y-100965000D01*
X148590000Y-106045000D02*
X148590000Y-112395000D01*
X149225000Y-105410000D02*
X148590000Y-106045000D01*
X149225000Y-101600000D02*
X149225000Y-105410000D01*
X148590000Y-100965000D02*
X149225000Y-101600000D01*
X148590000Y-131445000D02*
X148590000Y-150495000D01*
X148590000Y-112395000D02*
X148590000Y-131445000D01*
X167640000Y-150495000D02*
X167640000Y-157480000D01*
X171450000Y-161290000D02*
X171450000Y-166185000D01*
X167640000Y-157480000D02*
X171450000Y-161290000D01*
X167640000Y-93345000D02*
X167640000Y-112395000D01*
X167640000Y-131445000D02*
X167640000Y-150495000D01*
X167640000Y-112395000D02*
X167640000Y-131445000D01*
X186690000Y-150495000D02*
X186690000Y-157480000D01*
X190500000Y-161290000D02*
X190500000Y-166185000D01*
X186690000Y-157480000D02*
X190500000Y-161290000D01*
X186690000Y-131445000D02*
X186690000Y-150495000D01*
X186690000Y-112395000D02*
X186690000Y-131445000D01*
X186690000Y-93345000D02*
X186690000Y-112395000D01*
X205740000Y-150495000D02*
X205740000Y-157480000D01*
X209550000Y-161290000D02*
X209550000Y-166185000D01*
X205740000Y-157480000D02*
X209550000Y-161290000D01*
X220980000Y-90805000D02*
X215900000Y-90805000D01*
X215900000Y-90805000D02*
X213360000Y-93345000D01*
X213360000Y-93345000D02*
X205740000Y-93345000D01*
X205740000Y-131445000D02*
X205740000Y-150495000D01*
X205740000Y-112395000D02*
X205740000Y-131445000D01*
X205740000Y-93345000D02*
X205740000Y-112395000D01*
X224790000Y-150495000D02*
X224790000Y-157480000D01*
X228600000Y-161290000D02*
X228600000Y-166185000D01*
X224790000Y-157480000D02*
X228600000Y-161290000D01*
X224790000Y-123825000D02*
X224790000Y-124206000D01*
X224790000Y-124206000D02*
X224790000Y-131445000D01*
X224282000Y-123825000D02*
X224409000Y-123825000D01*
X224409000Y-123825000D02*
X224790000Y-124206000D01*
X224282000Y-123825000D02*
X224790000Y-123825000D01*
X220980000Y-123825000D02*
X224282000Y-123825000D01*
X224790000Y-112395000D02*
X224790000Y-123444000D01*
X224790000Y-123444000D02*
X224790000Y-123825000D01*
X224409000Y-123825000D02*
X224790000Y-123444000D01*
X224790000Y-93345000D02*
X224790000Y-112395000D01*
X224790000Y-131445000D02*
X224790000Y-150495000D01*
X243840000Y-150495000D02*
X243840000Y-157480000D01*
X247650000Y-161290000D02*
X247650000Y-166185000D01*
X243840000Y-157480000D02*
X247650000Y-161290000D01*
X243840000Y-131445000D02*
X243840000Y-150495000D01*
X243840000Y-112395000D02*
X243840000Y-131445000D01*
X243840000Y-93345000D02*
X243840000Y-112395000D01*
X262890000Y-150495000D02*
X262890000Y-157480000D01*
X266700000Y-161290000D02*
X266700000Y-166185000D01*
X262890000Y-157480000D02*
X266700000Y-161290000D01*
X262890000Y-131445000D02*
X262890000Y-150495000D01*
X262890000Y-112395000D02*
X262890000Y-131445000D01*
X262890000Y-93345000D02*
X262890000Y-112395000D01*
X281940000Y-150495000D02*
X281940000Y-157480000D01*
X285750000Y-161290000D02*
X285750000Y-166185000D01*
X281940000Y-157480000D02*
X285750000Y-161290000D01*
X281940000Y-131445000D02*
X281940000Y-150495000D01*
X281940000Y-112395000D02*
X281940000Y-131445000D01*
X281940000Y-93345000D02*
X281940000Y-112395000D01*
X300990000Y-150495000D02*
X300990000Y-157480000D01*
X304800000Y-161290000D02*
X304800000Y-166185000D01*
X300990000Y-157480000D02*
X304800000Y-161290000D01*
X300990000Y-131445000D02*
X300990000Y-150495000D01*
X300990000Y-112395000D02*
X300990000Y-131445000D01*
X300990000Y-93345000D02*
X300990000Y-112395000D01*
X320040000Y-150495000D02*
X320040000Y-157480000D01*
X323850000Y-161290000D02*
X323850000Y-166185000D01*
X320040000Y-157480000D02*
X323850000Y-161290000D01*
X320040000Y-131445000D02*
X320040000Y-150495000D01*
X320040000Y-112395000D02*
X320040000Y-131445000D01*
X320040000Y-93345000D02*
X320040000Y-112395000D01*
X339090000Y-150495000D02*
X339090000Y-157480000D01*
X342900000Y-161290000D02*
X342900000Y-166185000D01*
X339090000Y-157480000D02*
X342900000Y-161290000D01*
X339090000Y-131445000D02*
X339090000Y-150495000D01*
X339090000Y-112395000D02*
X339090000Y-131445000D01*
X339090000Y-93345000D02*
X339090000Y-112395000D01*
D19*
X88265000Y-88900000D02*
X214630000Y-88900000D01*
X236220000Y-118745000D02*
X234315000Y-118745000D01*
X234315000Y-118745000D02*
X231775000Y-116205000D01*
X231775000Y-116205000D02*
X231775000Y-113665000D01*
X231775000Y-113665000D02*
X233045000Y-112395000D01*
X233045000Y-112395000D02*
X233045000Y-98425000D01*
X233045000Y-98425000D02*
X231775000Y-97155000D01*
X231775000Y-97155000D02*
X231775000Y-94615000D01*
X231775000Y-94615000D02*
X226695000Y-89535000D01*
X226695000Y-89535000D02*
X215265000Y-89535000D01*
X215265000Y-89535000D02*
X214630000Y-88900000D01*
M02*
