G04 #@! TF.FileFunction,Soldermask,Top*
%FSLAX46Y46*%
G04 Gerber Fmt 4.6, Leading zero omitted, Abs format (unit mm)*
G04 Created by KiCad (PCBNEW 4.0.7) date 04/13/18 19:54:45*
%MOMM*%
%LPD*%
G01*
G04 APERTURE LIST*
%ADD10C,0.100000*%
%ADD11C,2.200000*%
%ADD12C,1.700000*%
%ADD13C,2.500000*%
%ADD14C,4.000000*%
%ADD15R,1.600000X1.600000*%
%ADD16C,1.600000*%
%ADD17C,3.200000*%
%ADD18C,2.300000*%
%ADD19C,1.900000*%
%ADD20C,1.000000*%
G04 APERTURE END LIST*
D10*
D11*
X85725000Y-88900000D03*
X88265000Y-88900000D03*
X83185000Y-88900000D03*
X88265000Y-83820000D03*
X83185000Y-83820000D03*
D12*
X347980000Y-133985000D03*
D13*
X345440000Y-128905000D03*
D14*
X342900000Y-133985000D03*
D13*
X339090000Y-131445000D03*
D12*
X337820000Y-133985000D03*
X328930000Y-114935000D03*
D13*
X326390000Y-109855000D03*
D14*
X323850000Y-114935000D03*
D13*
X320040000Y-112395000D03*
D12*
X318770000Y-114935000D03*
X233680000Y-133985000D03*
D13*
X231140000Y-128905000D03*
D14*
X228600000Y-133985000D03*
D13*
X224790000Y-131445000D03*
D12*
X223520000Y-133985000D03*
X233680000Y-95885000D03*
D13*
X231140000Y-90805000D03*
D14*
X228600000Y-95885000D03*
D13*
X224790000Y-93345000D03*
D12*
X223520000Y-95885000D03*
X100330000Y-153035000D03*
D13*
X97790000Y-147955000D03*
D14*
X95250000Y-153035000D03*
D13*
X91440000Y-150495000D03*
D12*
X90170000Y-153035000D03*
X176530000Y-153035000D03*
D13*
X173990000Y-147955000D03*
D14*
X171450000Y-153035000D03*
D13*
X167640000Y-150495000D03*
D12*
X166370000Y-153035000D03*
X328930000Y-153035000D03*
D13*
X326390000Y-147955000D03*
D14*
X323850000Y-153035000D03*
D13*
X320040000Y-150495000D03*
D12*
X318770000Y-153035000D03*
X347980000Y-153035000D03*
D13*
X345440000Y-147955000D03*
D14*
X342900000Y-153035000D03*
D13*
X339090000Y-150495000D03*
D12*
X337820000Y-153035000D03*
X81280000Y-114935000D03*
D13*
X78740000Y-109855000D03*
D14*
X76200000Y-114935000D03*
D13*
X72390000Y-112395000D03*
D12*
X71120000Y-114935000D03*
X81280000Y-133985000D03*
D13*
X78740000Y-128905000D03*
D14*
X76200000Y-133985000D03*
D13*
X72390000Y-131445000D03*
D12*
X71120000Y-133985000D03*
X81280000Y-153035000D03*
D13*
X78740000Y-147955000D03*
D14*
X76200000Y-153035000D03*
D13*
X72390000Y-150495000D03*
D12*
X71120000Y-153035000D03*
X100330000Y-95885000D03*
D13*
X97790000Y-90805000D03*
D14*
X95250000Y-95885000D03*
D13*
X91440000Y-93345000D03*
D12*
X90170000Y-95885000D03*
X100330000Y-114935000D03*
D13*
X97790000Y-109855000D03*
D14*
X95250000Y-114935000D03*
D13*
X91440000Y-112395000D03*
D12*
X90170000Y-114935000D03*
X100330000Y-133985000D03*
D13*
X97790000Y-128905000D03*
D14*
X95250000Y-133985000D03*
D13*
X91440000Y-131445000D03*
D12*
X90170000Y-133985000D03*
X119380000Y-95885000D03*
D13*
X116840000Y-90805000D03*
D14*
X114300000Y-95885000D03*
D13*
X110490000Y-93345000D03*
D12*
X109220000Y-95885000D03*
X119380000Y-114935000D03*
D13*
X116840000Y-109855000D03*
D14*
X114300000Y-114935000D03*
D13*
X110490000Y-112395000D03*
D12*
X109220000Y-114935000D03*
X119380000Y-133985000D03*
D13*
X116840000Y-128905000D03*
D14*
X114300000Y-133985000D03*
D13*
X110490000Y-131445000D03*
D12*
X109220000Y-133985000D03*
X119380000Y-153035000D03*
D13*
X116840000Y-147955000D03*
D14*
X114300000Y-153035000D03*
D13*
X110490000Y-150495000D03*
D12*
X109220000Y-153035000D03*
X138430000Y-95885000D03*
D13*
X135890000Y-90805000D03*
D14*
X133350000Y-95885000D03*
D13*
X129540000Y-93345000D03*
D12*
X128270000Y-95885000D03*
X138430000Y-133985000D03*
D13*
X135890000Y-128905000D03*
D14*
X133350000Y-133985000D03*
D13*
X129540000Y-131445000D03*
D12*
X128270000Y-133985000D03*
X138430000Y-153035000D03*
D13*
X135890000Y-147955000D03*
D14*
X133350000Y-153035000D03*
D13*
X129540000Y-150495000D03*
D12*
X128270000Y-153035000D03*
X157480000Y-95885000D03*
D13*
X154940000Y-90805000D03*
D14*
X152400000Y-95885000D03*
D13*
X148590000Y-93345000D03*
D12*
X147320000Y-95885000D03*
X157480000Y-133985000D03*
D13*
X154940000Y-128905000D03*
D14*
X152400000Y-133985000D03*
D13*
X148590000Y-131445000D03*
D12*
X147320000Y-133985000D03*
X157480000Y-153035000D03*
D13*
X154940000Y-147955000D03*
D14*
X152400000Y-153035000D03*
D13*
X148590000Y-150495000D03*
D12*
X147320000Y-153035000D03*
X176530000Y-133985000D03*
D13*
X173990000Y-128905000D03*
D14*
X171450000Y-133985000D03*
D13*
X167640000Y-131445000D03*
D12*
X166370000Y-133985000D03*
X195580000Y-114935000D03*
D13*
X193040000Y-109855000D03*
D14*
X190500000Y-114935000D03*
D13*
X186690000Y-112395000D03*
D12*
X185420000Y-114935000D03*
X195580000Y-133985000D03*
D13*
X193040000Y-128905000D03*
D14*
X190500000Y-133985000D03*
D13*
X186690000Y-131445000D03*
D12*
X185420000Y-133985000D03*
X195580000Y-153035000D03*
D13*
X193040000Y-147955000D03*
D14*
X190500000Y-153035000D03*
D13*
X186690000Y-150495000D03*
D12*
X185420000Y-153035000D03*
X214630000Y-114935000D03*
D13*
X212090000Y-109855000D03*
D14*
X209550000Y-114935000D03*
D13*
X205740000Y-112395000D03*
D12*
X204470000Y-114935000D03*
X214630000Y-133985000D03*
D13*
X212090000Y-128905000D03*
D14*
X209550000Y-133985000D03*
D13*
X205740000Y-131445000D03*
D12*
X204470000Y-133985000D03*
X214630000Y-153035000D03*
D13*
X212090000Y-147955000D03*
D14*
X209550000Y-153035000D03*
D13*
X205740000Y-150495000D03*
D12*
X204470000Y-153035000D03*
X233680000Y-153035000D03*
D13*
X231140000Y-147955000D03*
D14*
X228600000Y-153035000D03*
D13*
X224790000Y-150495000D03*
D12*
X223520000Y-153035000D03*
X252730000Y-95885000D03*
D13*
X250190000Y-90805000D03*
D14*
X247650000Y-95885000D03*
D13*
X243840000Y-93345000D03*
D12*
X242570000Y-95885000D03*
X252730000Y-114935000D03*
D13*
X250190000Y-109855000D03*
D14*
X247650000Y-114935000D03*
D13*
X243840000Y-112395000D03*
D12*
X242570000Y-114935000D03*
X252730000Y-133985000D03*
D13*
X250190000Y-128905000D03*
D14*
X247650000Y-133985000D03*
D13*
X243840000Y-131445000D03*
D12*
X242570000Y-133985000D03*
X252730000Y-153035000D03*
D13*
X250190000Y-147955000D03*
D14*
X247650000Y-153035000D03*
D13*
X243840000Y-150495000D03*
D12*
X242570000Y-153035000D03*
X271780000Y-95885000D03*
D13*
X269240000Y-90805000D03*
D14*
X266700000Y-95885000D03*
D13*
X262890000Y-93345000D03*
D12*
X261620000Y-95885000D03*
X271780000Y-114935000D03*
D13*
X269240000Y-109855000D03*
D14*
X266700000Y-114935000D03*
D13*
X262890000Y-112395000D03*
D12*
X261620000Y-114935000D03*
X271780000Y-133985000D03*
D13*
X269240000Y-128905000D03*
D14*
X266700000Y-133985000D03*
D13*
X262890000Y-131445000D03*
D12*
X261620000Y-133985000D03*
X271780000Y-153035000D03*
D13*
X269240000Y-147955000D03*
D14*
X266700000Y-153035000D03*
D13*
X262890000Y-150495000D03*
D12*
X261620000Y-153035000D03*
X290830000Y-95885000D03*
D13*
X288290000Y-90805000D03*
D14*
X285750000Y-95885000D03*
D13*
X281940000Y-93345000D03*
D12*
X280670000Y-95885000D03*
X290830000Y-114935000D03*
D13*
X288290000Y-109855000D03*
D14*
X285750000Y-114935000D03*
D13*
X281940000Y-112395000D03*
D12*
X280670000Y-114935000D03*
X290830000Y-133985000D03*
D13*
X288290000Y-128905000D03*
D14*
X285750000Y-133985000D03*
D13*
X281940000Y-131445000D03*
D12*
X280670000Y-133985000D03*
X290830000Y-153035000D03*
D13*
X288290000Y-147955000D03*
D14*
X285750000Y-153035000D03*
D13*
X281940000Y-150495000D03*
D12*
X280670000Y-153035000D03*
X309880000Y-95885000D03*
D13*
X307340000Y-90805000D03*
D14*
X304800000Y-95885000D03*
D13*
X300990000Y-93345000D03*
D12*
X299720000Y-95885000D03*
X309880000Y-114935000D03*
D13*
X307340000Y-109855000D03*
D14*
X304800000Y-114935000D03*
D13*
X300990000Y-112395000D03*
D12*
X299720000Y-114935000D03*
X309880000Y-133985000D03*
D13*
X307340000Y-128905000D03*
D14*
X304800000Y-133985000D03*
D13*
X300990000Y-131445000D03*
D12*
X299720000Y-133985000D03*
X309880000Y-153035000D03*
D13*
X307340000Y-147955000D03*
D14*
X304800000Y-153035000D03*
D13*
X300990000Y-150495000D03*
D12*
X299720000Y-153035000D03*
X328930000Y-95885000D03*
D13*
X326390000Y-90805000D03*
D14*
X323850000Y-95885000D03*
D13*
X320040000Y-93345000D03*
D12*
X318770000Y-95885000D03*
X328930000Y-133985000D03*
D13*
X326390000Y-128905000D03*
D14*
X323850000Y-133985000D03*
D13*
X320040000Y-131445000D03*
D12*
X318770000Y-133985000D03*
X347980000Y-95885000D03*
D13*
X345440000Y-90805000D03*
D14*
X342900000Y-95885000D03*
D13*
X339090000Y-93345000D03*
D12*
X337820000Y-95885000D03*
X347980000Y-114935000D03*
D13*
X345440000Y-109855000D03*
D14*
X342900000Y-114935000D03*
D13*
X339090000Y-112395000D03*
D12*
X337820000Y-114935000D03*
X233680000Y-114935000D03*
D13*
X231140000Y-109855000D03*
D14*
X228600000Y-114935000D03*
D13*
X224790000Y-112395000D03*
D12*
X223520000Y-114935000D03*
X195580000Y-95885000D03*
D13*
X193040000Y-90805000D03*
D14*
X190500000Y-95885000D03*
D13*
X186690000Y-93345000D03*
D12*
X185420000Y-95885000D03*
X214630000Y-95885000D03*
D13*
X212090000Y-90805000D03*
D14*
X209550000Y-95885000D03*
D13*
X205740000Y-93345000D03*
D12*
X204470000Y-95885000D03*
X138430000Y-114935000D03*
D13*
X135890000Y-109855000D03*
D14*
X133350000Y-114935000D03*
D13*
X129540000Y-112395000D03*
D12*
X128270000Y-114935000D03*
X176530000Y-114935000D03*
D13*
X173990000Y-109855000D03*
D14*
X171450000Y-114935000D03*
D13*
X167640000Y-112395000D03*
D12*
X166370000Y-114935000D03*
X176530000Y-95885000D03*
D13*
X173990000Y-90805000D03*
D14*
X171450000Y-95885000D03*
D13*
X167640000Y-93345000D03*
D12*
X166370000Y-95885000D03*
X157480000Y-114935000D03*
D13*
X154940000Y-109855000D03*
D14*
X152400000Y-114935000D03*
D13*
X148590000Y-112395000D03*
D12*
X147320000Y-114935000D03*
X81280000Y-95885000D03*
D13*
X78740000Y-90805000D03*
D14*
X76200000Y-95885000D03*
D13*
X72390000Y-93345000D03*
D12*
X71120000Y-95885000D03*
D15*
X74930000Y-100965000D03*
D16*
X77470000Y-100965000D03*
D17*
X139175000Y-103505000D03*
X146775000Y-103505000D03*
X184675000Y-103505000D03*
X177075000Y-103505000D03*
X82025000Y-103505000D03*
X89625000Y-103505000D03*
X127525000Y-103505000D03*
X119925000Y-103505000D03*
D16*
X236220000Y-95885000D03*
X236220000Y-98425000D03*
X236220000Y-100965000D03*
X236220000Y-103505000D03*
X236220000Y-106045000D03*
X236220000Y-108585000D03*
X236220000Y-111125000D03*
X236220000Y-113665000D03*
X236220000Y-116205000D03*
X236220000Y-118745000D03*
X236220000Y-121285000D03*
X236220000Y-123825000D03*
X236220000Y-126365000D03*
X220980000Y-126365000D03*
X220980000Y-123825000D03*
X220980000Y-121285000D03*
X220980000Y-118745000D03*
X220980000Y-116205000D03*
X220980000Y-113665000D03*
X220980000Y-111125000D03*
X220980000Y-108585000D03*
X220980000Y-106045000D03*
X220980000Y-103505000D03*
X220980000Y-100965000D03*
X220980000Y-98425000D03*
X220980000Y-95885000D03*
X220980000Y-93345000D03*
X220980000Y-90805000D03*
X220980000Y-88265000D03*
D12*
X214630000Y-172085000D03*
D18*
X212090000Y-167005000D03*
D14*
X209550000Y-172085000D03*
D13*
X205740000Y-169545000D03*
D12*
X204470000Y-172085000D03*
D19*
X215050000Y-172085000D03*
X204050000Y-172085000D03*
D20*
X204330000Y-176285000D03*
D11*
X209550000Y-166185000D03*
X214550000Y-168285000D03*
D12*
X81280000Y-172085000D03*
D18*
X78740000Y-167005000D03*
D14*
X76200000Y-172085000D03*
D13*
X72390000Y-169545000D03*
D12*
X71120000Y-172085000D03*
D19*
X81700000Y-172085000D03*
X70700000Y-172085000D03*
D20*
X70980000Y-176285000D03*
D11*
X76200000Y-166185000D03*
X81200000Y-168285000D03*
D12*
X328930000Y-172085000D03*
D18*
X326390000Y-167005000D03*
D14*
X323850000Y-172085000D03*
D13*
X320040000Y-169545000D03*
D12*
X318770000Y-172085000D03*
D19*
X329350000Y-172085000D03*
X318350000Y-172085000D03*
D20*
X318630000Y-176285000D03*
D11*
X323850000Y-166185000D03*
X328850000Y-168285000D03*
D12*
X309880000Y-172085000D03*
D18*
X307340000Y-167005000D03*
D14*
X304800000Y-172085000D03*
D13*
X300990000Y-169545000D03*
D12*
X299720000Y-172085000D03*
D19*
X310300000Y-172085000D03*
X299300000Y-172085000D03*
D20*
X299580000Y-176285000D03*
D11*
X304800000Y-166185000D03*
X309800000Y-168285000D03*
D12*
X271780000Y-172085000D03*
D18*
X269240000Y-167005000D03*
D14*
X266700000Y-172085000D03*
D13*
X262890000Y-169545000D03*
D12*
X261620000Y-172085000D03*
D19*
X272200000Y-172085000D03*
X261200000Y-172085000D03*
D20*
X261480000Y-176285000D03*
D11*
X266700000Y-166185000D03*
X271700000Y-168285000D03*
D12*
X233680000Y-172085000D03*
D18*
X231140000Y-167005000D03*
D14*
X228600000Y-172085000D03*
D13*
X224790000Y-169545000D03*
D12*
X223520000Y-172085000D03*
D19*
X234100000Y-172085000D03*
X223100000Y-172085000D03*
D20*
X223380000Y-176285000D03*
D11*
X228600000Y-166185000D03*
X233600000Y-168285000D03*
D12*
X195580000Y-172085000D03*
D18*
X193040000Y-167005000D03*
D14*
X190500000Y-172085000D03*
D13*
X186690000Y-169545000D03*
D12*
X185420000Y-172085000D03*
D19*
X196000000Y-172085000D03*
X185000000Y-172085000D03*
D20*
X185280000Y-176285000D03*
D11*
X190500000Y-166185000D03*
X195500000Y-168285000D03*
D12*
X176530000Y-172085000D03*
D18*
X173990000Y-167005000D03*
D14*
X171450000Y-172085000D03*
D13*
X167640000Y-169545000D03*
D12*
X166370000Y-172085000D03*
D19*
X176950000Y-172085000D03*
X165950000Y-172085000D03*
D20*
X166230000Y-176285000D03*
D11*
X171450000Y-166185000D03*
X176450000Y-168285000D03*
D12*
X157480000Y-172085000D03*
D18*
X154940000Y-167005000D03*
D14*
X152400000Y-172085000D03*
D13*
X148590000Y-169545000D03*
D12*
X147320000Y-172085000D03*
D19*
X157900000Y-172085000D03*
X146900000Y-172085000D03*
D20*
X147180000Y-176285000D03*
D11*
X152400000Y-166185000D03*
X157400000Y-168285000D03*
D12*
X138430000Y-172085000D03*
D18*
X135890000Y-167005000D03*
D14*
X133350000Y-172085000D03*
D13*
X129540000Y-169545000D03*
D12*
X128270000Y-172085000D03*
D19*
X138850000Y-172085000D03*
X127850000Y-172085000D03*
D20*
X128130000Y-176285000D03*
D11*
X133350000Y-166185000D03*
X138350000Y-168285000D03*
D12*
X119380000Y-172085000D03*
D18*
X116840000Y-167005000D03*
D14*
X114300000Y-172085000D03*
D13*
X110490000Y-169545000D03*
D12*
X109220000Y-172085000D03*
D19*
X119800000Y-172085000D03*
X108800000Y-172085000D03*
D20*
X109080000Y-176285000D03*
D11*
X114300000Y-166185000D03*
X119300000Y-168285000D03*
D12*
X100330000Y-172085000D03*
D18*
X97790000Y-167005000D03*
D14*
X95250000Y-172085000D03*
D13*
X91440000Y-169545000D03*
D12*
X90170000Y-172085000D03*
D19*
X100750000Y-172085000D03*
X89750000Y-172085000D03*
D20*
X90030000Y-176285000D03*
D11*
X95250000Y-166185000D03*
X100250000Y-168285000D03*
D12*
X347980000Y-172085000D03*
D18*
X345440000Y-167005000D03*
D14*
X342900000Y-172085000D03*
D13*
X339090000Y-169545000D03*
D12*
X337820000Y-172085000D03*
D19*
X348400000Y-172085000D03*
X337400000Y-172085000D03*
D20*
X337680000Y-176285000D03*
D11*
X342900000Y-166185000D03*
X347900000Y-168285000D03*
D12*
X252730000Y-172085000D03*
D18*
X250190000Y-167005000D03*
D14*
X247650000Y-172085000D03*
D13*
X243840000Y-169545000D03*
D12*
X242570000Y-172085000D03*
D19*
X253150000Y-172085000D03*
X242150000Y-172085000D03*
D20*
X242430000Y-176285000D03*
D11*
X247650000Y-166185000D03*
X252650000Y-168285000D03*
D12*
X290830000Y-172085000D03*
D18*
X288290000Y-167005000D03*
D14*
X285750000Y-172085000D03*
D13*
X281940000Y-169545000D03*
D12*
X280670000Y-172085000D03*
D19*
X291250000Y-172085000D03*
X280250000Y-172085000D03*
D20*
X280530000Y-176285000D03*
D11*
X285750000Y-166185000D03*
X290750000Y-168285000D03*
M02*
